<svg id="Layer_1" data-name="Layer 1" xmlns="http://www.w3.org/2000/svg" viewBox="0 0 20 20"><defs><style>.cls-1{fill:#fff;}</style></defs><title>youtube-icon</title><path class="cls-1" d="M18.85,5.69a.29.29,0,0,0-.08-.24V5.38a1.71,1.71,0,0,0-1.66-1.19h.16A53,53,0,0,0,10,3.72a54.43,54.43,0,0,0-7.27.47h.16A1.71,1.71,0,0,0,1.23,5.38v.08a.29.29,0,0,1-.08.24A38.4,38.4,0,0,0,.84,10a38.4,38.4,0,0,0,.32,4.35.29.29,0,0,0,.08.24v.08a1.71,1.71,0,0,0,1.66,1.19H2.73a53,53,0,0,0,7.27.47,54.43,54.43,0,0,0,7.27-.47h-.16a1.71,1.71,0,0,0,1.66-1.19v-.08a.29.29,0,0,1,.08-.24A38.4,38.4,0,0,0,19.16,10,25.71,25.71,0,0,0,18.85,5.69Zm-6.16,4.74L9,13.12a.4.4,0,0,1-.47,0,.43.43,0,0,1-.24-.4V7.35A.43.43,0,0,1,8.5,7,.5.5,0,0,1,9,7l3.71,2.69a.6.6,0,0,1,.16.4A.29.29,0,0,1,12.69,10.43Z"/></svg>