<svg version="1.1" id="Layer_1" xmlns="http://www.w3.org/2000/svg" xmlns:xlink="http://www.w3.org/1999/xlink" x="0px" y="0px"
	 viewBox="0 0 72.3 70" style="enable-background:new 0 0 72.3 70;" xml:space="preserve">
<style type="text/css">
	.st0{fill-rule:evenodd;clip-rule:evenodd;fill:#59408E;}
	.st1{fill-rule:evenodd;clip-rule:evenodd;fill:#2F2F7F;}
	.st2{fill-rule:evenodd;clip-rule:evenodd;fill:#077DBA;}
	.st3{fill-rule:evenodd;clip-rule:evenodd;fill:#05699B;}
	.st4{fill-rule:evenodd;clip-rule:evenodd;fill:#228C51;}
	.st5{fill-rule:evenodd;clip-rule:evenodd;fill:#087D65;}
	.st6{fill-rule:evenodd;clip-rule:evenodd;fill:#FED500;}
	.st7{fill-rule:evenodd;clip-rule:evenodd;fill:#9C832F;}
	.st8{fill-rule:evenodd;clip-rule:evenodd;fill:#921A1D;}
	.st9{fill-rule:evenodd;clip-rule:evenodd;fill:#E01F26;}
	.st10{fill:none;stroke:#228C51;stroke-width:5.892644e-02;stroke-miterlimit:3.864;}
	.st11{fill:#FED500;}
	.st12{fill:#228C51;}
	.st13{fill:#077DBA;}
	.st14{fill:#59408E;}
	.st15{fill:#2F2F7F;}
	.st16{fill:#921A1D;}
	.st17{fill:#E01F26;}
	.st18{display:none;fill:#231F20;}
	.st19{fill:#231F20;}
</style>
<g>
	<g>
		<g>
			<path class="st0" d="M0.5,35.5c-1.6-5,1.1-10.4,6.1-12c5-1.6,10.4,1.1,12,6.1l7.2,22.1c1.6,5-1.1,10.4-6.1,12
				c-5,1.6-10.4-1.1-12-6.1L0.5,35.5z M4.8,34C4,31.5,5.4,28.7,8,27.8c2.6-0.8,5.4,0.6,6.2,3.2l7.2,22.1c0.8,2.6-0.6,5.4-3.2,6.2
				c-2.6,0.8-5.4-0.6-6.2-3.2L4.8,34z"/>
		</g>
		<g>
			<path class="st1" d="M19.6,63.7c-5,1.6-10.4-1.1-12-6.1L0.5,35.5c-1.6-5,1.1-10.4,6.1-12c5-1.6,10.4,1.1,12,6.1l-2.5,0.5
				l7.2,22.1c1.2,3.8-0.8,7.9-4.6,9.1L19.6,63.7z M21.4,53.1c0.8,2.6-0.6,5.4-3.2,6.2c-2.6,0.8-5.4-0.6-6.2-3.2
				c0.5,1.7-0.4,2.7-1.1,2.9c-0.6-0.7-1-1.5-1.3-2.4L2.4,34.5c-1.2-3.8,0.8-7.9,4.6-9.1c1.3-0.4,2.7-0.6,4-0.1
				c0.2,1.6-1.3,1.9-3,2.5c2.6-0.8,5.4,0.6,6.2,3.2L21.4,53.1z"/>
			<path class="st2" d="M25.7,1.8C29.9-1.2,35.9-0.3,39,4c3.1,4.3,2.1,10.2-2.1,13.3L18.1,30.9C13.8,34,7.9,33.1,4.8,28.8
				c-3.1-4.3-2.1-10.2,2.1-13.3L25.7,1.8z M28.4,5.6c2.2-1.6,5.3-1.1,6.9,1.1c1.6,2.2,1.1,5.3-1.1,6.9L15.4,27.2
				c-2.2,1.6-5.3,1.1-6.9-1.1c-1.6-2.2-1.1-5.3,1.1-6.9L28.4,5.6z"/>
			<path class="st3" d="M4.8,28.8c-3.1-4.3-2.1-10.2,2.1-13.3L25.7,1.8C29.9-1.3,35.9-0.3,39,3.9c3.1,4.3,2.1,10.2-2.1,13.3
				l-1.2-2.2L16.8,28.7c-3.2,2.3-7.7,1.6-10.1-1.6L4.8,28.8z M15.4,27.2c-2.2,1.6-5.3,1.1-6.9-1.1c-1.6-2.2-1.1-5.3,1.1-6.9
				c-1.5,1-2.7,0.4-3.1-0.2c0.5-0.8,1.1-1.4,1.9-2L27.2,3.4C30.4,1,34.9,1.8,37.2,5c0.8,1.1,1.4,2.4,1.3,3.8
				c-1.4,0.7-2.3-0.6-3.3-2.1c1.6,2.2,1.1,5.3-1.1,6.9L15.4,27.2z"/>
			<path class="st4" d="M65.4,15.5c4.3,3.1,5.2,9.1,2.1,13.3c-3.1,4.3-9,5.2-13.3,2.1L35.4,17.2c-4.3-3.1-5.2-9.1-2.1-13.3
				c3.1-4.3,9.1-5.2,13.3-2.1L65.4,15.5z M62.7,19.2c2.2,1.6,2.7,4.7,1.1,6.9s-4.7,2.7-6.9,1.1L38.2,13.5c-2.2-1.6-2.7-4.7-1.1-6.9
				c1.6-2.2,4.7-2.7,6.9-1.1L62.7,19.2z"/>
			<path class="st5" d="M33.3,3.9c3.1-4.3,9.1-5.2,13.3-2.1l18.8,13.6c4.3,3.1,5.2,9.1,2.1,13.3c-3.1,4.3-9,5.2-13.3,2.1l1.7-1.8
				L37.1,15.4c-3.2-2.3-3.9-6.9-1.6-10.1L33.3,3.9z M38.2,13.5c-2.2-1.6-2.7-4.7-1.1-6.9c1.6-2.2,4.7-2.7,6.9-1.1
				c-1.4-1.1-1.2-2.4-0.8-3c0.9,0.2,1.7,0.6,2.5,1.2l18.8,13.7c3.2,2.3,3.9,6.9,1.6,10.1c-0.8,1.1-1.9,2-3.2,2.4
				c-1.1-1.1-0.1-2.3,1-3.8c-1.6,2.2-4.7,2.7-6.9,1.1L38.2,13.5z"/>
		</g>
		<g>
			<path class="st6" d="M64.7,57.5c-1.6,5-7,7.7-12,6.1c-5-1.6-7.7-7-6.1-12l7.2-22.1c1.6-5,7-7.7,12-6.1s7.7,7,6.1,12L64.7,57.5z
				 M60.3,56.1c-0.8,2.6-3.6,4-6.2,3.2c-2.6-0.8-4-3.6-3.2-6.2L58.1,31c0.8-2.6,3.6-4,6.2-3.2c2.6,0.8,4,3.6,3.2,6.2L60.3,56.1z"/>
			<path class="st7" d="M65.7,23.5c5,1.6,7.7,7,6.1,12l-7.2,22.1c-1.6,5-7,7.7-12,6.1c-5-1.6-7.7-7-6.1-12l2.3,1.1L56,30.6
				c1.2-3.8,5.3-5.9,9.1-4.6L65.7,23.5z M58.1,31c0.8-2.6,3.6-4,6.2-3.2c2.6,0.8,4,3.6,3.2,6.2c0.7-1.7,1.9-1.9,2.6-1.7
				c0.1,0.9,0,1.8-0.3,2.7l-7.2,22.1c-1.2,3.8-5.3,5.9-9.1,4.6c-1.3-0.4-2.5-1.1-3.3-2.3c0.7-1.4,2.2-0.8,3.9-0.2
				c-2.6-0.8-4-3.6-3.2-6.2L58.1,31z"/>
			<path class="st8" d="M24.5,70c-5.3,0-9.5-4.3-9.5-9.5c0-5.3,4.3-9.5,9.5-9.5h23.2c5.3,0,9.5,4.3,9.5,9.5c0,5.3-4.3,9.5-9.5,9.5
				H24.5z M24.5,65.4c-2.7,0-4.9-2.2-4.9-4.9c0-2.7,2.2-4.9,4.9-4.9h23.2c2.7,0,4.9,2.2,4.9,4.9c0,2.7-2.2,4.9-4.9,4.9H24.5z"/>
			<path class="st9" d="M57.3,60.5c0,5.3-4.3,9.5-9.5,9.5H24.5c-5.3,0-9.5-4.3-9.5-9.5c0-5.3,4.3-9.5,9.5-9.5l-0.3,2.5h23.3
				c4,0,7.2,3.2,7.2,7.2L57.3,60.5z M47.8,55.6c2.7,0,4.9,2.2,4.9,4.9c0,2.7-2.2,4.9-4.9,4.9c1.8,0.1,2.4,1.2,2.4,2
				c-0.8,0.3-1.7,0.5-2.7,0.5H24.2c-4,0-7.2-3.2-7.2-7.2c0-1.4,0.3-2.8,1.1-3.9c1.5,0.3,1.5,1.8,1.5,3.7c0-2.7,2.2-4.9,4.9-4.9H47.8
				z"/>
			<path class="st10" d="M24.2,67.9c-4,0-7.2-3.2-7.2-7.2c0-4,3.2-7.2,7.2-7.2h23.3c4,0,7.2,3.2,7.2,7.2c0,4-3.2,7.2-7.2,7.2H24.2z"
				/>
			<path class="st9" d="M24.5,70c-5.3,0-9.5-4.3-9.5-9.5c0-5.3,4.3-9.5,9.5-9.5h23.2c5.3,0,9.5,4.3,9.5,9.5c0,5.3-4.3,9.5-9.5,9.5
				H24.5z M24.5,65.4c-2.7,0-4.9-2.2-4.9-4.9c0-2.7,2.2-4.9,4.9-4.9h23.2c2.7,0,4.9,2.2,4.9,4.9c0,2.7-2.2,4.9-4.9,4.9H24.5z"/>
			<path class="st8" d="M57.3,60.5c0,5.3-4.3,9.5-9.5,9.5H24.5c-5.3,0-9.5-4.3-9.5-9.5c0-5.3,4.3-9.5,9.5-9.5l-0.3,2.5h23.3
				c4,0,7.2,3.2,7.2,7.2L57.3,60.5z M47.8,55.6c2.7,0,4.9,2.2,4.9,4.9c0,2.7-2.2,4.9-4.9,4.9c1.8,0.1,2.4,1.2,2.4,2
				c-0.8,0.3-1.7,0.5-2.7,0.5H24.2c-4,0-7.2-3.2-7.2-7.2c0-1.4,0.3-2.8,1.1-3.9c1.5,0.3,1.5,1.8,1.5,3.7c0-2.7,2.2-4.9,4.9-4.9H47.8
				z"/>
			<path class="st7" d="M64.7,57.5c-1.6,5-7,7.7-12,6.1c-3.7-1.2-6.2-4.5-6.5-8.1l1.6,0c1.6,0,2.7,0.6,3.6,1.6
				c0.6,1,1.5,1.7,2.7,2.1c-1.7-0.6-3.2-1.1-3.9,0.2c0.8,1.1,2,1.8,3.3,2.3c3.8,1.2,7.9-0.8,9.1-4.6L64.7,57.5z"/>
			<path class="st11" d="M60.3,56.1c-0.8,2.6-3.6,4-6.2,3.2c-1.7-0.6-3.2-1.1-3.9,0.2c0.8,1.1,2,1.8,3.3,2.3
				c3.8,1.2,7.9-0.8,9.1-4.6L60.3,56.1z"/>
			<path class="st5" d="M57.6,32.4c3.6,0.9,7.6-0.5,9.9-3.7c3.1-4.3,2.2-10.2-2.1-13.3l-1,1.9c3.2,2.3,3.9,6.9,1.6,10.1
				c-0.8,1.1-1.9,2-3.2,2.4c-1.1-1.1-0.1-2.3,1-3.8c-0.8,1-1.8,1.7-3,1.9c-1.2,0.5-2.3,1.6-2.7,3L57.6,32.4z"/>
		</g>
		<g>
			<path class="st12" d="M64.4,17.4c3.2,2.3,3.9,6.9,1.6,10.1c-0.8,1.1-1.9,2-3.2,2.4c-1.1-1.1-0.1-2.3,1-3.8
				c1.6-2.2,1.1-5.3-1.1-6.9L64.4,17.4z"/>
			<path class="st3" d="M25.7,1.8C29.9-1.2,35.9-0.3,39,4c2.3,3.2,2.4,7.3,0.4,10.5l-1.3-1c-1.1-0.8-1.8-2-2-3.4
				c0.1-1.2-0.2-2.4-0.9-3.4c1.1,1.5,1.9,2.8,3.3,2.1c0-1.4-0.5-2.6-1.3-3.8C34.9,1.8,30.4,1,27.2,3.4L25.7,1.8z"/>
		</g>
		<g>
			<path class="st13" d="M28.4,5.6c2.2-1.6,5.3-1.1,6.9,1.1c1.1,1.5,1.9,2.8,3.3,2.1c0-1.4-0.5-2.6-1.3-3.8
				C34.9,1.8,30.4,1,27.2,3.4L28.4,5.6z"/>
			<path class="st14" d="M4.8,34C4,31.5,5.4,28.7,8,27.8c1.7-0.6,3.3-1,3-2.5c-1.3-0.4-2.7-0.3-4,0.1c-3.8,1.2-5.9,5.3-4.6,9.1
				L4.8,34z"/>
			<path class="st1" d="M16.7,26.2l-1.3,0.9c-1.1,0.8-2.5,1.1-3.8,0.9c-1.1-0.5-2.3-0.6-3.5-0.2c1.7-0.6,3.3-1,3-2.5
				c-1.3-0.4-2.7-0.3-4,0.1c-3.8,1.2-5.9,5.3-4.6,9.1l-1.9,0.9c-1.6-5,1.1-10.4,6.1-12C10.3,22.2,14.3,23.5,16.7,26.2"/>
			<path class="st15" d="M20.8,51.3l0.6,1.8c0.6,1.7,0.1,3.6-1,4.8c-0.4,0.7-0.7,1.6-0.7,2.6c0,0.1,0,0.3,0,0.4
				c3.2-1.6,4.8-5.2,3.7-8.7l-0.7-2.1L20.8,51.3z"/>
			<path class="st14" d="M25.4,50.5l0.4,1.2c1.5,4.7-0.8,9.7-5.2,11.7c-0.5-0.7-0.8-1.5-0.9-2.4c3.2-1.6,4.8-5.2,3.7-8.7l-0.7-2.1
				L25.4,50.5z"/>
			<path class="st16" d="M24.5,70c-5.3,0-9.5-4.3-9.5-9.5c0-4,2.4-7.4,5.9-8.8l0.5,1.4c0.6,1.7,0.1,3.6-1,4.8
				c-0.4,0.7-0.7,1.6-0.7,2.6c0-1.8,0.1-3.4-1.5-3.7c-0.8,1.1-1.1,2.4-1.1,3.9c0,4,3.2,7.2,7.2,7.2L24.5,70z"/>
			<path class="st17" d="M24.2,67.9c-4,0-7.2-3.2-7.2-7.2c0-1.4,0.3-2.8,1.1-3.9c1.5,0.3,1.5,1.8,1.5,3.7c0,2.7,2.2,4.9,4.9,4.9
				L24.2,67.9z"/>
			<path class="st18" d="M-14.5,83.6c0,0.8,0.3,1.7,1.3,1.7c0.9,0,1.3-0.7,1.3-1.7c0-1.1-0.4-1.7-1.5-1.7H-14v-1h0.5
				c1,0,1.3-0.7,1.3-1.6c0-0.7-0.3-1.3-1.1-1.3c-0.9,0-1.2,0.8-1.2,1.6h-1.4c0-1.7,0.9-2.7,2.7-2.7c1.1,0,2.5,0.5,2.5,2.4
				c0,1-0.6,1.9-1.5,2v0c1,0.1,1.7,0.9,1.7,2.1c0,1.8-0.9,2.9-2.8,2.9c-1.7,0-2.6-0.8-2.6-2.8H-14.5z"/>
			<polygon class="st18" points="-9.2,76.8 -6.9,76.8 -5.2,83.8 -5.2,83.8 -3.6,76.8 -1.3,76.8 -1.3,86.2 -2.7,86.2 -2.7,78.4
				-2.8,78.4 -4.6,86.2 -5.9,86.2 -7.8,78.4 -7.8,78.4 -7.8,86.2 -9.2,86.2 			"/>
			<path class="st18" d="M0.8,77.5h-0.9V77h2.3v0.4H1.2V80H0.8V77.5z M5.5,77.5L5.5,77.5l-1,2.4H4.2l-1-2.4h0V80H2.7V77h0.7l0.9,2.3
				L5.3,77H6V80H5.5V77.5z"/>
			<polygon class="st18" points="10.4,76.8 12.8,76.8 14.4,83.8 14.4,83.8 16.1,76.8 18.3,76.8 18.3,86.2 16.9,86.2 16.9,78.4
				16.9,78.4 15,86.2 13.8,86.2 11.9,78.4 11.8,78.4 11.8,86.2 10.4,86.2 			"/>
			<path class="st18" d="M25.6,82.8V83c0,1.7-0.7,3.3-2.9,3.3c-2.4,0-3.1-1.5-3.1-4.9c0-3.3,0.7-4.9,3.1-4.9c2.7,0,2.8,2,2.8,2.9
				v0.2h-1.5v-0.2c0-0.9-0.3-1.9-1.3-1.8c-1.1,0-1.6,0.7-1.6,3.7c0,3,0.5,3.8,1.6,3.8c1.2,0,1.4-1.4,1.4-2.3v-0.2H25.6z"/>
			<path class="st18" d="M27.8,83.3v0.2c0,1.1,0.5,1.7,1.5,1.7c0.9,0,1.4-0.7,1.4-1.4c0-1-0.5-1.4-1.3-1.7l-1-0.4
				c-1.4-0.5-2-1.2-2-2.6c0-1.7,1.2-2.6,2.9-2.6c2.4,0,2.6,1.5,2.6,2.5v0.2h-1.5v-0.2c0-0.9-0.4-1.3-1.3-1.3c-0.6,0-1.3,0.4-1.3,1.3
				c0,0.8,0.4,1.2,1.4,1.6l1,0.4c1.3,0.5,1.9,1.2,1.9,2.5c0,2-1.2,2.8-3.1,2.8c-2.3,0-2.8-1.5-2.8-2.9v-0.2H27.8z"/>
			<path class="st18" d="M34,77.5h-0.9V77h2.3v0.4h-0.9V80H34V77.5z M38.7,77.5L38.7,77.5l-1,2.4h-0.3l-1-2.4h0V80H36V77h0.7
				l0.9,2.3l0.9-2.3h0.7V80h-0.5V77.5z"/>
			<polygon class="st18" points="42.5,76.8 44,76.8 45.2,84.1 45.3,84.1 46.5,76.8 48.1,76.8 49.3,84.1 49.3,84.1 50.6,76.8
				52,76.8 50.2,86.2 48.5,86.2 47.3,79.1 47.2,79.1 46,86.2 44.3,86.2 			"/>
			<path class="st18" d="M57.2,84.7c0,0.3,0.2,0.5,0.4,0.5c0.1,0,0.2,0,0.2,0v0.9c-0.2,0.1-0.4,0.2-0.7,0.2c-0.6,0-1.2-0.2-1.2-0.9
				h0c-0.4,0.7-0.9,1-1.8,1c-1.1,0-1.8-0.6-1.8-2c0-1.6,0.7-1.9,1.6-2.2l1.1-0.3c0.5-0.1,0.8-0.3,0.8-0.9c0-0.6-0.2-1-1-1
				c-0.9,0-1.1,0.7-1.1,1.3h-1.3c0-1.5,0.6-2.3,2.5-2.3c1.2,0,2.2,0.5,2.2,1.7V84.7z M55.9,82.5c-0.4,0.3-1.2,0.5-1.6,0.7
				c-0.4,0.2-0.6,0.6-0.6,1.1c0,0.6,0.3,1.1,0.9,1.1c0.9,0,1.3-0.6,1.3-1.7V82.5z"/>
			<path class="st18" d="M58.6,79.1H60v1.1h0c0.3-0.8,0.8-1.3,1.6-1.3c0.2,0,0.2,0,0.3,0.1v1.4c-0.1,0-0.4-0.1-0.6-0.1
				c-0.6,0-1.4,0.3-1.4,1.6v4.2h-1.4V79.1z"/>
			<path class="st18" d="M62.8,79.1h1.4v1.1h0c0.3-0.8,0.8-1.3,1.6-1.3c0.2,0,0.2,0,0.3,0.1v1.4c-0.1,0-0.4-0.1-0.6-0.1
				c-0.6,0-1.4,0.3-1.4,1.6v4.2h-1.4V79.1z"/>
			<path class="st18" d="M71.4,84.7c0,0.3,0.2,0.5,0.4,0.5c0.1,0,0.2,0,0.2,0v0.9c-0.2,0.1-0.4,0.2-0.7,0.2c-0.6,0-1.2-0.2-1.2-0.9
				h0c-0.4,0.7-0.9,1-1.8,1c-1.1,0-1.8-0.6-1.8-2c0-1.6,0.7-1.9,1.6-2.2l1.1-0.3c0.5-0.1,0.8-0.3,0.8-0.9c0-0.6-0.2-1-1-1
				c-0.9,0-1.1,0.7-1.1,1.3h-1.3c0-1.5,0.6-2.3,2.5-2.3c1.2,0,2.2,0.5,2.2,1.7V84.7z M70.1,82.5c-0.4,0.3-1.2,0.5-1.6,0.7
				c-0.4,0.2-0.6,0.6-0.6,1.1c0,0.6,0.3,1.1,0.9,1.1c0.9,0,1.3-0.6,1.3-1.7V82.5z"/>
			<path class="st18" d="M72.9,79.1h1.3V80h0c0.4-0.6,1-1,1.8-1c1.1,0,1.8,0.5,1.8,1.9v5.3h-1.4v-4.8c0-0.9-0.3-1.3-1-1.3
				c-0.6,0-1.1,0.5-1.1,1.4v4.7h-1.4V79.1z"/>
		</g>
		<g>
			<path class="st19" d="M60.5,5.7h-0.9V5.3h2.3v0.4H61v2.5h-0.5V5.7z M65.2,5.8L65.2,5.8l-1,2.4H64l-1-2.4h0v2.4h-0.5V5.3h0.7
				l0.9,2.3L65,5.3h0.7v2.9h-0.5V5.8z"/>
		</g>
	</g>
</g>
</svg>
