<?xml version="1.0" encoding="utf-8"?>
<!-- Generator: Adobe Illustrator 21.1.0, SVG Export Plug-In . SVG Version: 6.00 Build 0)  -->
<svg version="1.1" id="Layer_1" xmlns="http://www.w3.org/2000/svg" xmlns:xlink="http://www.w3.org/1999/xlink" x="0px" y="0px"
	 viewBox="0 0 1717.9 615.7" style="enable-background:new 0 0 1717.9 615.7;" xml:space="preserve">
<style type="text/css">
	.st0{fill:#6E717A;}
</style>
<path class="st0" d="M1202.5,79.4c0,0-32.2,12.9-69.7,54.2c-37.6,41.5-59.3,87.7-43.1,100c6.2,4.7,20.4,5.5,46.5-17.9
	c20.2-18.2,40.8-42,54.9-76.2C1207.8,98.7,1202.5,80,1202.5,79.4 M1407.5,153.7c-41.6-21.3-71.9-47.4-103.6-63.7
	c-30.3-15.5-49.7-21.9-74.2-18.6c-4.1,0.5-10.1,2.4-10.1,2.4s12.6,42.9-37.4,115.1c-50.7,73.1-96.6,72.8-109.7,52.5
	c-13.7-21.2,3.9-64.4,33.5-102.9c30.9-40.2,85.1-73.7,85.1-73.7s-17.3-10.5-59.9,13.6c-41.4,23.4-112.9,79.3-179,173.6
	c-66.1,94.2-79.3,146.1-88.8,186.9c-9.6,40.8-0.8,84.5,44.4,84.5c45.4,0,98-69.1,112.8-93.1c27.5-44.8,45.5-113.3,8-103.8
	c-18.6,4.6-33.6,25.2-43,44.9C975.9,391.7,972,411,972,411s-15.6,5.6-36.7,21.3c-21,15.7-34.7,30.8-34.7,30.8s0.1-32.6,26.1-85.4
	s73.8-77,100.7-79.2c24.4-2,56.1,18.7,29.3,95c-26.8,76.4-106,169-189.3,170.3c-76.8,1.1-127.1-97-20.3-268.2
	c118.1-189.3,257.1-247.3,302.2-253.8s59.7,13.4,59.7,13.4s37.8-17.4,85.7-14.2c55.1,3.7,97.7,42.7,153.8,70
	C1434,125.3,1420.1,139.9,1407.5,153.7 M1654.8,89.8c-38,24.6-90.9,46.8-141.6,41.9c-12.8,13.3-26.5,28.6-40.4,45.4
	c88.1,17.4,165-37.2,206.1-83.6c25.6-29,38.2-54.9,38.2-54.9S1692.5,65.5,1654.8,89.8 M1537.8,337.7c1.1-1.9,1.6-3.7,1.6-3.7
	s-1-7.4-8-7.7c-8.4-0.4-19.8,1.2-49.7,34.4c-29.8,33-48,61.8-63.7,90.5c-17.2,31.4-24,54.7-14.2,60.7c2.8,1.7,7,1.9,10.4,1
	c6.7-1.6,14.2-7.8,25.8-21.2c5.4-6.2,11.4-15,18.5-24.9C1478.2,439.9,1527.9,354.9,1537.8,337.7 M1226.5,374
	c5-13.1,11.4-38.8-1.9-48.8c-14.2-10.7-50.4,14.4-50.6,40.1c-0.2,26.5,25.6,38.4,31.8,40c3.5,1,4.7,0.9,6.5-2
	C1213.2,401.4,1221.4,387.1,1226.5,374 M1199.1,422c-1-0.3-12.7-5.8-25-15.9c-12.2-10.2-18.3-21.8-18.8-22.7c-0.4-0.9-1-0.2-1.6,0.6
	c-0.6,0.7-2.7,2.6-22.1,31.1c-19.3,28.4-48.9,87.1-22,97c17.2,6.4,45.9-23.7,61.5-43.7c14.5-18.6,28.1-42.2,28.8-43.9
	C1200.8,422.8,1200,422.3,1199.1,422 M1504,489.6c-7.4,11.6-15.6,34,8.5,20.1c29.3-17,71.1-80.4,71.1-80.4h18.9
	c0,0-24.9,39.4-57.3,75.4c-29.8,32.9-66.1,63-91.6,60c-29.9-3.5-20.5-42.7-20.5-42.7s-42.8,45.5-72.3,42.3
	c-39.8-4.4-27.7-53.7-27.7-53.7s-45.1,55.5-75.8,53.7c-48.2-2.8-36.2-61.7-22.7-102.8c7.2-22.1,13.9-39.5,13.9-39.5s-4.8,1.3-15,2.8
	c-5.4,0.8-15.2,1.3-15.2,1.3s-20.1,35.5-36.1,56.8c-16.1,21.3-84.2,94.7-124.5,80.1c-37.1-13.6-24.9-70.5-3.3-115.7
	c31.5-65.8,120.2-160.6,171.5-148.2c53,12.9,1.2,109.7,1.2,109.7s0,0.4,0.6,0.6c1.1,0.4,3.8,0.7,10.2-0.5c10.3-2,19.5-5.8,19.5-5.8
	s53.3-111.7,112.2-184.9c58.9-73.1,176.4-199,222.6-168.6c11.3,7.5,6.1,33.2-9,64.6c-6.7,2.1-13.7,4-20.8,5.4
	c10.2-18.4,16.9-34,18.9-44.8c6.9-37.7-81.2,41.9-144.3,127.5c-62.9,85.7-100.7,163.3-100.7,163.3s12.8-7.2,32.5-23.1
	c20.7-16.7,49.1-42.8,80-74.8c20.8-21.4,45.2-48.4,68.1-78.6c6.8-0.4,13.5-1,20-2c-25.4,34.4-52.3,65.7-75.1,88.8
	c-25,25.4-52.3,52.8-76,72.7c-37.6,31.6-66.6,49.6-66.6,49.6s-55.2,111-25.3,118.2c17.7,4.2,52.4-49.4,52.4-49.4
	s45.4-69.3,72.7-100.5c37.3-42.5,69.4-67,101.6-67.5c18.7-0.3,29.7,19.6,29.7,19.6l8.8-13.6h54.3
	C1613.2,304.9,1512,476.7,1504,489.6 M1654.8,89.8c-38,24.6-90.9,46.8-141.6,41.9c-12.8,13.3-26.5,28.6-40.4,45.4
	c88.1,17.4,165-37.2,206.1-83.6c25.6-29,38.2-54.9,38.2-54.9S1692.5,65.5,1654.8,89.8 M1561.3,532.4h8.3c3,0,5.2,0.3,6.6,0.8
	c2.5,1,3.7,3.1,3.7,6c0,2.1-0.8,3.7-2.4,4.7c-0.8,0.5-2,1-3.4,1.3c1.9,0.2,3.3,1,4.1,2.3c0.8,1.2,1.3,2.5,1.3,3.7v1.7
	c0,0.5,0.1,1.1,0.1,1.7c0,0.7,0,1.1,0.2,1.3l0.2,0.3h-4V556c-0.2-0.1-0.2-0.1-0.2-0.2l-0.1-0.8v-2c0-2.7-0.7-4.5-2.3-5.3
	c-0.8-0.6-2.4-0.8-4.6-0.8h-3.4v9.4h-4.2v-23.9H1561.3z M1575.7,539.7c0-1.7-0.5-3-1.6-3.5c-0.9-0.6-2.8-0.9-5-0.9h-3.6v8.6h3.8
	c1.8,0,3.1-0.2,4-0.5C1574.8,542.6,1575.7,541.5,1575.7,539.7 M1591.7,544.3c0,6.1-2.1,11.2-6.3,15.4c-4.2,4.3-9.4,6.4-15.4,6.4
	s-11.1-2.1-15.4-6.4c-4.2-4.2-6.4-9.4-6.4-15.4c0-5.9,2.2-11.1,6.4-15.2c4.2-4.2,9.3-6.4,15.3-6.4s11.1,2.2,15.4,6.4
	C1589.6,533.2,1591.7,538.4,1591.7,544.3 M1570,525.7c-5.1,0-9.5,1.8-13.2,5.4c-3.6,3.7-5.4,8-5.4,13.2c0,5.3,1.9,9.7,5.4,13.5
	c3.6,3.4,8,5.4,13.2,5.4s9.6-1.9,13.2-5.4c3.7-3.8,5.4-8.2,5.4-13.5c0-5.1-1.8-9.5-5.4-13.2C1579.5,527.5,1575.3,525.7,1570,525.7
	 M893.8,174.5h-51.5l-29.1,47.1h51.5L893.8,174.5z M649.9,337.6c21.9-30,82.3-135.3,82.3-135.3s-1-7.4-8-7.8
	c-8.4-0.4-22.3,2.4-50,37.2c-27.8,34.7-49.2,62.4-64.9,91.1c-17.2,31.4-24.8,53.5-14.8,59.5c2.7,1.7,6.9,1.8,10.4,1.1
	c6.4-1.6,14.8-8.1,26.4-21.4C636.6,355.8,642.6,347.5,649.9,337.6 M373.2,195.3c-14.3-10.8-50.5,14.4-50.7,40.2
	c-0.3,26.4,32.7,33.9,36.9,34.1c0,0,3.7,1,5.2-2.1c1-1.9,5.4-10.2,10.4-23.3C380.1,231.1,386.5,205.4,373.2,195.3 M351.7,286.2
	c-0.9-0.3-14.6-4.2-27.9-12.8c-13.3-8.5-19.5-21.2-20-22.1c-0.5-0.9-1-0.2-1.6,0.5c-0.5,0.8-3.4,4.5-22.7,32.9
	c-19.4,28.5-48,86.7-21.1,96.6c17.2,6.4,46.1-23.9,61.8-43.9c14.5-18.6,31.8-47.1,32.5-48.8C353.3,286.9,352.6,286.5,351.7,286.2
	 M772.9,303.5h18.9c0,0-94.5,136.7-148.1,130.6c-29.8-3.4-20.9-40.3-20.9-40.3s-42,49.1-80.4,39.3c-34.9-8.9-12.4-67-12.4-67
	c-4,1.6-79.5,86.9-132.6,66.4c-55.5-21.4-26.8-92.7-16.1-114.2c8.9-18.1,18.8-35.7,18.8-35.7s-8.6,2.4-13.8,3.6
	c-5.3,1.2-13.4,2.8-13.4,2.8s-26.3,42.7-42.4,64.1c-16,21.3-84.3,94.6-124.5,80s-30.3-70.9-7.6-115.6
	C235,245,321.8,155.9,374.2,169.3c52.9,13.5,9.2,99.3,9.2,99.3s10.5,1.4,35.7-15.8c36.4-24.8,84.3-91.4,136.2-83.6
	c24.3,3.6,47,28.7,16,76.1c-10,15.3-26.6,28.9-39.4,15.4c-7.9-8.3-1.1-23.6,7.3-34.1c11.8-14.8,28-12.9,28-12.9s8.6-19.7-13.2-19.3
	c-17.7,0.3-62.3,41.5-87.6,83.1c-23.1,38.2-58.2,103.2-23,117.4c32.3,13,93.6-59.9,122.1-98.1S658.7,172,713,168.5
	c18.6-1.3,29.8,15.8,29.8,15.8l6.3-10h54.2c0,0-102.3,170.9-110.3,183.8c-6.3,10.2-14.6,32.9,8.5,20.1
	C724.8,365.5,772.9,303.5,772.9,303.5 M743.4,577.3c-41.1-28.9-91.1-41.7-136.7-39.8c-46,1.8-66.6,36.1-66.6,36.1
	c-20.8-36.1-61.7-58.3-125.1-57.8c-102.3,1.2-203.9,48.5-284.4,48.5C53.5,564.3-2.8,515.8-1,429.7c3.2-151,130.8-287,226.2-348.3
	C280,46.2,325.9,35.7,356,39c21.9,2.5,48.2,27.8,31.6,65c-24.4,54.6-58.1,50-56.9,23.9c0.7-16.9,12-27.6,20.5-33.5
	c5.4-3.7,14.9-4.8,19.8-4.9c4.8-4.1,8.5-34-30.8-24.1s-86.5,48.4-131.6,98.1c-45.1,49.8-115.2,144-132.5,242.9
	c-8.1,45.9-2.6,129.4,106,128.4c92.1-0.8,228-61.4,352.8-60.3c48.5,0.4,90.7,13.5,123.6,33.8C690.9,528.5,729.7,557.5,743.4,577.3"
	/>
</svg>
