<?xml version="1.0" encoding="utf-8"?>
<!-- Generator: Adobe Illustrator 21.1.0, SVG Export Plug-In . SVG Version: 6.00 Build 0)  -->
<svg version="1.1" id="Layer_1" xmlns="http://www.w3.org/2000/svg" xmlns:xlink="http://www.w3.org/1999/xlink" x="0px" y="0px"
	 viewBox="0 0 155.7 64.8" style="enable-background:new 0 0 155.7 64.8;" xml:space="preserve">
<style type="text/css">
	.st0{fill-rule:evenodd;clip-rule:evenodd;fill:#3C3C3C;}
	.st1{fill:#3C3C3C;}
</style>
<g>
	<path class="st0" d="M117.7,26.2c-0.6,0.3-1,0.6-1,1c-0.2,0.5-0.1,0.9,0.4,1.2l1.7,0.9l1.3,1.1l-1.2,3l-1.4,0.8
		c-0.6,0.4-0.7,1-0.5,1.9l-0.3,2.3l-0.8,3.2c-0.5,3,0.4,5.2,2.8,6.7c2.1,1.4,5.9,0.4,11.3-3.1c1-0.6,1.5-1.6,1.3-3
		c-0.1-1.4-1-1.9-2.7-1.7l-6.5,1.3c-0.4-0.1-0.6-0.8-0.4-2.1c0.3-1.3,0.7-2.1,1.1-2.1l5.7-0.4c1.4-0.3,2.2-0.9,2.3-2
		c0.1-1.1-0.4-1.8-1.8-1.9h-4.8c-0.5-1.3-0.1-2.2,1-2.9l4.3-0.3l4.5-1c0.5-0.5,0.4-1.2-0.2-2.3c-0.7-1.2-1.4-1.9-2.4-2L117.7,26.2
		L117.7,26.2z"/>
	<path class="st0" d="M115,37.7c0.1-3.1-0.6-6.5-2.4-10.6c-1.8-4.1-3.4-6.1-4.8-5.8c-0.8,0.1-0.6,3,0.8,8.5c1.4,5.6,1.8,8.4,0.9,8.7
		c-0.3,0.1-1.7-1.9-4.1-6c-2.5-4.2-4.4-6.1-5.8-6.1c-1.7,0.2-2.9,3.7-3.6,10.3c-0.9,6.8-0.1,10.3,2.1,10.5c1.4,0.1,2.3-2.1,2.6-6.2
		c0.3-4.2,0.6-6.3,1-6.3l3.1,5.3c1.9,3.6,3.6,5.6,5,5.8C113.1,46.2,114.9,43.6,115,37.7L115,37.7z"/>
	<path class="st0" d="M93.6,43.7c1.1-1.7,1.5-3.4,1.3-5.4c-0.5-3.2-3.5-5-9-5.7l-5.6-0.4c-1.7-0.1-2.5-0.5-2.5-1
		c0.1-0.7,2.6-1.1,7.4-1.4L92,29c2.1-0.4,3.1-1.3,3.3-2.5c0-1.2-2.5-1.9-7.5-1.9c-5-0.1-8.8,0.6-11.3,2.1c-2.3,1.4-3.6,3-3.9,4.8
		c-0.1,2.1,1.3,3.3,4.3,3.9l8.6,0.7c3.6,0.4,5.4,1.2,5.4,2.4c-0.1,2.2-2.9,3.6-8.4,3.9l-5-0.5c-1.4-0.5-1.8-1.2-1.1-2.1
		c0.7-1,1.8-1.1,3.4-0.4c2.1,1,3.9,1.6,5.3,1.5c1.7-0.1,2.8-0.7,3.4-1.7c0.7-1.1-0.6-1.9-3.9-2.5c-5.8-1-9.2-0.2-10.4,2.6
		c-0.7,1.5-0.1,3.2,1.7,5c2.2,2.1,5.3,3.2,9.7,3C89.3,47.3,92,46.1,93.6,43.7L93.6,43.7z"/>
	<path class="st0" d="M155.5,31.3c-0.6-3-2-4.7-4.3-5c-1.5-0.3-4,1.7-7.7,5.8l-5.3,5.9c-0.4-0.4-0.2-1.8,0.8-4.4l2.8-5.2l0.8-2.5
		c0.1-0.8,0-1.3-0.4-1.5c-1.2-0.4-3.2,1.8-6,6.8c-2.4,4.3-2.8,8.5-1,12.7l-3,8.6c-1.3,4.4-1.8,7.3-1.3,8.6c0.5,1.4,1.1,2.5,2.1,3.2
		c1,0.7,1.8,0.8,2.5,0.5l1.9-8c1.3-4.8,2.3-7.6,3.1-8.2c2.2,0.1,4.5-0.5,7-1.8c3-1.6,5.1-3.7,6.4-6.3
		C155.6,37.3,156.1,34.3,155.5,31.3L155.5,31.3z M152.5,33.5c0,1.1-0.4,2.3-1.1,3.7c-1.9,3.3-4.3,5-7.2,4.7c0.3-1.4,1.5-3.6,3.6-6.6
		c1.9-2.9,3.3-4.3,3.7-4.1C152.2,31.4,152.5,32.3,152.5,33.5L152.5,33.5z"/>
	<path class="st0" d="M2.9,8.1c1.4,0,2.2-0.4,2.3-1C5.2,6.6,4.9,6.2,4.4,6C3.7,5.7,3.4,5.5,3.4,5.3c0.1-0.7,2.1-1,6.2-1l12.9,1.2
		c9.6,1.9,17.9,5.8,24.9,11.6c6.6,5.5,9.9,10.8,10,16c0.1,6.6-4.2,10.8-12.7,12.4L35.4,46c-2.9-0.3-4.6-0.7-5.2-1.3l0.1-13.8
		l7.7,0.3c4.1,0.6,6.2,1.4,6.2,2.5c0.1,1.1-0.3,2-1.1,2.5L42,37c0.1,1.4,1.4,1.7,3.7,0.7c2.4-1,3.6-2.7,3.3-4.9
		c-0.3-4.7-6.6-7.3-19-7.7l-0.4-6.1c-0.5-3.4-1.5-5.1-3-5.1C25,14,24,17.8,24,25.5c-2.7,0.2-5.8,1-9.2,2.6c-3.8,1.8-5.7,3.6-5.5,5.4
		c0.3,2.5,2.2,5.3,5.8,8.4c2.6,2.3,5.6,4.3,8.9,6.1c0,3.6,1.1,5.5,3.2,5.6c0.8,0.1,1.5-0.2,2.2-0.8c0.6-0.6,1-1.5,1-2.4
		c12.1,1.9,21.2,0.4,27.1-4.5c4.2-3.4,6.3-7.6,6.2-12.4C63.7,24,57.3,15.8,44.6,8.8c-5-2.9-10.3-5.1-16-6.7
		C23.3,0.6,18.7-0.1,14.9,0C8.9,0.2,4.6,1.1,2.1,2.7C0.2,4-0.4,5.4,0.3,7C0.5,7.8,1.5,8.1,2.9,8.1L2.9,8.1z M17.2,40
		c-3.9-2.3-5.9-4.2-5.9-5.5c-0.1-0.9,1.9-1.9,6.1-2.7l6.5-0.7c0.3,0.3,0.4,2.3,0.4,6.2c0,1.9-0.1,3.8-0.3,5.8
		C23.3,43.4,21,42.3,17.2,40L17.2,40z"/>
	<path class="st0" d="M71.2,4.5c-2.7,0.4-5.2,1.9-7.6,4c-2.4,2.2-3.6,4.1-3.3,5.9l1.3,4.5l0.4,2.5c0.2,0.8,0.7,1.2,1.3,1.3
		c1,0.2,1.8-0.3,2.1-1.3l6.5-0.2c2.9-0.7,5.8-2.7,8.5-6.1c1.6-2,2.2-3.9,1.6-5.5c-0.5-1.5-1.4-2.5-3-2.7l-2.3-1.6
		C75.2,4.3,73.4,4,71.2,4.5L71.2,4.5z M64.9,11.9c1-1.4,2.1-2.1,3.1-2.1c-0.5,1.1-1.2,2.1-2.2,3.2L64,14.2
		C63.6,14,63.9,13.3,64.9,11.9L64.9,11.9z M78.4,10.2c1.4,1.6,0.6,3.3-2.5,5.1c-3,1.8-5.6,2.4-7.5,1.8c0.2-1.4,1.6-3.1,4.2-5.2
		C75.3,9.5,77.3,9,78.4,10.2L78.4,10.2z"/>
	<path class="st0" d="M68,25.2c-1.2-0.1-1.8,2.6-2.1,8v10.3c0.1,1.6,0.4,2.6,0.7,3.1c0.4,0.6,1.1,0.8,2.2,0.9
		c0.9,0.1,1.6-0.5,2.1-1.7c0.3-1,0.4-2.1,0.3-3.1L71,33.5C70.7,28,69.7,25.3,68,25.2L68,25.2z"/>
</g>
<path class="st1" d="M153.7,62.8c0-0.1,0-0.2,0-0.3v-0.3c0-0.2-0.1-0.4-0.2-0.6c-0.1-0.2-0.4-0.3-0.7-0.4c0.2,0,0.5-0.1,0.6-0.2
	c0.3-0.2,0.4-0.4,0.4-0.8c0-0.5-0.2-0.8-0.6-1c-0.2-0.1-0.6-0.1-1.1-0.1h-1.4v4h0.7v-1.6h0.6c0.4,0,0.6,0,0.8,0.1
	c0.3,0.1,0.4,0.5,0.4,0.9v0.3l0,0.1c0,0,0,0,0,0v0h0.7l0,0C153.7,63,153.7,63,153.7,62.8z M152.6,60.9c-0.1,0.1-0.4,0.1-0.7,0.1
	h-0.6v-1.5h0.6c0.4,0,0.7,0.1,0.9,0.2c0.2,0.1,0.3,0.3,0.3,0.6C153,60.6,152.9,60.8,152.6,60.9z"/>
<path class="st1" d="M154.7,58.5c-0.7-0.7-1.6-1.1-2.6-1.1c-1,0-1.9,0.4-2.6,1.1c-0.7,0.7-1.1,1.6-1.1,2.6c0,1,0.4,1.9,1.1,2.6
	c0.7,0.7,1.6,1.1,2.6,1.1c1,0,1.9-0.4,2.6-1.1c0.7-0.7,1.1-1.6,1.1-2.6C155.7,60.1,155.4,59.2,154.7,58.5z M154.3,63.4
	c-0.6,0.6-1.4,0.9-2.2,0.9c-0.9,0-1.6-0.3-2.2-0.9c-0.6-0.6-0.9-1.4-0.9-2.3c0-0.9,0.3-1.6,0.9-2.2c0.6-0.6,1.4-0.9,2.2-0.9
	c0.9,0,1.6,0.3,2.2,0.9c0.6,0.6,0.9,1.4,0.9,2.2C155.2,62,154.9,62.7,154.3,63.4z"/>
</svg>
