<?xml version="1.0" encoding="utf-8"?>
<!-- Generator: Adobe Illustrator 21.1.0, SVG Export Plug-In . SVG Version: 6.00 Build 0)  -->
<svg version="1.1" id="Layer_1" xmlns="http://www.w3.org/2000/svg" xmlns:xlink="http://www.w3.org/1999/xlink" x="0px" y="0px"
	 viewBox="0 0 454.4 169.3" style="enable-background:new 0 0 454.4 169.3;" xml:space="preserve">
<style type="text/css">
	.st0{fill:#FFFFFF;stroke:#FFFFFF;stroke-width:6;}
	.st1{fill:#6E717A;}
	.st2{fill:#FFFFFF;}
</style>
<g>
	<path class="st0" d="M265.3,43.3L265.3,43.3c0.1-0.1,0.1-0.1,0.1-0.1C265.3,43.2,265.3,43.2,265.3,43.3z M126.1,165.5l-0.1-0.1
		c0,0-0.1,0-0.1-0.1C125.9,165.4,126,165.4,126.1,165.5z M316.2,41.5l0.1,0.1c0,0,0,0,0.1,0.1C316.3,41.7,316.2,41.6,316.2,41.5z
		 M428.7,99.4c2.7-3.6,3.3-7,3.3-12v-16c1.9,1.5,3.9,2.1,5.4,2.4c2.4,0.5,10.4,1,14.9-10.7c1.3-3.4,2.1-7.5,2.1-10.6
		c0-7.6-5.4-15.9-14.2-15.9c-4.7,0-8.6,2.7-11.1,6.5c-0.2-0.3-0.4-0.6-0.6-0.9l-0.1-0.1c-2.9-3.5-7.2-5.5-11.6-5.5
		c-5,0-9.8,2.6-12.5,6.7c-1.1,1.6-1.7,3.1-2.1,4.7c-2.4-3-4.5-5.5-4.5-5.5c-3.2-4-7-5.9-11.5-5.9c-6.3,0-11.4,3.2-13.9,8.3
		c-0.6-1.1-1.3-2.2-2.2-3.3c-2.9-3.2-7-5-11.4-5s-8.5,1.8-11.3,5.1c-0.8,0.9-1.4,1.8-2,2.7c-2.7-4.6-7.7-7.7-13.2-7.7
		c-5.1,0-9.7,2.5-12.6,7c0,0-0.3,0.5-0.9,1.3c-0.6-1.1-1.3-2.1-2.2-3.1c-2.8-3.2-7.1-5.1-11.4-5.1c-6.1,0-11,3.3-13.5,8.4
		c-0.5-1-1.1-1.9-1.8-2.8l-0.1-0.1c-2.9-3.5-7.2-5.5-11.6-5.5c-5,0-9.8,2.6-12.5,6.7c-1.1,1.6-1.7,3.1-2.1,4.7
		c-2.4-3-4.5-5.5-4.5-5.5c-3.2-4-7-5.9-11.5-5.9c-6.1,0-11,3-13.6,7.8c-0.4-0.8-1-1.5-1.6-2.3c-2.8-3.4-7.3-5.5-11.8-5.5
		s-8.8,2.1-11.8,5.8c-1.2,1.4-1.8,2.7-2.4,4c-0.6-1.7-1.6-3.4-3.1-5c-2.9-3-7-4.8-11.1-4.8c-4.5,0-9.1,2.2-12,5.8l-0.1,0.1
		c-2.4,3.1-3,5.8-3.1,9.8c-1.6-2.5-3.6-4.8-5.8-6.7c-6.5-5.8-14.4-8.6-24.2-8.6h-11.3c-7.9,0-13.7,3.7-15.8,10.2
		c-0.5,1.6-0.7,2.6-0.7,5.1h-0.3c-1.6-9-9.5-15.8-18.9-15.8H49.6c-0.4-2-0.2-0.8-1.1-2.4c-0.4,0-0.6-5.4,1.7-8.7
		c-0.1,0.2,2.2,7.3,1.9,7.4l-1-2.7c0.1,0-4.1,5.8-4.1,5.8l4.9-3.1c0,0,4.6-3.6,4.7-3.7c4.1-3.1,5.7-7.8,5.7-12.9
		c0-1.3-0.2-2.7-0.5-4C60,5.8,54.9,1.2,48.4,0.1c-3.1-0.5-9.7,0.2-15.1,4.1c-4.1,3-6.7,7.4-7.4,12.7c-0.1,0.8-0.2,1.6-0.2,2.4
		c0,1.9,0.3,3.6,0.9,5.2c-5.3-2.6-11.5-2-17.1,1.9l0,0c-6,4.2-7.7,9.2-8.1,12.6c-0.3,2.6,0,5.2,1,7.6C0.8,49.3,0,52.4,0,55.7V149
		c0,10.6,8.6,19.3,19.2,19.3h80.4c9.3,0,17.1-6.7,18.8-15.5h0.8v1.1c0.1,1.2,0.2,2.2,0.5,3.2c0.9,3.5,3,6.2,6.2,8.4
		c3.1,2.1,6.1,2.5,11.1,2.5h7.8c4.1,0,7.8-0.3,10.5-0.8h0.1c5.9-1.2,11.6-4.1,16-8.2l1.2-1.1c0,0,0,0,0.1-0.1
		c1.7-1.7,3.1-3.6,4.4-5.6c1.1,1.9,2.4,3.7,3.9,5.4c6.7,7.5,16.3,11.8,26.4,11.8c10,0,19.6-4.3,26.3-11.8c0.3-0.3,0.5-0.6,0.8-0.9
		c0.4,2.1,1.2,3.9,2.6,5.7c0,0.1,0.1,0.1,0.1,0.2c2.9,3.7,7.3,5.9,12,5.9c4.5,0,8.7-2,11.6-5.4l0.1-0.1c1.6-2,2.5-3.9,2.9-6.2
		c0,0.1,4.5,5.8,4.5,5.8c3,3.9,7.1,6,11.9,6c4.7,0,9.1-2.1,11.9-5.7c1.3-1.8,2.2-3.5,2.7-5.6l0,0c0.1,0.1,0.2,0.2,0.2,0.2
		c5.6,7.6,14.4,12.1,23.7,12.1c8.4,0,16.4-3.7,22.1-10.2l1.6-2c3.9-5.2,5.7-11.4,5.7-19.3v-9.4c1.4,0.5,3,0.7,4.7,0.8
		c0,7.4,0,22.2,0,22.2l0.1,2.5c0.2,3.2,0.9,5.5,2.5,7.9c0.1,0.1,0.1,0.2,0.2,0.3c2.9,4,7.4,6.3,12.4,6.3c5.2,0,9.8-2.5,12.6-6.9
		c1.4-2.3,2.1-4.5,2.4-7.3c0,0,0-0.9,0.1-1.7h1.6c0.2,1.2,0.6,2.5,1.1,3.6c3.6,8.1,13.6,13.4,25.5,13.4c8.4,0,14.9-2.4,19.8-7.3
		c1.7-1.7,3-3.6,4.1-5.7c1.9-3.6,2.9-7.7,2.9-11.7c0-6.6-2.6-12.9-7-16.9c2.2-1.9,3.8-4.4,4.4-7.4c1.6,1.3,3.6,2,5.8,2
		c4.5,0,8.3-3.2,9-7.6l0,0c0-0.1,0-0.2,0-0.3l0.1-1.3c0-5.1-4.1-9.2-9.2-9.2c-3.5,0-6.5,1.9-8.1,4.8c-1.7-2.6-4.2-4.8-7.3-6.4
		C426.8,101.4,427.8,100.5,428.7,99.4z M441.4,117.3L441.4,117.3C441.4,117.4,441.4,117.4,441.4,117.3L441.4,117.3z M404.1,43.3
		C404.1,43.3,404.2,43.3,404.1,43.3c0.1-0.1,0.1-0.1,0.1-0.1S404.2,43.2,404.1,43.3z M347.2,41.6L347.2,41.6
		c0.1-0.1,0.1-0.1,0.1-0.1C347.3,41.6,347.2,41.6,347.2,41.6z"/>
	<g>
		<g>
			<path class="st1" d="M220.1,42.6c-2.8,0-5.3,1.3-7.1,3.5c-1.7,2-2,3.3-2,7.4v22.2c0,3.8-1.8,6.2-5,6.2s-5-2.4-5-6.4v-22
				c0-3.9-0.7-6-2.5-7.9c-1.7-1.8-4.3-2.9-6.8-2.9c-2.7,0-5.5,1.4-7.3,3.6c-1.6,2.1-1.9,3.4-1.9,8.7v19.6c0,7.4,1.1,11.3,4.5,16
				c4.4,6,11.5,9.7,19,9.7c6.6,0,13.1-3,17.6-8.2c4-4.5,5.8-9.9,5.8-17.5V54.7c0-5-0.4-6.7-2.2-8.8
				C225.6,43.9,222.8,42.6,220.1,42.6z M174.1,60.9c-1.6-4.1-4.1-7.9-7.4-10.8c-5.4-4.8-11.9-7.1-20.2-7.1h-11.3
				c-5.3,0-8.8,2.1-10.1,6.1c-0.4,1.3-0.4,1.8-0.4,6.4v30.7c0,3.8,0,4.8,0.3,6c0.6,2.2,1.8,3.7,3.8,5c1.7,1.2,3.4,1.5,7.8,1.5h7.8
				c3.8,0,7.2-0.2,9.4-0.7c4.8-1,9.5-3.4,13.1-6.8c5.7-5.3,8.9-12.8,8.9-20.5C175.9,67.4,175.3,64.1,174.1,60.9L174.1,60.9z
				 M150.8,60.9c0.3,0.1,0.6,0.2,0.9,0.4c3.6,1.8,5.9,5.5,5.9,9.6c0,3.4-1.8,6.9-4.5,8.9c-2.2,1.5-3.7,1.8-10,1.8V60.1h1.5
				C147.5,60.1,149.3,60.4,150.8,60.9L150.8,60.9z M277.8,42.6c-3,0-5.9,1.6-7.5,4c-1.3,1.9-1.7,3.6-1.7,7.3v10.4l-2.7-3.3L254,46.3
				c-2.1-2.6-4.2-3.7-6.9-3.7c-5.8,0-9.6,3.9-9.6,9.9v35.3c0,4.1,0.4,5.8,1.9,7.9c1.8,2.3,4.5,3.6,7.4,3.6c2.8,0,5.3-1.3,7.1-3.3
				c1.6-2,2.1-3.7,2.1-7.4V76.8l14.5,18.6c1.9,2.5,4.3,3.8,7.3,3.8c2.8,0,5.5-1.3,7.2-3.4c1.6-2.1,2-3.9,2-8.4V53.3
				c0-3.4-0.6-5.3-2.2-7.4C283.1,43.8,280.6,42.6,277.8,42.6z M330.5,70.2l6.4-9.3l3-4.3c0.9-1.3,1.4-3.1,1.4-4.8
				c0-4.9-4.3-9.2-9.3-9.2c-3.1,0-5.8,1.5-7.6,4.3L314.9,61l-0.6,1v-9c0-3.3-0.7-5.4-2.4-7.3c-1.7-1.9-4.3-3.1-6.9-3.1
				c-5.5,0-9.2,4.2-9.2,10.3v35.8c0,6.4,3.6,10.5,9.4,10.5c5.5,0,9.2-4.2,9.2-10.6V79L328,96.4c1.3,1.7,3.8,2.8,6.4,2.8
				c5,0,9.2-4.3,9.2-9.4c0-1.9-0.6-3.6-1.8-5L330.5,70.2z M416.7,42.6c-3,0-5.9,1.6-7.5,4c-1.3,1.9-1.7,3.6-1.7,7.3v10.4l-2.7-3.3
				l-11.9-14.7c-2.1-2.6-4.2-3.7-6.9-3.7c-5.8,0-9.6,3.9-9.6,9.9v35.3c0,4.1,0.4,5.8,1.9,7.9c1.8,2.3,4.5,3.6,7.4,3.6
				c2.8,0,5.3-1.3,7.1-3.3c1.6-2,2.1-3.7,2.1-7.4V76.8l14.5,18.6c1.9,2.5,4.3,3.8,7.3,3.8c2.8,0,5.5-1.3,7.2-3.4
				c1.6-2.1,2-3.9,2-8.4V53.3c0-3.4-0.6-5.3-2.2-7.4C422,43.8,419.5,42.6,416.7,42.6z M440.2,42.6c-4.9,0-8.1,5.9-8.1,10.7
				c0,2.2,0,5,0.5,7.6l0,0c0.7,3.3,2.2,6.2,5.9,6.9c3.9,0.8,6.6-2.8,8.1-6.9l0,0c1.2-3.1,1.7-6.4,1.7-8.5
				C448.3,47.6,445,42.6,440.2,42.6z M358.5,42.6c-2.7,0-5.1,1.1-6.8,3c-1.9,2.1-2.3,3.8-2.3,8.4v34.5c0,3.8,0.6,5.8,2.3,7.7
				c1.6,1.8,4.3,2.9,6.9,2.9c2.4,0,5.1-1.2,6.8-3.1c1.7-1.8,2.3-4,2.3-7.5V54c0-4.5-0.6-6.4-2.4-8.5
				C363.7,43.7,361.2,42.6,358.5,42.6z"/>
			<g>
				<path class="st1" d="M341.9,114.3L341.9,114.3c-0.2-2.4-0.8-3.6-2-5.1c-1.6-2-4.4-3.3-7.1-3.3s-5.3,1.3-7,3.5
					c-1.3,1.5-1.8,2.6-1.9,4.9l0,0c0,0.7-0.1,1.4-0.1,2.4V139c0,3.9-1.9,6.4-5.2,6.4c-3.3,0-5.2-2.5-5.2-6.6v-22
					c0-0.9,0-1.7-0.1-2.4l0,0c-0.2-2.5-1-4-2.4-5.5c-1.6-1.7-4.2-2.9-6.7-2.9c-2.6,0-5.4,1.4-7.2,3.5c-1.1,1.4-1.6,2.5-1.8,4.8l0,0
					c-0.1,1-0.1,2.2-0.1,3.8v19.7c0,7.3,1.1,11.2,4.4,15.7l0,0c0,0.1,0.1,0.1,0.1,0.2c4.4,6,11.5,9.7,18.9,9.7
					c6.6,0,13.1-3,17.6-8.2c0.5-0.5,0.9-1.1,1.3-1.7l0,0c3.1-4.2,4.5-9.1,4.5-15.7v-19.9C342,116.4,342,115.3,341.9,114.3z"/>
				<g>
					<path class="st1" d="M442.3,113.3c1.4,0,2.6-0.6,2.6-2.2c0-0.7-0.3-1.4-0.9-1.7c-0.6-0.4-1.3-0.4-2-0.4h-3.5v8.1h1v-3.7h1.8
						l0.6,1l1.7,2.8h1.2l-1.8-2.8L442.3,113.3z M440.9,112.6h-1.5v-2.9h2.3c1,0,2.1,0.2,2.1,1.4
						C443.8,112.7,442.1,112.6,440.9,112.6z"/>
					<path class="st1" d="M448.2,114.3c0.1-0.4,0.1-0.8,0.1-1.3c0-4-3.2-7.2-7.2-7.2s-7.2,3.2-7.2,7.2c0,0.4,0,0.9,0.1,1.3
						c0.6,3.4,3.6,6,7.1,6C444.7,120.2,447.6,117.7,448.2,114.3h-0.9c-0.6,2.9-3.1,5.1-6.2,5.1s-5.6-2.2-6.2-5.1l0,0
						c-0.1-0.4-0.1-0.8-0.1-1.3c0-3.5,2.8-6.3,6.4-6.3c3.5,0,6.3,2.8,6.3,6.3c0,0.4,0,0.9-0.1,1.3H448.2z"/>
				</g>
				<path class="st1" d="M168.3,153.5c5-5.2,7.9-12.2,7.9-19.4c0-3.4-0.6-6.8-1.8-10l0,0c-1.4-3.7-3.6-7-6.4-9.8l0,0
					c-0.3-0.3-0.6-0.6-0.9-0.9c-5.4-4.8-11.8-7.1-20.2-7.1h-11.3c-5.3,0-8.7,2.1-10,6c-0.2,0.6-0.3,1.1-0.4,1.9l0,0
					c0,0.9-0.1,2.1-0.1,4.5v5.3l0,0v25.4c0,2,0,3.2,0,4s0.1,1.4,0.3,2c0.6,2.1,1.7,3.6,3.8,4.9c1.6,1.1,3.3,1.5,7.7,1.5h7.8
					c3.8,0,7.2-0.3,9.4-0.7c4.8-1,9.5-3.4,13.1-6.7C167.7,154.2,168,153.8,168.3,153.5L168.3,153.5z M143.3,124.1v-0.9h1.7
					c3,0,4.9,0.3,6.5,0.9l0,0c0.2,0.1,0.4,0.2,0.7,0.3c3.7,1.8,6,5.6,6,9.8c0,3.5-1.8,7-4.6,9c-2.2,1.5-3.8,1.8-10.1,1.9h-0.2
					L143.3,124.1L143.3,124.1z"/>
				<path class="st1" d="M234.8,124.1L234.8,124.1c-1.4-3.7-3.4-7-6.1-9.8l0,0c-5.3-5.7-13-9.3-21.5-9.3c-8.6,0-16.2,3.6-21.6,9.3
					l0,0c-2.6,2.8-4.7,6.1-6,9.8l0,0c-1.1,3-1.7,6.3-1.7,9.7c0,7.6,2.8,14.5,7.4,19.7l0,0c5.3,6,13.2,9.8,21.9,9.8
					c8.6,0,16.4-3.8,21.8-9.8l0,0c4.6-5.2,7.4-12,7.4-19.4C236.6,130.6,236,127.2,234.8,124.1z M207.4,145.4
					c-6.1,0-11.1-5.1-11.1-11.3c0-4.5,2.8-8.3,6.7-10l0,0c1.4-0.6,2.9-0.9,4.4-0.9c1.6,0,3.1,0.3,4.4,0.9l0,0
					c3.9,1.7,6.7,5.6,6.7,10.1C218.5,140.3,213.5,145.4,207.4,145.4z"/>
				<path class="st1" d="M289.2,114.3L289.2,114.3c-0.2-2.1-0.8-3.6-2-5.1c-1.7-2.1-4.2-3.3-6.9-3.3c-3,0-5.8,1.6-7.4,3.9
					c-0.9,1.3-1.4,2.5-1.5,4.4l0,0c-0.1,0.8-0.1,1.7-0.1,2.8v10.8l-3.1-3.8l-8-9.8l-3.9-4.7c-2.1-2.6-4.1-3.6-6.7-3.6
					c-5.2,0-8.9,3.3-9.4,8.4c0,0.4-0.1,0.9-0.1,1.4V151c0,1,0,1.8,0.1,2.5c0.2,2.4,0.7,3.7,1.8,5.3c1.7,2.2,4.4,3.5,7.2,3.5
					c2.7,0,5.3-1.2,7-3.3c1.3-1.6,1.8-3,2-5.5l0,0c0-0.5,0-1.1,0-1.8v-12.2l10.9,14l0,0l4,5.1c1.9,2.5,4.3,3.7,7.2,3.7
					c2.8,0,5.4-1.2,7.1-3.4c1.2-1.5,1.7-2.9,1.9-5.4l0,0c0.1-0.8,0.1-1.8,0.1-2.8v-34.2C289.3,115.7,289.2,114.9,289.2,114.3z"/>
				<path class="st1" d="M391.1,114.3L391.1,114.3c-0.2-4.1-3.2-7.2-7.4-7.8c-0.5-0.1-0.8-0.1-1.6-0.1c-0.8,0-2.1,0-4.7,0h-18.6
					c-7.3,0-8,0.1-9.9,0.9c-2.5,1.1-4.4,4.1-4.7,7l0,0c0,0.2,0,0.3,0,0.5c0,2.2,0.9,4.3,2.6,6c1.6,1.6,3.7,2.4,6.8,2.4h5.1v28.1
					c0,0.8,0,1.5,0.1,2.2c0.1,2.3,0.5,3.5,1.5,5c1.7,2.4,4.4,3.8,7.5,3.8s5.8-1.5,7.5-4.1c0.8-1.4,1.3-2.7,1.5-4.7
					c0.1-0.7,0.1-1.5,0.1-2.3v-28h4.3c3.3,0,5.6-0.7,7-2c1.8-1.6,3-4.1,3-6.5C391.1,114.6,391.1,114.4,391.1,114.3z"/>
				<path class="st1" d="M426.3,131.5c-2.6-2.2-7.1-4.4-11.8-5.8c-1.9-0.6-3.2-1.1-4-1.6l0,0c-1.2-0.7-1.6-1.4-1.6-2.4
					c0-1.3,1.1-2.3,2.3-2.3c1.1,0,2,0.5,4,2c1.8,1.4,3.3,2.2,4.7,2.7l0,0c0.9,0.3,1.8,0.4,2.8,0.4c0.9,0,1.8-0.2,2.6-0.4l0,0
					c2.7-1,4.5-3.6,4.5-7c0-1-0.2-1.9-0.5-2.8l0,0c-1.8-5.4-8.7-9.3-17.3-9.3c-8.3,0-14.9,3.5-18.1,9.3l0,0
					c-1.4,2.6-2.2,5.6-2.2,8.9c0,0.3,0,0.6,0,0.9l0,0c0.3,7.2,4.3,12.1,12,14.9c1.5,0.6,3,1.1,4.5,1.6c2.9,1.1,3.2,1.3,3.7,1.6
					c1,0.7,1.5,1.4,1.5,2.5c0,1.5-1,2.6-2.5,2.6c-1.4,0-2-0.4-6-3.5c-2.3-1.9-4.2-2.6-6.4-2.6c-4.6,0-8.2,3.6-8.2,8.2
					c0,1.5,0.3,2.9,0.9,4.2l0,0c2.6,5.7,10.3,9.8,20,9.8c6.8,0,11.8-1.8,15.5-5.6c1.2-1.2,2.2-2.7,3-4.2l0,0c1.4-2.7,2.2-5.8,2.2-9
					C431.9,139.3,429.7,134.3,426.3,131.5z"/>
			</g>
		</g>
		<g>
			<g>
				<path class="st1" d="M16.1,56.2c-3.9-0.1-7.5-1.7-10.1-4.1c-0.3,1.1-0.4,2.2-0.4,3.4v11C7,63.2,10.5,59.8,16.1,56.2z"/>
				<path class="st1" d="M25.9,108.7c-4.5-0.6-7.4-2.4-8.6-5.4c0,0-11.1-28.2-11.3-28.6c-0.2-0.3-0.4-0.6-0.5-0.9v75.3
					c0,7.4,6.1,13.5,13.5,13.5h35.5c-1.2-1.2-2.2-2.7-3.1-4.3C51.5,158.3,29.7,116.1,25.9,108.7z"/>
			</g>
			<path class="st1" d="M99.8,41.9H79.7c0,0,0,0.1,0.1,0.1c0.4,0.5,0.7,1,0.9,1.6c0.2,0.4,0.3,0.9,0.4,1.3
				c9.6,24.7,11,28.1,11.2,28.6l0,0v0.1c0,0,0,0,0-0.1c0.3,0.9,0.5,1.8,0.5,2.7c0,2.2-1,4.6-3,7.1c2.4,7.6,6.9,22.6,14.9,52l0.4,1.6
				v-0.1c3.1,10.1-1.5,19.6-12.2,25.8h6.9c7.4,0,13.5-6.1,13.5-13.5V55.5C113.3,48,107.2,41.9,99.8,41.9z"/>
			<g>
				<path class="st1" d="M58.1,43.2C58.1,43.2,58,43.2,58.1,43.2c-5.7,1.2-12.6,3.3-18.8,5.8s-12.7,5.6-17.7,8.7
					c-8.9,5.1-13.5,9.9-12.6,13c0,0.1,0,0.2,0,0.3c0,0.4,0.1,0.7,0.2,0.9c0.1,0.2,0.2,0.4,0.4,0.7c0.1,0.1,0.1,0.2,0.2,0.4
					l11.3,28.8c0.7,1.7,2.8,2.7,6.4,3c0.6,0,1.1,0.4,1.4,0.9l26.2,50.7c5,10,19.4,9.6,30.6,5.1c12.6-5.1,18.4-13.9,15.4-23.5
					l-0.4-1.6c-8.4-31.1-12.9-46-15.3-53.1c-0.2-0.6-0.1-1.2,0.4-1.7c2.4-2.7,3.3-4.9,2.6-6.6L77.1,46.2c0-0.1-0.1-0.2-0.1-0.4
					c-0.1-0.3-0.1-0.6-0.2-0.8c-0.1-0.3-0.3-0.5-0.5-0.8c-0.1-0.1-0.1-0.1-0.1-0.2C74.6,41.2,68,40.9,58.1,43.2z"/>
				<g>
					<path class="st1" d="M35.7,7.5L35.7,7.5c-3.2,2.4-5.2,5.8-5.8,10c-0.8,5.8,2.5,9.6,5.4,13c3.2,3.7,5.9,6.9,4.2,12.4
						c-0.2,0.5-0.1,1.1,0.1,1.6c0.3,0.5,0.7,0.8,1.2,1c1.1,0.3,2.2-0.3,2.6-1.4c2.4-7.7-1.7-12.5-5-16.3c-3.1-3.6-5-6.1-4.4-9.8
						c0.4-3.1,1.9-5.6,4.2-7.3c3.4-2.5,7.9-2.8,9-2.6c4.8,0.8,6.2,4.4,6.6,5.9c0.3,1,0.3,2,0.2,3.1c-0.3,2.2-1.3,4.1-3,5.4
						c0,0,0,0-0.1,0c-2,1.1-3.7,1-4.8,0c-1-1-1.2-2.5-0.7-3.3c0.4-0.8,1.4-1.1,2.9-0.8c0.5,0.1,1.1,0,1.5-0.3s0.7-0.8,0.8-1.3
						c0.2-1.1-0.6-2.2-1.7-2.4c-3.3-0.6-6,0.5-7.2,3c-1.3,2.6-0.7,6,1.5,8.1c2.4,2.4,6.1,2.6,9.7,0.6l0.3-0.2c3.9-3,5.7-8,4.5-12.9
						c-1.2-4.7-5-8.2-9.9-9C45.8,3.8,40.2,4.2,35.7,7.5z"/>
					<path class="st1" d="M11.8,29.6c-4.1,2.9-6.1,6.5-6.5,9.8c-0.4,2.9,0.4,5.7,1.9,7.9c3.1,4.5,9.6,6.9,16.1,2.6l0.1-0.1
						c3.4-2.5,3.3-7.7,1.1-10.8c-2.1-3-5.7-3.5-9-1.3c-0.9,0.6-1.2,1.9-0.6,2.8c0.3,0.5,0.8,0.8,1.3,0.9c0.5,0.1,1.1,0,1.5-0.3
						c1.9-1.3,2.9-0.5,3.4,0.3c0.6,0.9,0.9,2.1,0.8,3.3c-0.1,0.8-0.4,1.4-0.9,1.8c-4.5,2.9-8.4,1.3-10.4-1.5c-2.2-3.2-2-8.2,3.5-12
						c5.4-3.7,9.3-1.4,11.2,0.3c3.5,3.2,4.9,8.8,3,12.2c-0.5,1-0.2,2.2,0.8,2.8c0.5,0.3,1,0.3,1.6,0.2c0.5-0.1,1-0.5,1.2-1
						c2.9-5.1,1.2-12.7-3.8-17.2C23.4,26,17.3,25.8,11.8,29.6z"/>
				</g>
				<path class="st2" d="M69,51.1c-6.6,0.7-16.5,3.4-25.9,7.1c-9.5,3.8-18.5,8.9-23.9,12.9c-3.7,0.3-6,0-6.8-0.5
					C13,68.3,22.1,60,40.8,52.5c18.8-7.4,30.8-7.8,32.8-6.6C73.4,47.1,71.9,48.9,69,51.1z"/>
				<path class="st2" d="M97.4,138.9c2.5,8.1-3.7,14.9-13.1,18.7c-9.9,4-21.8,4.1-25.5-3.2c-1.3-2.5-17.7-32.7-25.7-49.7
					c8.2-0.8,18.2-3.8,25.6-6.7c7.3-3,16.6-7.7,23.1-12.7C87.6,103.1,96.6,136.2,97.4,138.9z"/>
				<path class="st2" d="M57.2,94.1c-17.3,6.9-30.4,7.4-32.4,5.7l-9.5-23.7c8.9,0.6,22.7-3.6,31.8-7.2s22.1-10.1,28.1-16.6L84.7,76
					C84.4,78.6,74.5,87.2,57.2,94.1z"/>
				<g>
					<path class="st1" d="M64.1,112.8L64.1,112.8c-0.9-1-2.1-1.8-3.4-2.3c-2.2-0.8-4.4-0.8-7-0.1c-1.2,0.3-2.3,0.6-3.5,0.9
						c-1.7,0.4-2.5,1.2-2.4,2.4c0,0.4,0.1,0.5,0.7,1.8c1.3,2.9,2.6,5.8,3.9,8.6c0.5,1.1,0.6,1.3,0.9,1.7c0.5,0.6,1,0.9,1.8,1.2
						c0.6,0.2,1.2,0.2,2.5-0.1c0.8-0.2,1.5-0.4,2.3-0.6c1.1-0.3,2.1-0.7,2.7-1c1.3-0.7,2.3-1.8,3-3.2c1-2.1,1.1-4.6,0.3-6.8
						C65.3,114.4,64.8,113.5,64.1,112.8z M60,120.2c-0.5,0.6-0.9,0.8-2.8,1.4c-0.9-2-1.7-4.1-2.6-6.1c0.2,0,0.3-0.1,0.5-0.1
						c0.9-0.2,1.4-0.3,2-0.3l0,0c0.1,0,0.2,0,0.3,0c1.3,0.2,2.4,1,2.9,2.2C60.7,118.3,60.6,119.4,60,120.2z"/>
					<path class="st1" d="M79.5,105.1L79.5,105.1c-0.8-1-1.9-1.6-3.1-2c-2-0.5-4-0.2-6.4,1c-1.1,0.5-2.2,1.1-3.3,1.5
						c-1.6,0.7-2.4,1.7-2.3,3c0,0.4,0.1,0.6,0.6,1.9c1.1,2.9,2.2,5.9,3.4,8.8c0.4,1.1,0.5,1.4,0.8,1.7c0.4,0.6,0.9,0.9,1.6,1
						c0.6,0.1,1.1,0,2.3-0.5c0.7-0.3,1.4-0.7,2.1-1c1-0.5,1.9-1,2.5-1.5c1.2-1,2.2-2.4,2.8-3.9c1-2.4,1.1-5.2,0.4-7.5
						C80.6,106.7,80.1,105.8,79.5,105.1z M75.6,113.9c-0.4,0.8-0.8,1-2.6,1.9c-0.8-2.1-1.5-4.1-2.2-6.2c0.1-0.1,0.3-0.1,0.4-0.2
						c0.8-0.4,1.3-0.6,1.8-0.7l0,0c0.1,0,0.2,0,0.3,0c1.2,0,2.2,0.7,2.6,1.9C76.3,111.6,76.2,112.9,75.6,113.9z"/>
				</g>
			</g>
		</g>
	</g>
</g>
</svg>
