<svg version="1.1" id="Layer_1" xmlns="http://www.w3.org/2000/svg" xmlns:xlink="http://www.w3.org/1999/xlink" x="0px" y="0px"
	 viewBox="0 0 130.4 70" style="enable-background:new 0 0 130.4 70;" xml:space="preserve">
<style type="text/css">
	.st0{fill:#666666;}
	.st1{fill:#231F20;}
	.st2{fill:#25559A;}
	.st3{fill:#74AB48;}
	.st4{fill:#B41F2D;}
	.st5{fill:#FDB515;}
	.st6{fill:#D72B77;}
	.st7{fill:#1995D3;}
</style>
<g>
	<g>
		<g>
			<g>
				<g>
					<path class="st0" d="M66.9,34.8c0.2,9.2-0.8,16.7-7,23.9C53.7,65.9,44.2,70,34.8,70C15.8,70,0,54.2,0,35.2
						C0,15.8,15.8,0,35.3,0c11.8,0,21.4,5.3,28.6,14.6l-5.5,5.1C52.8,11.8,45.1,7,35.2,7C19.7,7,7.5,20,7.5,35.3
						c0,7.2,2.9,14,7.9,19.1c4.9,4.9,12.1,8.6,19.2,8.6c11.8,0,24.1-8.6,24.1-21.2H38.7v-7H66.9z"/>
					<path class="st1" d="M66.8,8.2v-7h49.9L84.2,69.7L76,69.6l28.9-61.4H66.8z"/>
				</g>
			</g>
		</g>
		<g>
			<polygon class="st2" points="126.7,9.1 119.8,9.1 123.5,1.2 130.4,1.2 			"/>
			<polygon class="st3" points="122,19.2 115.1,19.2 118.8,11.3 125.7,11.3 			"/>
			<polygon class="st4" points="117.2,29.3 110.4,29.3 114,21.4 120.9,21.4 			"/>
			<polygon class="st1" points="112.5,39.4 105.6,39.4 109.3,31.5 116.2,31.5 			"/>
			<polygon class="st5" points="107.8,49.5 100.9,49.5 104.6,41.6 111.5,41.6 			"/>
			<polygon class="st6" points="103.1,59.6 96.2,59.6 99.9,51.7 106.8,51.7 			"/>
			<polygon class="st7" points="98.4,69.7 91.5,69.7 95.2,61.8 102.1,61.8 			"/>
		</g>
	</g>
	<g>
		<path class="st1" d="M108.3,64.9c0-2.7,2.1-4.8,4.8-4.8c2.7,0,4.8,2.1,4.8,4.8c0,2.7-2.1,4.8-4.8,4.8
			C110.4,69.7,108.3,67.6,108.3,64.9z M117.2,64.9c0-2.3-1.9-4.1-4.1-4.1c-2.2,0-4.1,1.8-4.1,4.1c0,2.3,1.9,4.1,4.1,4.1
			C115.3,69,117.2,67.2,117.2,64.9z M115.4,67.5h-0.9l-1.6-2.4H112v2.4h-0.7v-5.3h2.3c1,0,1.9,0.3,1.9,1.4c0,1-0.7,1.4-1.7,1.4
			L115.4,67.5z M112.9,64.3c0.7,0,1.8,0.1,1.8-0.7c0-0.5-0.7-0.6-1.3-0.6H112v1.4H112.9z"/>
	</g>
</g>
</svg>
