<svg version="1.1" id="Layer_1" xmlns="http://www.w3.org/2000/svg" xmlns:xlink="http://www.w3.org/1999/xlink" x="0px" y="0px"
	 width="128px" height="128px" viewBox="0 0 128 128" style="enable-background:new 0 0 128 128;" xml:space="preserve">
<style type="text/css">
	.st0{fill:#2E7CBF;}
	.st1{opacity:0.3;}
	.st2{clip-path:url(#SVGID_2_);fill:#263A7F;}
	.st3{fill:#ECEFF0;}
	.st4{fill:#2BC3EF;}
	.st5{fill:#8DD7F7;}
	.st6{opacity:0.17;fill:#2E7CBF;}
	.st7{fill:#614E9F;}
	.st8{fill:#4A2D79;}
	.st9{fill:#A288BF;}
	.st10{fill:#3F2768;}
	.st11{fill:#88BB46;}
	.st12{fill:#FFCD47;}
	.st13{fill:#D4B897;}
</style>
<g>
	<circle class="st0" cx="64" cy="64" r="64"/>
	<g class="st1">
		<defs>
			<circle id="SVGID_1_" class="st1" cx="64" cy="64" r="64"/>
		</defs>
		<clipPath id="SVGID_2_">
			<use xlink:href="#SVGID_1_"  style="overflow:visible;"/>
		</clipPath>
		<polygon class="st2" points="102.7,32.4 128,57.7 128,128 56.1,128.2 28.4,100.6 		"/>
	</g>
	<path class="st3" d="M97,30H76c0,0,0-0.1,0-0.1v-5.8c0-2.3-1.8-4.1-4.1-4.1H58.1c-2.3,0-4.1,1.8-4.1,4.1v5.8c0,0,0,0.1,0,0.1h-8v-1
		c0-1.1-0.9-2-2-2h-8c-1.1,0-2,0.9-2,2v1h-1c-4.4,0-8,3.6-8,8v56c0,4.4,3.6,8,8,8h64c4.4,0,8-3.6,8-8V38C105,33.6,101.4,30,97,30z"
		/>
	<rect x="25" y="51" class="st4" width="80" height="38"/>
	<rect x="25" y="83" class="st5" width="80" height="4"/>
	<rect x="25" y="53" class="st5" width="80" height="4"/>
	<polygon class="st6" points="50.6,89.3 63.3,102 105,102 105,76.2 81.8,53 	"/>
	<circle class="st3" cx="64.8" cy="70" r="24"/>
	<g>
		<path class="st7" d="M64.8,91c-11.6,0-21-9.4-21-21c0-11.6,9.4-21,21-21s21,9.4,21,21C85.8,81.6,76.4,91,64.8,91z"/>
		<g>
			<path class="st8" d="M64.8,50c11,0,20,9,20,20s-9,20-20,20s-20-9-20-20S53.8,50,64.8,50 M64.8,48c-12.2,0-22,9.8-22,22
				c0,12.2,9.8,22,22,22c12.2,0,22-9.8,22-22C86.8,57.8,77,48,64.8,48L64.8,48z"/>
		</g>
	</g>
	<path class="st9" d="M64.8,54c-8.8,0-16,7.2-16,16c0,8.8,7.2,16,16,16c8.8,0,16-7.2,16-16C80.8,61.2,73.7,54,64.8,54z M64.8,79.8
		c-5.4,0-9.8-4.4-9.8-9.8c0-5.4,4.4-9.8,9.8-9.8c5.4,0,9.8,4.4,9.8,9.8C74.7,75.4,70.3,79.8,64.8,79.8z"/>
	<circle class="st10" cx="64.8" cy="70" r="6"/>
	<circle class="st8" cx="64.8" cy="70" r="2"/>
	<circle class="st11" cx="39.5" cy="41.5" r="4.5"/>
	<path class="st12" d="M73,28.1c0,1.1-0.9,1.9-1.9,1.9H58.9c-1.1,0-1.9-0.9-1.9-1.9v-3.2c0-1.1,0.9-1.9,1.9-1.9h12.2
		c1.1,0,1.9,0.9,1.9,1.9V28.1z"/>
	<path class="st13" d="M98,41.7c0,2.4-1.9,4.3-4.3,4.3h-6.3c-2.4,0-4.3-1.9-4.3-4.3v-0.3c0-2.4,1.9-4.3,4.3-4.3h6.3
		c2.4,0,4.3,1.9,4.3,4.3V41.7z"/>
</g>
</svg>
