<?xml version="1.0" encoding="utf-8"?>
<!-- Generator: Adobe Illustrator 21.1.0, SVG Export Plug-In . SVG Version: 6.00 Build 0)  -->
<svg version="1.1" id="Layer_1" xmlns="http://www.w3.org/2000/svg" xmlns:xlink="http://www.w3.org/1999/xlink" x="0px" y="0px"
	 viewBox="0 0 290.1 59.7" style="enable-background:new 0 0 290.1 59.7;" xml:space="preserve">
<style type="text/css">
	.st0{fill:#3C3C3C;}
</style>
<g>
	<g>
		<path class="st0" d="M33.4,17.9l4.4,0.5c2,0.2,2.2,1.9,2.2,2.9v5.2H19.7v-5.2c0-1.1,0.2-2.7,2.2-2.9l4.4-0.5v-4.5H0v4.5l4.4,0.5
			c2,0.2,2.2,1.9,2.2,2.9v17.1c0,1.1-0.2,2.7-2.2,2.9L0,41.8v4.4h26.3v-4.4l-4.4-0.5c-2-0.2-2.2-1.9-2.2-2.9v-5.2H40v5.2
			c0,1.1-0.2,2.7-2.2,2.9l-4.4,0.5v4.4h26.3v-4.4l-4.4-0.5c-2-0.2-2.2-1.9-2.2-2.9V21.3c0-1.1,0.2-2.7,2.2-2.9l4.4-0.5v-4.5H33.4
			V17.9z"/>
		<path class="st0" d="M209.1,13.4h-32.5v4.5l3.9,0.4c1.4,0.2,2.3,0.8,2.3,2.7v17.4c0,1.1-0.2,2.7-2.2,2.9l-4.4,0.5v4.4l32.9,0
			c11.8,0,21.5-4.7,21.5-16.4C230.6,18.2,220.9,13.4,209.1,13.4z M206.7,40l-11,0V19.7h11c6.5,0,8.7,3.1,8.7,10.1
			C215.4,36.9,213.2,40,206.7,40z"/>
		<path class="st0" d="M285.9,41.4c-2.1-0.2-2.7-1.6-3.4-2.6c-15.2-23.2-15.2-23.2-15.2-23.2c-1.1-1.7-1.9-2.2-3.5-2.2h-25v4.5
			l6,0.7c0.8,0.1,2,1.2,1,2.8l-11.2,18.2c-0.5,0.7-1,1.6-2.3,1.8l-4.5,0.5v4.4h21v-4.5l-3.6-0.4c-1.5-0.2-2.4-1.2-1.6-2.5l1.7-2.7
			h20.2l1.5,2.3c1.3,2-0.3,2.8-1.8,3l-3.7,0.4v4.5h28.5v-4.4L285.9,41.4z M249,30.4l6.2-10.1l6.6,10.1H249z"/>
		<path class="st0" d="M153.1,17.9l4.4,0.5c2,0.2,2.2,1.9,2.2,2.9v16.4l-17.4-22.9c-0.8-1.1-1.5-1.4-3.3-1.4c-1.2,0-22.6,0-22.6,0
			v4.5l4.4,0.5c2,0.2,2.2,1.9,2.2,2.9v17.1c0,1.1-0.2,2.7-2.2,2.9l-4.4,0.5v4.4h21v-4.4l-4.4-0.5c-2-0.2-2.2-1.9-2.2-2.9V21.9
			l17.4,22.9c0.8,1.1,1.5,1.4,3.3,1.4c0.1,0,0.2,0,0.2,0c0.8,0,4.1,0,15.8,0v-25c0-1.1,0.2-2.7,2.2-2.9l4.4-0.5v-4.5h-21V17.9z"/>
		<path class="st0" d="M88,12.3c-21.4,0-26.9,9.4-26.9,17.6c0,8.2,5.5,17.6,26.9,17.6c21.4,0,26.9-9.4,26.9-17.6
			C114.9,21.6,109.4,12.3,88,12.3z M88,41.1c-8.3,0-11.7-3.5-11.7-11.3c0-7.8,3.5-11.3,11.7-11.3c8.3,0,11.7,3.5,11.7,11.3
			C99.7,37.7,96.3,41.1,88,41.1z"/>
	</g>
</g>
</svg>
