<svg id="Layer_1" data-name="Layer 1" xmlns="http://www.w3.org/2000/svg" viewBox="0 0 20 20"><defs><style>.cls-1{fill:#fff;}</style></defs><title>instagram-icon</title><path class="cls-1" d="M15.69.84H4.31A3.54,3.54,0,0,0,.76,4.39V15.77a3.54,3.54,0,0,0,3.56,3.56H15.69a3.54,3.54,0,0,0,3.56-3.56V4.39A3.54,3.54,0,0,0,15.69.84Zm1,2.13h.4V6.13H14V3ZM7.39,8.18a3.2,3.2,0,0,1,5.21,0,3.21,3.21,0,0,1,.63,1.9,3.24,3.24,0,1,1-6.48,0A3.21,3.21,0,0,1,7.39,8.18Zm10,7.58a1.75,1.75,0,0,1-1.74,1.74H4.31a1.75,1.75,0,0,1-1.74-1.74V8.18H5.34a5.08,5.08,0,0,0-.4,1.9,5.06,5.06,0,1,0,10.11,0,5.08,5.08,0,0,0-.4-1.9h2.77Z"/></svg>