<?xml version="1.0" encoding="utf-8"?>
<!-- Generator: Adobe Illustrator 21.1.0, SVG Export Plug-In . SVG Version: 6.00 Build 0)  -->
<svg version="1.1" id="Layer_1" xmlns="http://www.w3.org/2000/svg" xmlns:xlink="http://www.w3.org/1999/xlink" x="0px" y="0px"
	 viewBox="0 0 1392.2 367.1" style="enable-background:new 0 0 1392.2 367.1;" xml:space="preserve">
<style type="text/css">
	.st0{display:none;}
	.st1{display:inline;}
	.st2{fill:#FFFFFF;}
	.st3{fill:#6E717A;}
	.st4{display:none;fill:#D8D9DA;}
	.st5{display:none;fill:#FFFFFF;}
	.st6{fill:none;}
</style>
<g id="stroke" class="st0">
	<g class="st1">
		<path class="st2" d="M216-7.6L17.2,49.5C8.1,51.9-9,62.8-9,86.5v194c0,23.8,17.1,34.6,26.1,37L216,374.7V-7.6z"/>
		<path class="st2" d="M216-7.6l198.8,57.2c9,2.4,26.1,13.2,26.1,37v194c0,23.8-17.1,34.6-26.1,37L216,374.7V-7.6z"/>
	</g>
</g>
<g id="shape">
	<path class="st3" d="M406.9,54.9L216,0l0,0l0,0l0,0l0,0L25.1,54.9C16.4,57.2,0,67.6,0,90.4v186.3c0,22.8,16.4,33.2,25.1,35.5
		L216,367.1l0,0l0,0l0,0l0,0l190.9-54.9c8.7-2.3,25.1-12.7,25.1-35.5V90.4C432,67.6,415.6,57.2,406.9,54.9z"/>
	<path class="st4" d="M407.7,206.6c-2.3,1-3.2,2.9-3.2,2.9c-7.3,38.2-28.6,66.5-62.8,70.8c-27.1,3.4-52.6-5.4-69.7-34.7
		c0,0-7.3-11.4-12.2-29.7c-0.9-3.8,15.8-19.7,36.3-59.3c3-5.8,11.1-25.6,10.7-27.6c-0.7-6.5-4.6-9.7-9.2-11.2
		c-21.5,35.8-52.3,75.1-52.7,68.5c4.1-52.7,0-137.2-1-138.9c-1.1-1.9-9-1.1-11.2-1.1s-4,1.5-4,1.5s-2.9,6.2-5.1,61.9
		c-1,26.2-2,78.1-2,78.1l-1,17.2c-1.3,9.8-3.1,16.3-4.8,20.8v32.8c2.2-3.2,3.7-6.3,6.4-10.6c0,4.5-0.1,11.4,0,14.3
		c0.4,14.6,1.8,24,4.8,26.6c2.9,2.6,15.5-0.1,17.4-2.4c1.8-2.2-2-43-1.5-46.6c0.4-1.6,1.3-0.6,2,1c19.6,42.4,56.3,63.9,91.1,59.2
		c38.8-5.2,65.4-40.9,73.7-89C409.9,211.1,412.1,204.8,407.7,206.6z"/>
	<path class="st5" d="M216,225.8c-2.2,5.2-3.5,6.9-3.5,6.9c-8,12.4-21.6,24.6-32.3,21.9c-9.4-2.3-15.4-15.7-17.4-38.6
		c-1.9-21.7,6.2-54.4,16.6-59.4c1.3-0.6,0.9-0.5,2,0.2c2.1,1.3,7,4.5,7.1,28.3c0,4.7-0.5,10.2-0.8,13.2c-0.2,2.5-0.2,2.5,0.3,2.7
		c1.5,0.7,4.7,1.3,11.5,1.3c7,0,7.7-5.5,8.2-8.8v-0.3c3.6-26.3-0.4-46.2-10.3-56.2c-4.1-4.1-10-5.8-15.3-5.1
		c-17.2,2.1-44,39.5-36.7,108.3c0,3.3-1.8,7.5-4,9.5c-0.7,0.6-1.7,1.3-2.8,1.2c-4-0.4-7-5.1-7.8-12.1c-0.9-9.2-0.6-43.5,7.4-79.4
		c1.3-5.7,1.4-6.1,0-7.6c-1.1-1.2-3-1.3-6.4-0.9l-1.8,0.2c-3.6,0.4-4.8-1.7-6.3,5c-1.7,7.4-5.6,2.4-8,1c-3.6-2.4-10.3-3.3-15.2-0.6
		c-7.6,4.2-20.7,15.8-22.4,54.7c0,0,2.8,22.4,2.8,22c4.3,32.5,16,36.6,19.6,37.6c5.7,1.6,10.8,0.6,14.3-3.3c4.5-4.9,5.7-7.9,6.2-9.4
		c1.1,0.1,2.9,3,3.5,3.9c4.9,7.7,10.1,9.8,13.6,10.3c4.2,0.5,8.6-1,12-4.2c5.4-5,7-11.9,11.4-6c12.3,16.4,32.3,16.6,46.6,5.6
		c3.8-3.7,6-6.4,7.8-9L216,225.8L216,225.8z M114.6,203c-0.7,13.3-1.3,21.8-2.4,34.2c-0.8,8.2-2.2,14.7-7.8,14.3
		c-3.1-0.2-7-8.2-8.6-16.7c-3.9-20.1-1.9-29.2,0.2-41c1.2-6.7,4.7-13.6,7.5-16.2c7.3-6.9,11.9-0.9,11.8,11.4
		C115.2,194.8,114.8,200.3,114.6,203z"/>
</g>
<g id="in_the_box_xAE_">
	<g>
		<path class="st3" d="M1112.9,148.8h-49.4v-20.1c0-3.9-3.2-7-7-7h-7.3c-3.9,0-7,3.2-7,7v106.7c0,3.2,3.2,5.8,7,5.8h63.7
			c11.6,0,21-9.5,21-21v-50.3C1133.9,158.3,1124.5,148.8,1112.9,148.8z M1063.5,221.3l0.1-52.6h42c3.9,0,7,3.2,7,7l0,0v38.6
			c0,3.9-3.2,7-7,7L1063.5,221.3L1063.5,221.3z M517.4,234.1c0,3.9-3.2,7-7,7H503c-3.9,0-7-3.2-7-7v-78.3c0-3.9,3.2-7,7-7h7.3
			c3.9,0,7,3.2,7,7v78.3H517.4z M517.4,123.2c0-3.9-3.2-7-7-7H503c-3.9,0-7,3.2-7,7v5.9c0,3.9,3.2,7,7,7h7.3c3.9,0,7-3.2,7-7v-5.9
			C517.3,123.2,517.4,123.2,517.4,123.2z M747.7,241.1c3.9,0,7-3.2,7-7v-5.9c0-3.9-3.2-7-7-7h-17.9c-3.9,0-7-3.2-7-7v-45.6h24.9
			c3.9,0,7-3.2,7-7v-5.9c0-3.9-3.2-7-7-7h-24.9v-20.1c0-3.9-3.2-7-7-7h-7.3c-3.9,0-7,3.2-7,7V220c0,11.6,9.5,21,21,21L747.7,241.1z"
			/>
		<path class="st3" d="M847,148.7h-49.4v-20.1c0-3.9-3.2-7-7-7h-7.3c-3.9,0-7,3.2-7,7v106.7c0,3.2,3.2,5.8,7,5.8h7.3
			c3.9,0,7-2.6,7-5.8v-66.7h42c3.9,0,7,3.2,7,7v59.7c0,3.2,3.2,5.8,7,5.8h7.3c3.9,0,7-2.6,7-5.8v-65.5
			C868.1,158.2,858.6,148.7,847,148.7z"/>
		<path class="st3" d="M612.3,235.3c0,3.2,3.2,5.8,7,5.8h7.3c3.9,0,7-2.6,7-5.8v-65.5c0-11.6-9.5-21-21-21h-63.7c-3.9,0-7,3.2-7,7
			v79.5c0,3.2,3.2,5.8,7,5.8h7.3c3.9,0,7-2.6,7-5.8v-66.7h42c3.9,0,7,3.2,7,7L612.3,235.3z"/>
		<path class="st3" d="M1337.5,150.8l-29,29l-29-29c-2.7-2.7-7.2-2.7-9.9,0l-5.2,5.2c-2.7,2.7-2.7,7.2,0,9.9l29,29l-29,29
			c-2.7,2.7-2.7,7.2,0,9.9l5.2,5.2c2.7,2.7,7.2,2.7,9.9,0l29-29l29,29c2.7,2.7,7.2,2.7,9.9,0l5.2-5.2c2.7-2.7,2.7-7.2,0-9.9l-29-29
			l29-29c2.7-2.7,2.7-7.2,0-9.9l-5.2-5.2C1344.6,148.1,1340.2,148.1,1337.5,150.8z"/>
		<path class="st3" d="M1244.2,219.9c0,11.6-9.5,21-21,21h-49.7c-11.6,0-21-9.5-21-21v-50.3c0-11.6,9.5-21,21-21h49.7
			c11.6,0,21,9.5,21,21V219.9z M1222.9,175.5c0-3.9-3.2-7-7-7h-35c-3.9,0-7,3.2-7,7v38.6c0,3.9,3.2,7,7,7h35c3.9,0,7-3.2,7-7V175.5z
			"/>
		<path class="st3" d="M908.9,205.3v8.3c0,3.9,3.2,7,7,7h28.3h22.5c3.9,0,7,3.2,7,7v5.9c0,3.9-3.2,7-7,7h-58.1
			c-11.6,0-21-9.4-21-20.9v-50.4c0-11.6,9.5-21,21-21h46.8c11.6,0,21,9.5,21,21v29.2c0,3.9-3.2,7-7,7L908.9,205.3z M909,185.5
			c1.3,0,44.8,0,46.1,0c0-1.3,0-11.8,0-11.8c0-3.2-2.5-5.7-5.9-5.7h-34.6c-3.2,0-5.6,2.4-5.6,5.7C909,173.7,909,184.2,909,185.5z"/>
	</g>
	<path class="st3" d="M1376.7,154.5c-9.1,0-15.6-6.8-15.6-15.8c0-9.5,7.2-15.8,15.6-15.8c8.3,0,15.5,6.3,15.5,15.8
		S1385,154.5,1376.7,154.5z M1376.7,125.6c-6.8,0-12.2,5.4-12.2,13.1c0,7.2,4.7,13.1,12.2,13.1c6.8,0,12.1-5.3,12.1-13.1
		C1388.8,131,1383.5,125.6,1376.7,125.6z M1373.6,147.7h-2.9v-17.5h6.6c4.2,0,6.4,1.5,6.4,5c0,3.2-1.9,4.5-4.6,4.8l4.9,7.7h-3.3
		l-4.5-7.5h-2.7L1373.6,147.7L1373.6,147.7z M1376.8,137.8c2.2,0,4.1-0.2,4.1-2.7c0-2.1-2.1-2.4-3.8-2.4h-3.5v5.1L1376.8,137.8
		L1376.8,137.8z"/>
</g>
<g id="Jack">
	<path class="st6" d="M103.2,176.3c-2.8,2.7-6.3,9.6-7.6,16.3c-2.1,11.8-4.3,26.3-2.1,41.3c2.3,15,6.6,17,10.3,17.8
		c5.7,0.4,7.3-7.3,8.1-15.5c1.2-12.4,1.8-20.9,2.4-34.3c0.1-2.7,0.6-8.2,0.7-14.1C115.2,175.4,110.6,169.3,103.2,176.3z"/>
	<g>
		<path class="st2" d="M407.8,207.6c-2.3,1-3.2,2.9-3.2,2.9c-7.3,38.2-28.6,66.5-62.8,70.8c-27.1,3.4-52.6-5.4-69.7-34.7
			c0,0-7.3-11.4-12.2-29.7c-0.9-3.8,15.8-19.7,36.3-59.3c3-5.8,11.1-25.6,10.7-27.6c-0.7-6.5-4.6-9.7-9.2-11.2
			c-21.5,35.8-52.3,75.1-52.7,68.5c4.1-52.7,0-137.2-1-138.9c-1.1-1.9-9-1.1-11.2-1.1s-4,1.5-4,1.5s-2.9,6.2-5.1,61.9
			c-1,26.2-2,78.1-2,78.1s-1.4,37.4-5.8,45v0.1c-5.2,9.3-24.7,30.5-35.9,27.4c-10.3-2.8-16.5-12.2-17.4-38.8
			c-0.8-21.9,6.2-54.7,16.7-59.6c1.3-0.6,0.9-0.5,2,0.2c2.1,1.3,7.1,4.5,7.1,28.4c0,4.7-0.5,10.3-0.8,13.2c-0.3,2.5-0.3,2.5,0.3,2.8
			c1.5,0.7,4.7,1.3,11.5,1.3c7,0,7.7-5.6,8.2-8.9v-0.3c3.6-26.4-0.4-46.5-10.3-56.4c-4.1-4.1-10.1-5.9-15.4-5.1
			c-17.3,2.1-43.8,43.2-36.5,112.3c0,3.3-1.6,5.2-3.3,6c-2.5,0.7-3.5,0.2-5.9-2.5c-2.4-2.6-4.8-9-5.5-16.1
			c-0.9-9.2-0.6-43.7,7.4-79.8c1.3-5.7,1.4-6.2,0-7.7c-1.1-1.2-3-1.3-6.4-0.9l-1.8,0.2c-3.6,0.4-4.8-1.7-6.4,5c-1.7,7.5-5.6,2.4-8,1
			c-3.6-2.4-10.4-3.3-15.3-0.6c-7.3,4.1-19.4,19.2-22,54.6c-0.2-1.3-0.3-2.2-0.4-2.7c-6.5-60-19.5-123.7-20.1-126.2
			c-1.4-4.6-14.2-7.3-16.6-6.7c-1.4,0.3-0.2,2.7,2.9,22.9c7.9,52,18.7,143.2,11,167.2c-3.4,10.6-17.2,13.9-24,3.8
			c-7.9-11.7-9.4-19.4-11.5-25.8c0,0-1.2,0.5-2.8,2c-2.1,2-2,2-1.7,5.3c0.6,7.4,3.8,21.8,10.4,32.5c12.1,19.5,31.3,19.1,41,10.9
			c6-5.1,13.1-14.1,14.5-35.2c0.4-5.7,0.4-12,0.3-17c1.3,7.9,4.2,21.9,12.6,27c6.3,3.9,16.4,3.9,21.7-0.9c4.5-4.9,5.7-7.9,6.2-9.5
			c0.9,0.3,9.3,27.2,25.8,15.2c6-4.3,6.4-9.3,10.8-3.4c15.2,20.3,40.7,11.7,57.6-9.4l0,0c2.4-2.8,3.9-4.9,6.4-8.9
			c0,4.5-0.1,9.4,0,12.4c0.4,14.6,1.8,24,4.8,26.6c2.9,2.6,15.5-0.1,17.4-2.4c1.8-2.2-2-43-1.5-46.6c0.4-1.6,1.3-0.6,2,1
			c19.6,42.4,56.3,63.9,91.1,59.2c38.8-5.2,65.4-40.9,73.7-89C410,212.1,412.1,205.8,407.8,207.6z M114.5,201.8
			c-0.7,13.4-1.3,21.9-2.4,34.3c-0.8,8.3-2.4,16-8.1,15.5c-3.7-0.8-8-2.9-10.3-17.8c-2.3-15-0.1-29.5,2.1-41.3
			c1.2-6.7,4.7-13.6,7.6-16.3c7.4-6.9,12-0.9,11.9,11.5C115.1,193.7,114.6,199.1,114.5,201.8z"/>
	</g>
</g>
</svg>
