<?xml version="1.0" encoding="utf-8"?>
<!-- Generator: Adobe Illustrator 22.0.1, SVG Export Plug-In . SVG Version: 6.00 Build 0)  -->
<svg version="1.1" id="Layer_1" xmlns="http://www.w3.org/2000/svg" xmlns:xlink="http://www.w3.org/1999/xlink" x="0px" y="0px"
	 viewBox="0 0 116 116" style="enable-background:new 0 0 116 116;" xml:space="preserve">
<style type="text/css">
	.st0{fill-rule:evenodd;clip-rule:evenodd;fill:#555861;}
	.st1{clip-path:url(#SVGID_2_);}
	.st2{fill-rule:evenodd;clip-rule:evenodd;fill:#484C54;}
	.st3{fill:#424242;}
	.st4{fill:#BDBDBD;}
	.st5{fill:#FFE082;}
	.st6{fill:#EB342A;}
	.st7{fill:#EF4538;}
	.st8{fill:#FFFFFE;}
	.st9{fill:#A91F23;}
	.st10{fill:#B72025;}
	.st11{fill:#EDEDED;}
</style>
<g>
	<g>
		<circle class="st0" cx="58" cy="58" r="58"/>
	</g>
	<g>
		<defs>
			<circle id="SVGID_1_" cx="58" cy="58" r="58"/>
		</defs>
		<clipPath id="SVGID_2_">
			<use xlink:href="#SVGID_1_"  style="overflow:visible;"/>
		</clipPath>
		<g class="st1">
			<g>
				<path class="st2" d="M122.4,90.6L122.4,90.6L122.4,90.6z M58.1,26.3"/>
			</g>
			<g>
				<path class="st2" d="M122.3,90.6L122.3,90.6L122.3,90.6z M57.9,26.3"/>
			</g>
			<g>
				<polygon class="st2" points="58,26.3 122.3,90.6 122.3,90.6 58,26.3 				"/>
			</g>
			<g>
				<polygon class="st2" points="71.7,32.6 136,96.9 136.3,97.3 136.6,97.6 136.9,98 137.2,98.3 137.4,98.7 137.7,99.1 137.9,99.5 
					138.1,99.8 138.4,100.2 138.6,100.6 138.8,101 139,101.5 139.2,101.9 139.4,102.3 139.5,102.7 139.7,103.2 139.8,103.6 140,104 
					140.1,104.5 140.2,104.9 140.3,105.4 140.4,105.9 140.5,106.3 140.6,106.8 140.7,107.3 140.7,107.7 140.8,108.2 140.8,108.7 
					140.8,109.2 140.8,109.7 76.5,45.4 76.5,44.9 76.5,44.4 76.4,43.9 76.4,43.4 76.3,42.9 76.3,42.5 76.2,42 76.1,41.5 76,41.1 
					75.9,40.6 75.8,40.2 75.7,39.7 75.5,39.3 75.4,38.8 75.2,38.4 75,38 74.9,37.6 74.7,37.1 74.5,36.7 74.3,36.3 74,35.9 
					73.8,35.5 73.6,35.1 73.3,34.7 73.1,34.4 72.8,34 72.6,33.6 72.3,33.3 72,32.9 				"/>
			</g>
			<g>
				<polygon class="st2" points="74.9,52.4 139.3,116.7 139.2,116.9 139.1,117.1 139,117.3 138.9,117.5 138.8,117.7 138.7,117.9 
					138.6,118.1 138.5,118.2 138.4,118.4 138.3,118.6 138.2,118.8 138.1,119 138,119.2 137.9,119.4 137.8,119.6 137.7,119.7 
					137.6,119.9 137.5,120.1 137.4,120.3 137.3,120.5 137.2,120.7 137.1,120.8 136.9,121 136.8,121.2 136.7,121.4 136.6,121.5 
					136.5,121.7 136.4,121.9 136.3,122.1 136.2,122.3 136.1,122.4 135.9,122.6 71.6,58.3 71.7,58.1 71.8,57.9 72,57.7 72.1,57.6 
					72.2,57.4 72.3,57.2 72.4,57 72.5,56.9 72.6,56.7 72.7,56.5 72.8,56.3 73,56.1 73.1,56 73.2,55.8 73.3,55.6 73.4,55.4 
					73.5,55.2 73.6,55 73.7,54.9 73.8,54.7 73.9,54.5 74,54.3 74.1,54.1 74.2,53.9 74.3,53.7 74.4,53.5 74.5,53.3 74.6,53.2 
					74.7,53 74.8,52.8 74.8,52.6 				"/>
			</g>
			<g>
				<polygon class="st2" points="71.6,58.3 135.9,122.6 135.7,122.9 135.5,123.3 135.3,123.6 135.1,123.9 134.9,124.3 134.8,124.6 
					134.6,124.9 134.5,125.2 134.3,125.5 134.2,125.8 134.1,126.1 134,126.4 133.8,126.7 133.7,127 133.6,127.2 133.6,127.5 
					133.5,127.8 133.4,128.1 133.3,128.4 133.2,128.7 133.2,129 133.1,129.3 133,129.6 133,129.9 132.9,130.2 132.9,130.5 
					132.8,130.8 132.7,131.1 132.7,131.4 132.6,131.7 132.6,132.1 132.5,132.4 68.2,68.1 68.3,67.7 68.3,67.4 68.4,67.1 68.4,66.8 
					68.5,66.4 68.5,66.1 68.6,65.8 68.6,65.5 68.7,65.2 68.8,64.9 68.8,64.6 68.9,64.4 69,64.1 69.1,63.8 69.1,63.5 69.2,63.2 
					69.3,62.9 69.4,62.6 69.5,62.3 69.6,62 69.8,61.8 69.9,61.5 70,61.2 70.1,60.9 70.3,60.6 70.5,60.2 70.6,59.9 70.8,59.6 
					71,59.3 71.2,59 71.4,58.6 				"/>
			</g>
			<g>
				<polygon class="st2" points="68.2,68.1 132.5,132.4 132.5,132.5 132.5,132.7 132.5,132.8 132.4,133 132.4,133.1 132.4,133.2 
					132.4,133.4 132.3,133.5 132.3,133.6 132.3,133.8 132.3,133.9 132.3,134 132.2,134.1 132.2,134.2 132.2,134.3 132.2,134.4 
					67.9,70.1 67.9,70 67.9,69.9 67.9,69.8 67.9,69.7 68,69.6 68,69.4 68,69.3 68,69.2 68,69 68.1,68.9 68.1,68.8 68.1,68.6 
					68.1,68.5 68.2,68.3 68.2,68.2 				"/>
			</g>
			<g>
				<polygon class="st2" points="67.9,70.1 132.2,134.4 132.1,135.6 67.7,71.2 				"/>
			</g>
			<g>
				<polygon class="st2" points="68.6,71.2 132.9,135.6 132.9,138.2 68.6,73.8 				"/>
			</g>
			<g>
				<polygon class="st2" points="68.6,73.8 132.9,138.2 132.1,138.2 67.8,73.8 				"/>
			</g>
			<g>
				<polygon class="st2" points="67.8,73.8 132.1,138.2 132.1,139.5 67.8,75.2 				"/>
			</g>
			<g>
				<polygon class="st2" points="68.6,75.2 132.9,139.5 132.9,142.1 68.6,77.8 				"/>
			</g>
			<g>
				<polygon class="st2" points="68.6,77.8 132.9,142.1 132.1,142.1 67.8,77.8 				"/>
			</g>
			<g>
				<polygon class="st2" points="67.8,77.8 132.1,142.1 132.1,143.4 67.8,79.1 				"/>
			</g>
			<g>
				<polygon class="st2" points="68.6,79.1 132.9,143.4 132.9,146 68.6,81.7 				"/>
			</g>
			<g>
				<polygon class="st2" points="68.6,81.7 132.9,146 132.1,146 67.8,81.7 				"/>
			</g>
			<g>
				<polygon class="st2" points="67.8,81.7 132.1,146 132.1,147.4 67.8,83.1 				"/>
			</g>
			<g>
				<polygon class="st2" points="67.8,83.1 132.1,147.4 131.5,147.4 67.2,83.1 				"/>
			</g>
			<g>
				<polygon class="st2" points="67.2,83.1 131.5,147.4 131.5,148.6 67.2,84.2 				"/>
			</g>
			<g>
				<polygon class="st2" points="67.2,84.2 131.5,148.6 131.5,148.8 131.5,148.9 131.5,149.1 131.4,149.3 131.4,149.4 131.4,149.5 
					131.3,149.7 131.3,149.8 131.2,149.9 131.1,150 131.1,150.1 131,150.2 130.9,150.3 130.8,150.4 130.7,150.4 130.6,150.5 
					130.5,150.6 130.4,150.6 130.3,150.7 130.1,150.7 130,150.8 129.9,150.8 129.8,150.8 129.7,150.8 129.5,150.9 129.4,150.9 
					129.3,150.9 129.1,150.9 129,150.9 128.9,150.9 128.7,150.9 128.6,150.9 64.3,86.6 64.4,86.6 64.5,86.6 64.7,86.6 64.8,86.6 
					64.9,86.6 65.1,86.6 65.2,86.5 65.3,86.5 65.5,86.5 65.6,86.5 65.7,86.4 65.8,86.4 65.9,86.3 66.1,86.3 66.2,86.2 66.3,86.2 
					66.4,86.1 66.5,86 66.6,86 66.6,85.9 66.7,85.8 66.8,85.7 66.9,85.6 66.9,85.5 67,85.3 67,85.2 67.1,85.1 67.1,84.9 67.2,84.8 
					67.2,84.6 67.2,84.4 				"/>
			</g>
			<g>
				<polygon class="st2" points="64.3,86.6 128.6,150.9 128.4,150.9 64.1,86.6 				"/>
			</g>
			<g>
				<polygon class="st2" points="64.1,86.6 128.4,150.9 128.4,150.9 64,86.6 				"/>
			</g>
			<g>
				<polygon class="st2" points="64,86.6 128.4,150.9 128.3,150.9 64,86.6 				"/>
			</g>
			<g>
				<polygon class="st2" points="64,86.6 128.3,150.9 128.3,150.9 64,86.6 				"/>
			</g>
			<g>
				<polygon class="st2" points="64,86.6 128.3,150.9 128.3,150.9 64,86.6 				"/>
			</g>
			<g>
				<polygon class="st2" points="48.2,73.8 112.5,138.2 111.7,138.2 47.4,73.8 				"/>
			</g>
			<g>
				<polygon class="st2" points="62,89.7 126.3,154 125.5,154 61.2,89.7 				"/>
			</g>
			<g>
				<polygon class="st2" points="48.8,83.1 113.1,147.4 112.5,147.4 48.2,83.1 				"/>
			</g>
			<g>
				<polygon class="st2" points="51.9,86.6 116.2,150.9 116.1,150.9 116.1,150.9 116,150.9 116,150.9 115.9,150.9 115.8,150.9 
					115.8,150.9 115.7,150.9 51.4,86.6 51.4,86.6 51.5,86.6 51.6,86.6 51.6,86.6 51.7,86.6 51.7,86.6 51.8,86.6 				"/>
			</g>
			<g>
				<polygon class="st2" points="52,86.6 116.3,150.9 116.2,150.9 51.9,86.6 				"/>
			</g>
			<g>
				<polygon class="st2" points="51.4,86.6 115.7,150.9 115.6,150.9 115.5,150.9 115.3,150.9 115.2,150.9 115.1,150.9 115,150.8 
					114.9,150.8 114.7,150.8 114.6,150.8 114.5,150.7 114.4,150.7 114.3,150.6 114.2,150.6 114.1,150.5 114,150.5 113.9,150.4 
					113.8,150.4 113.7,150.3 49.4,86 49.5,86 49.6,86.1 49.7,86.2 49.8,86.2 49.9,86.3 50,86.3 50.1,86.4 50.2,86.4 50.3,86.4 
					50.4,86.5 50.5,86.5 50.7,86.5 50.8,86.5 50.9,86.6 51,86.6 51.1,86.6 51.3,86.6 				"/>
			</g>
			<g>
				<polygon class="st2" points="54.8,89.7 119.1,154 118.4,154 54.1,89.7 				"/>
			</g>
			<g>
				<polygon class="st2" points="48.2,81.7 112.5,146 111.7,146 47.4,81.7 				"/>
			</g>
			<g>
				<polygon class="st2" points="48.2,77.8 112.5,142.1 111.7,142.1 47.4,77.8 				"/>
			</g>
			<g>
				<polygon class="st2" points="61.2,89.7 125.5,154 119.1,154 54.8,89.7 				"/>
			</g>
			<g>
				<polygon class="st2" points="64,86.6 128.3,150.9 126.3,154 62,89.7 				"/>
			</g>
			<g>
				<polygon class="st2" points="76.5,45.4 140.8,109.7 140.8,109.9 140.8,110.2 140.8,110.4 140.8,110.6 140.8,110.8 140.8,111.1 
					140.7,111.3 140.7,111.5 140.7,111.8 140.6,112 140.6,112.2 140.6,112.4 140.5,112.7 140.5,112.9 140.4,113.1 140.4,113.3 
					140.3,113.5 140.3,113.8 140.2,114 140.2,114.2 140.1,114.4 140,114.6 140,114.8 139.9,115 139.8,115.3 139.7,115.5 
					139.7,115.7 139.6,115.9 139.5,116.1 139.4,116.3 139.3,116.5 139.3,116.7 74.9,52.4 75,52.2 75.1,52 75.2,51.8 75.3,51.5 
					75.3,51.3 75.4,51.1 75.5,50.9 75.6,50.7 75.6,50.5 75.7,50.3 75.8,50.1 75.8,49.9 75.9,49.6 76,49.4 76,49.2 76.1,49 
					76.1,48.8 76.2,48.6 76.2,48.3 76.2,48.1 76.3,47.9 76.3,47.7 76.3,47.4 76.4,47.2 76.4,47 76.4,46.8 76.4,46.5 76.5,46.3 
					76.5,46.1 76.5,45.8 76.5,45.6 				"/>
			</g>
			<g>
				<path class="st2" d="M58.1,26.3L58.1,26.3L58.1,26.3z M57.9,26.3L57.9,26.3L57.9,26.3z M58.1,26.3c5.1,0,9.7,2.2,13,5.6
					c3.3,3.5,5.4,8.2,5.4,13.4h0c0,2.5-0.6,4.8-1.6,7c-0.9,2.1-2.1,4-3.3,5.9c-2.4,3.7-2.8,6.2-3.4,9.8c-0.1,0.7-0.3,1.5-0.3,2
					l-0.1,1.1h0.1h0.7v2.6h-0.7v1.3h0.7v2.6h-0.7v1.3h0.7v2.6h-0.7v1.4h-0.6l0,1.1h0c0,2-1.5,2.3-2.9,2.4l-0.2,0l-0.1,0l-0.1,0l0,0
					l0,0l-2,3.1l-0.8,0h-6.4h-0.7l-0.4-0.6L52,86.6l0,0l-0.1,0c-0.2,0-0.3,0-0.5,0c-1.3-0.1-2.6-0.5-2.6-2.4h0c0-0.1,0-0.6,0-1.1
					c0,0,0-0.1,0-0.1h-0.6v-1.4h-0.7v-2.6h0.7v-1.3h-0.7v-2.6h0.7v-1.3h-0.7v-2.6h0.7h0.1l-0.2-1.1c-0.1-0.5-0.2-1.3-0.3-2
					c-0.6-3.6-1-6.1-3.4-9.8c-1.2-1.9-2.4-3.8-3.3-5.9c-0.9-2.2-1.6-4.5-1.6-7h0c0-5.2,2.1-10,5.4-13.4c3.3-3.5,7.9-5.6,13-5.6
					L58.1,26.3L58.1,26.3L58.1,26.3L58.1,26.3L58.1,26.3L58.1,26.3L58.1,26.3L58.1,26.3L58.1,26.3L58.1,26.3L58.1,26.3z"/>
			</g>
		</g>
	</g>
	<g>
		<polygon class="st3" points="58,26.3 58,26.3 58,26.3 58,28.9 58,28.9 58,28.9 		"/>
	</g>
	<g>
		<polygon class="st3" points="64,86.6 62,89.7 61.2,89.7 54.8,89.7 54.1,89.7 53.7,89.1 52,86.6 		"/>
	</g>
	<g>
		<path class="st4" d="M64,86.6L64,86.6L64,86.6l-12,0l0,0l-0.1,0c-0.2,0-0.3,0-0.5,0c-1.3-0.1-2.6-0.5-2.6-2.4h0c0-0.1,0-0.6,0-1.1
			c0-0.5,0-1,0-1.4l0-1.4h1.4h15.9h1.3l0,1.3l-0.1,2.5h0c0,2-1.5,2.3-2.9,2.4c-0.1,0-0.1,0-0.2,0L64,86.6L64,86.6z"/>
	</g>
	<g>
		<polygon class="st3" points="58,28.9 58,28.9 58,28.9 		"/>
	</g>
	<g>
		<path class="st5" d="M68.2,68.1c-0.1,0.7-0.3,1.5-0.3,2l-0.1,1.3l-1.2,0H49.4h-1.1l-0.2-1.3c-0.1-0.5-0.2-1.3-0.3-2
			c-0.6-3.6-1-6.1-3.4-9.8c-1.2-1.9-2.4-3.8-3.3-5.9c-0.9-2.2-1.6-4.5-1.6-7h0c0-5.2,2.1-10,5.4-13.4c3.3-3.5,7.9-5.6,13-5.6v0h0h0
			l0,0h0h0l0,0h0h0v0c5.1,0,9.7,2.2,13,5.6c3.3,3.5,5.4,8.2,5.4,13.4h0c0,2.5-0.6,4.8-1.6,7c-0.9,2.1-2.1,4-3.3,5.9
			C69.2,62,68.8,64.5,68.2,68.1z"/>
	</g>
	<g>
		<path class="st6" d="M58,71.4h-8.6h-1.1l-0.2-1.3c-0.1-0.5-0.2-1.3-0.3-2c-0.6-3.6-1-6.1-3.4-9.8c-1.2-1.9-2.4-3.8-3.3-5.9
			c-0.9-2.2-1.6-4.5-1.6-7h0c0-5.2,2.1-10,5.4-13.4c3.3-3.5,7.9-5.6,13-5.6v0h0h0l0,0h0V71.4z"/>
	</g>
	<g>
		<path class="st7" d="M68.2,68.1c-0.1,0.7-0.3,1.5-0.3,2l-0.1,1.3l-1.2,0H58h0V26.3h0l0,0h0h0h0v0c5.1,0,9.7,2.2,13,5.6
			c3.3,3.5,5.4,8.2,5.4,13.4h0c0,2.5-0.6,4.8-1.6,7c-0.9,2.1-2.1,4-3.3,5.9C69.2,62,68.8,64.5,68.2,68.1z"/>
	</g>
	<g>
		<path d="M50.4,43.4c0-0.2,0.1-0.3,0.3-0.3c0.2,0,0.3,0.1,0.3,0.3l0,1l3.9,5.4c0,0.1,0.1,0.1,0.1,0.2h0v21.2c0,0.2-0.1,0.3-0.3,0.3
			c-0.2,0-0.3-0.1-0.3-0.3V50.1l-3.9-5.4c0,0-0.1-0.1-0.1-0.2L50.4,43.4z"/>
	</g>
	<g>
		<path d="M64.9,43.4c0-0.2,0.1-0.3,0.3-0.3c0.2,0,0.3,0.1,0.3,0.3l0,1.1c0,0.1,0,0.1-0.1,0.2l-3.9,5.4v21.1c0,0.2-0.1,0.3-0.3,0.3
			c-0.2,0-0.3-0.1-0.3-0.3V50h0c0-0.1,0-0.1,0.1-0.2l3.9-5.4L64.9,43.4z"/>
	</g>
	<g>
		<path class="st8" d="M51.9,43.9c-0.1,0.1-0.2,0.1-0.3,0c-0.1-0.1-0.1-0.2,0-0.3c0,0,0.1-0.1,0.3-0.3c0.1-0.1,0.3-0.3,0.4-0.4
			c0.3-0.3,0.7-0.5,1-0.6c0.3-0.1,0.7,0,1,0.2c0.1,0,0.1,0.1,0.2,0.1c0,0,0.1-0.1,0.1-0.1c0.2-0.1,0.5-0.2,0.7-0.2
			c0.3,0,0.5,0.1,0.7,0.2c0,0,0.1,0.1,0.1,0.1c0,0,0,0,0,0c0.2-0.1,0.5-0.2,0.8-0.2v0c0.3,0,0.5,0.1,0.8,0.2c0,0,0,0,0,0
			c0,0,0.1-0.1,0.1-0.1c0.2-0.2,0.5-0.2,0.8-0.2s0.6,0.1,0.8,0.2c0.1,0,0.1,0.1,0.1,0.1l0,0c0.2-0.1,0.4-0.2,0.6-0.3
			c0.2-0.1,0.4-0.1,0.6,0c0.2,0,0.4,0.1,0.5,0.3c0.2-0.1,0.3-0.2,0.5-0.3c0.3-0.1,0.6-0.1,0.9,0c0.3,0.1,0.7,0.4,0.9,0.6
			c0.1,0.1,0.3,0.3,0.5,0.5c0.1,0.1,0.2,0.3,0.3,0.3c0.1,0.1,0,0.2-0.1,0.3c-0.1,0.1-0.2,0-0.3-0.1c0,0-0.1-0.1-0.2-0.3
			c-0.2-0.2-0.4-0.5-0.5-0.5c-0.2-0.2-0.5-0.4-0.8-0.5c-0.2-0.1-0.4-0.1-0.6,0c-0.1,0-0.3,0.1-0.4,0.2c0.3,0.5,0.3,0.9,0.2,1.2
			c-0.1,0.2-0.3,0.4-0.4,0.4c-0.2,0.1-0.4,0-0.6-0.1c-0.2-0.2-0.2-0.4-0.1-0.9c0.1-0.2,0.2-0.5,0.4-0.7c-0.1-0.1-0.2-0.2-0.3-0.2
			c-0.1,0-0.2,0-0.4,0c-0.1,0-0.3,0.1-0.4,0.2l0,0c0.3,0.5,0.3,0.9,0.2,1.2c-0.1,0.2-0.3,0.4-0.4,0.4c-0.2,0.1-0.4,0-0.6-0.1
			c-0.2-0.2-0.2-0.4-0.1-0.9c0.1-0.3,0.2-0.5,0.4-0.7c0,0,0-0.1-0.1-0.1c-0.1-0.1-0.3-0.1-0.5-0.1c-0.2,0-0.4,0-0.5,0.1
			c0,0,0,0-0.1,0c0.2,0.2,0.3,0.5,0.4,0.8c0.1,0.4,0,0.7-0.1,0.9c-0.2,0.2-0.4,0.2-0.6,0.1c-0.2-0.1-0.3-0.2-0.4-0.4
			c-0.1-0.3-0.1-0.7,0.2-1.3l0,0c-0.2-0.1-0.4-0.2-0.5-0.2v0c-0.2,0-0.4,0.1-0.5,0.2l0,0c0.3,0.5,0.3,1,0.2,1.3
			c-0.1,0.2-0.3,0.4-0.4,0.4c-0.2,0.1-0.4,0-0.6-0.1c-0.2-0.2-0.2-0.4-0.1-0.9c0.1-0.3,0.2-0.6,0.4-0.8c0,0,0,0-0.1,0
			c-0.1-0.1-0.3-0.1-0.5-0.1c-0.2,0-0.4,0-0.5,0.1c0,0-0.1,0.1-0.1,0.1c0,0,0.1,0.1,0.1,0.1c0.2,0.2,0.3,0.4,0.3,0.7l0,0
			c0.1,0.4,0,0.7-0.1,0.9c-0.2,0.2-0.4,0.2-0.6,0.1c-0.2-0.1-0.3-0.2-0.4-0.4c-0.1-0.3-0.1-0.7,0.2-1.2c-0.1,0-0.1-0.1-0.2-0.1
			c-0.3-0.1-0.5-0.2-0.7-0.1c-0.3,0.1-0.6,0.3-0.8,0.5c-0.1,0.1-0.3,0.3-0.4,0.4C52.1,43.8,52,43.9,51.9,43.9L51.9,43.9z M54.9,43.8
			c0-0.1-0.1-0.3-0.2-0.5c-0.2,0.3-0.2,0.6-0.1,0.8c0,0.1,0.1,0.2,0.2,0.2c0.1,0,0.1,0,0.1,0C55,44.2,55,44,54.9,43.8L54.9,43.8
			L54.9,43.8L54.9,43.8z M56.4,44.1c0.1-0.2,0.1-0.5-0.1-0.8c-0.1,0.1-0.2,0.3-0.2,0.5c-0.1,0.3,0,0.4,0,0.5c0,0,0.1,0,0.1,0
			C56.3,44.2,56.4,44.2,56.4,44.1L56.4,44.1z M58.3,43.8c0-0.2-0.1-0.4-0.2-0.5c-0.2,0.4-0.2,0.6-0.1,0.8c0,0.1,0.1,0.2,0.2,0.2
			c0.1,0,0.1,0,0.1,0C58.3,44.2,58.3,44,58.3,43.8L58.3,43.8z M59.8,44.1c0.1-0.2,0.1-0.4-0.1-0.8c-0.1,0.1-0.2,0.3-0.2,0.5
			c-0.1,0.3,0,0.4,0,0.5c0,0,0.1,0,0.1,0C59.7,44.2,59.7,44.2,59.8,44.1L59.8,44.1z M61.4,44.1c0.1-0.2,0.1-0.4-0.1-0.8
			c-0.1,0.2-0.2,0.3-0.3,0.5c-0.1,0.3,0,0.4,0,0.5c0,0,0.1,0,0.1,0C61.3,44.2,61.4,44.2,61.4,44.1z"/>
	</g>
	<g>
		<path class="st9" d="M67.8,83.1H48.2c0-4,0-7.9,0-11.9h19.7C67.8,75.2,67.8,79.1,67.8,83.1z"/>
	</g>
	<g>
		<path class="st10" d="M68.6,73.8H47.4c0-0.9,0-1.7,0-2.6h21.1C68.6,72.1,68.6,73,68.6,73.8z"/>
	</g>
	<g>
		<path class="st10" d="M68.6,77.8H47.4c0-0.9,0-1.7,0-2.6h21.1C68.6,76,68.6,76.9,68.6,77.8z"/>
	</g>
	<g>
		<path class="st10" d="M68.6,81.7H47.4c0-0.9,0-1.7,0-2.6h21.1C68.6,80,68.6,80.8,68.6,81.7z"/>
	</g>
	<g>
		<path class="st11" d="M58,44.7v-0.5c0,0,0.1,0.1,0.1,0.1c0.1,0,0.1,0,0.1,0c0.1-0.1,0.1-0.2,0-0.5c0-0.2-0.1-0.4-0.2-0.5
			c0,0,0,0.1,0,0.1v-0.7c0,0,0.1-0.1,0.1-0.1c0.2-0.2,0.5-0.2,0.8-0.2s0.6,0.1,0.8,0.2c0.1,0,0.1,0.1,0.1,0.1l0,0
			c0.2-0.1,0.4-0.2,0.6-0.3c0.2-0.1,0.4-0.1,0.6,0c0.2,0,0.4,0.1,0.5,0.3c0.2-0.1,0.3-0.2,0.5-0.3c0.3-0.1,0.6-0.1,0.9,0
			c0.3,0.1,0.7,0.4,0.9,0.6c0.1,0.1,0.3,0.3,0.5,0.5c0.1,0.1,0.2,0.3,0.3,0.3c0.1,0.1,0,0.2-0.1,0.3c-0.1,0.1-0.2,0-0.3-0.1
			c0,0-0.1-0.1-0.2-0.3c-0.2-0.2-0.4-0.5-0.5-0.5c-0.2-0.2-0.5-0.4-0.8-0.5c-0.2-0.1-0.4-0.1-0.6,0c-0.1,0-0.3,0.1-0.4,0.2
			c0.3,0.5,0.3,0.9,0.2,1.2c-0.1,0.2-0.3,0.4-0.4,0.4c-0.2,0.1-0.4,0-0.6-0.1c-0.2-0.2-0.2-0.4-0.1-0.9c0.1-0.2,0.2-0.5,0.4-0.7
			c-0.1-0.1-0.2-0.2-0.3-0.2c-0.1,0-0.2,0-0.4,0c-0.1,0-0.3,0.1-0.4,0.2l0,0c0.3,0.5,0.3,0.9,0.2,1.2c-0.1,0.2-0.3,0.4-0.4,0.4
			c-0.2,0.1-0.4,0-0.6-0.1c-0.2-0.2-0.2-0.4-0.1-0.9c0.1-0.3,0.2-0.5,0.4-0.7c0,0,0-0.1-0.1-0.1c-0.1-0.1-0.3-0.1-0.5-0.1
			c-0.2,0-0.4,0-0.5,0.1c0,0,0,0-0.1,0c0.2,0.2,0.3,0.5,0.4,0.8c0.1,0.4,0,0.7-0.1,0.9C58.4,44.7,58.2,44.7,58,44.7L58,44.7z
			 M59.8,44.1c0.1-0.2,0.1-0.4-0.1-0.8c-0.1,0.1-0.2,0.3-0.2,0.5c-0.1,0.3,0,0.4,0,0.5c0,0,0.1,0,0.1,0
			C59.7,44.2,59.7,44.2,59.8,44.1L59.8,44.1z M61.4,44.1c0.1-0.2,0.1-0.4-0.1-0.8c-0.1,0.2-0.2,0.3-0.3,0.5c-0.1,0.3,0,0.4,0,0.5
			c0,0,0.1,0,0.1,0C61.3,44.2,61.4,44.2,61.4,44.1z"/>
	</g>
</g>
</svg>
