<?xml version="1.0" encoding="utf-8"?>
<!-- Generator: Adobe Illustrator 22.0.1, SVG Export Plug-In . SVG Version: 6.00 Build 0)  -->
<svg version="1.1" id="Layer_1" xmlns="http://www.w3.org/2000/svg" xmlns:xlink="http://www.w3.org/1999/xlink" x="0px" y="0px"
	 viewBox="0 0 70 70" style="enable-background:new 0 0 70 70;" xml:space="preserve">
<style type="text/css">
	.st0{fill:#3A3E46;}
	.st1{clip-path:url(#SVGID_2_);}
	.st2{fill:#F0ECE9;}
	.st3{fill:#FFFFFF;}
	.st4{fill:#D7C6BA;}
	.st5{fill:#FDDD38;}
	.st6{fill:#29ACE3;}
	.st7{fill:#E0D3C5;}
	.st8{fill:#60AC45;}
	.st9{fill:#F5A31C;}
	.st10{opacity:0.37;clip-path:url(#SVGID_4_);fill:#676775;}
	.st11{fill:#FF4433;}
	.st12{fill:#B82025;}
</style>
<g id="Location">
	<circle class="st0" cx="35" cy="35" r="35"/>
	<g>
		<defs>
			<circle id="SVGID_1_" cx="35" cy="35" r="35"/>
		</defs>
		<clipPath id="SVGID_2_">
			<use xlink:href="#SVGID_1_"  style="overflow:visible;"/>
		</clipPath>
		<g class="st1">
			<path class="st2" d="M70.2,63.5L58.9,40.1c-0.7-1.5-2.4-2.4-4.1-2.4H16c-1.7,0-3.2,0.9-3.9,2.4l-12,25.2V70h70V63.5z"/>
			<path class="st3" d="M16.4,70h3.4c0-0.7,0.1-1.2,0.1-1.7c0-2.7-6-13.9-7.5-16.7c-1.1-1.9,1.6-3.4,1.6-3.4l17.8-8.6l-1.4-0.7
				l-5.2,2.6l-14.5,1.7l-0.7,1.5l10.9-1.3c0,0-6,2.7-9,4.2c-2.4,1.2-3.1,2.9-2.4,4.6c0.8,2.1,5.7,12.5,6.9,15.3
				C16.4,68.2,16.5,69.1,16.4,70z"/>
			<path class="st4" d="M12.9,59.5c-1.5-3.2-3-6.3-3.3-7.3c-0.6-1.7,0.2-3.2,2.3-4.3c2.9-1.5,8.9-4.1,8.9-4.2c0.1,0,0.2-0.2,0.1-0.3
				c0-0.1-0.1-0.2-0.3-0.2L10,44.5L9.7,45l9.5-1.2c-2,0.9-5.5,2.5-7.5,3.5c-2.4,1.2-3.3,2.9-2.5,4.9c0.4,1.1,1.8,4.1,3.4,7.4
				c1.5,3.1,3,6.3,3.5,7.7c0.3,0.7,0.3,1.6,0.1,2.6h0.5c0.1-1,0.2-2.1-0.1-2.8C15.9,65.8,14.4,62.6,12.9,59.5z M31.8,39.4l-1.4-0.7
				c-0.1,0-0.1,0-0.2,0L25,41.3L10.7,43l-0.2,0.5l14.7-1.8c0,0,0.1,0,0.1,0l5.1-2.5l0.9,0.5L13.8,48c-0.1,0-1.5,0.8-1.8,2
				c-0.2,0.5-0.1,1.1,0.2,1.6c3.6,6.6,7.5,14.4,7.5,16.4c0,0.6-0.1,1.2-0.1,2H20c0.1-0.7,0.1-1.4,0.1-1.9c0-2.7-5.7-13.4-7.5-16.6
				c-0.2-0.4-0.3-0.8-0.2-1.3c0.3-1,1.6-1.8,1.6-1.8l17.8-8.5c0.1,0,0.1-0.1,0.1-0.2C32,39.6,31.9,39.5,31.8,39.4z"/>
			<polygon class="st5" points="60.4,43.5 51.4,41.5 53.4,37.7 51.4,37.7 49.3,41.2 31.7,37.7 21.3,37.7 48,43.4 36.7,70 41.6,70 
				50.5,43.9 61.8,46.4 			"/>
			<path class="st6" d="M62,51.1c0.8,0.1,1.7,0.5,2.4,0.9l-1.6-3.4c-1.4-0.5-2.7-0.8-4-0.6c-6.1,0.6-8.7,6.5-6.3,14.2
				c0.2,1.5,2.4,4.7,2.8,7.9h8.1c-1-4.4-4.3-6.2-5.2-11.3C57.6,54.9,58,50.4,62,51.1z"/>
			<path class="st7" d="M26.9,70h4.6l5.8-11l-2.8-4.2l8.3-6.2l2.1-4.1c0.2-0.3-0.1-0.7-0.7-0.8L31.9,41c-0.4-0.1-0.9,0-1.3,0.1
				L16.7,48c-0.4,0.2-0.6,0.5-0.5,0.8L26.9,70z"/>
			<path class="st8" d="M26.6,65.6l6.1-3.3l-6-6.7l0.2-3.4l-3.9-1.8c-0.2-0.6-1.1-3.4-1.5-3.4l-3.8,1.7L26.6,65.6z"/>
			<path class="st9" d="M61.7,46.3l-11.3-2.5c-0.1,0-0.1,0-0.2,0c-0.1,0-0.1,0-0.1,0.1L41.2,70h0.7l8.6-25.9l11.3,2.5L61.7,46.3z"/>
			<path class="st9" d="M48,43.3l-26.3-5.5h-1l26.9,5.7L36.4,70h0.7l11.1-26.6C48.2,43.3,48.1,43.3,48,43.3z M51.2,37.7l-2,3.3
				l-17-3.3h-1l18,3.6c0,0,0.1,0,0.1,0c0.1,0,0.1,0,0.2-0.1l2.1-3.5H51.2z M60.3,43.4l-8.7-1.9l2-3.8h-0.4l-2,3.8
				c0,0.1,0,0.1,0.1,0.1l9.2,2L60.3,43.4z"/>
		</g>
	</g>
	<g>
		<defs>
			<circle id="SVGID_3_" cx="35" cy="35" r="35"/>
		</defs>
		<clipPath id="SVGID_4_">
			<use xlink:href="#SVGID_3_"  style="overflow:visible;"/>
		</clipPath>
		<polygon class="st10" points="35.3,48 57.3,70 70,70 70,46 43.4,19.4 30.1,21 27.3,26.1 		"/>
	</g>
	<g>
		<g>
			<g>
				<g>
					<path class="st11" d="M35.3,15.8c-7.7,0-11.2,5.4-11.2,12.5c0,6.3,6.8,15.3,11.2,19.7c0.1,0.1,11.2-13.4,11.2-19.7
						C46.4,22,42.7,15.8,35.3,15.8z M35.3,31.9c-2.8,0-5-2.2-5-5s2.2-5,5-5c2.8,0,5,2.2,5,5S38,31.9,35.3,31.9z"/>
				</g>
			</g>
		</g>
		<path class="st12" d="M35.3,21c-3.2,0-5.9,2.6-5.9,5.9c0,3.2,2.6,5.9,5.9,5.9c3.2,0,5.9-2.6,5.9-5.9C41.2,23.7,38.5,21,35.3,21z
			 M35.3,30.8c-2.1,0-3.9-1.7-3.9-3.9c0-2.1,1.7-3.9,3.9-3.9c2.1,0,3.9,1.7,3.9,3.9C39.1,29,37.4,30.8,35.3,30.8z"/>
	</g>
</g>
</svg>
