<svg version="1.1" id="Layer_1" xmlns="http://www.w3.org/2000/svg" xmlns:xlink="http://www.w3.org/1999/xlink" x="0px" y="0px"
	 viewBox="-195 277.6 150 18" style="enable-background:new -195 277.6 150 18;" xml:space="preserve">
<style type="text/css">
	.st0{fill:#FFFFFF;}
</style>
<g>
	<path class="st0" d="M-169.3,281.4v12.1l0,0l0,0c0,1.4-0.7,2-2,2s-2-0.7-2-2v-12.1h-14.5c-1.1,0-1.9,0.2-2.4,0.7
		c-0.2,0.2-0.5,0.6-0.5,0.9c-0.1,0.3-0.2,0.9-0.2,1.8v8.7c0,1.4-0.7,2-2,2s-2-0.7-2-2l0,0v-9.4c0-2.1,0.6-3.8,1.6-4.9s3-1.6,6-1.6
		h32.1c2.9,0,4.9,0.6,6,1.6c1.1,1.2,1.6,2.9,1.6,4.9v9.4l0,0c0,1.4-0.7,2-2,2c-1.4,0-2-0.7-2-2l0,0v-8.7c0-0.9,0-1.5-0.1-1.8
		c-0.3-1.1-1.3-1.6-2.9-1.6H-169.3z"/>
	<path class="st0" d="M-117.2,281.4v12.1l0,0l0,0c0,1.4-0.7,2-2,2s-2-0.7-2-2v-12.1h-14.5c-1.1,0-1.9,0.2-2.4,0.7
		c-0.3,0.3-0.5,0.6-0.6,0.9c-0.1,0.3-0.1,0.9-0.1,1.8v8.7c0,1.4-0.7,2-2,2c-1.4,0-2-0.7-2-2l0,0v-9.4c0-2.1,0.6-3.8,1.6-4.9
		c1.1-1.1,3-1.6,6-1.6h32.1c2.9,0,4.9,0.6,6,1.6c1.1,1.2,1.6,2.9,1.6,4.9v9.4l0,0c0,1.4-0.7,2-2,2s-2-0.7-2-2l0,0v-8.7
		c0-0.9,0-1.5-0.1-1.8c-0.3-1.1-1.3-1.6-2.9-1.6H-117.2z"/>
	<path class="st0" d="M-47,277.8h-5.6l0,0h-32.1l0,0h-5.6c-1.3,0-2,0.7-2,1.9c0,1.3,0.7,2,2,2h19.7v12.2c0,1.4,0.7,2,2,2s2-0.7,2-2
		l0,0l0,0v-12.2H-47c1.3,0,2-0.7,2-2S-45.7,277.8-47,277.8z"/>
</g>
</svg>
