<svg version="1.1" id="Layer_1" xmlns="http://www.w3.org/2000/svg" xmlns:xlink="http://www.w3.org/1999/xlink" x="0px" y="0px"
	 viewBox="0 0 20 20" style="enable-background:new 0 0 20 20;" xml:space="preserve">
<style type="text/css">
	.st0{fill:#FF492C;}
</style>
<path class="st0" d="M19.6,17.7L11.9,10l7.7-7.7c0.5-0.5,0.5-1.3,0-1.8c-0.5-0.5-1.3-0.5-1.8,0L10,8.1L2.3,0.4
	c-0.5-0.5-1.3-0.5-1.8,0c-0.5,0.5-0.5,1.3,0,1.8L8.2,10l-7.8,7.8c-0.5,0.5-0.5,1.3,0,1.8C0.6,19.9,1,20,1.3,20s0.7-0.1,0.9-0.4
	l7.8-7.8l7.8,7.8c0.3,0.3,0.6,0.4,0.9,0.4c0.3,0,0.7-0.1,0.9-0.4C20.1,19.1,20.1,18.3,19.6,17.7z"/>
</svg>
