<?xml version="1.0" encoding="utf-8"?>
<!-- Generator: Adobe Illustrator 21.1.0, SVG Export Plug-In . SVG Version: 6.00 Build 0)  -->
<svg version="1.1" id="Layer_1" xmlns="http://www.w3.org/2000/svg" xmlns:xlink="http://www.w3.org/1999/xlink" x="0px" y="0px"
	 viewBox="0 0 50 50" style="enable-background:new 0 0 50 50;" xml:space="preserve">
<style type="text/css">
	.st0{fill:#FF492C;}
</style>
<g>
	<path class="st0" d="M14.5,37.9v3.5l-9,5.1h9V50H0v-3.5l9-5.1H0v-3.5H14.5z"/>
	<path class="st0" d="M8.3,26.7v5.5h3.5v-6.5h2.7v10H0v-10h2.7v6.5h3v-5.5H8.3z"/>
	<path class="st0" d="M4.8,18.9L0,16.6v-4l7.2,4l7.3-4.2v4l-4.9,2.4l4.9,2.4v4l-7.3-4.1l-7.2,4v-4L4.8,18.9z"/>
	<path class="st0" d="M2.7,0v4.3h11.8v3.5H2.7v4.3H0V0H2.7z"/>
</g>
<polygon class="st0" points="44.8,19.8 25,0 25,10.4 39.6,25 25,39.7 25,50 50,25 "/>
</svg>
