<svg version="1.1" id="Layer_1" xmlns="http://www.w3.org/2000/svg" xmlns:xlink="http://www.w3.org/1999/xlink" x="0px" y="0px"
	 viewBox="0 0 128 128" style="enable-background:new 0 0 128 128;" xml:space="preserve">
<style type="text/css">
	.st0{fill:#008FDF;}
	.st1{opacity:0.35;clip-path:url(#SVGID_2_);fill:#1B4B8F;enable-background:new    ;}
	.st2{fill:#FFDAAF;}
	.st3{fill:#59515C;}
	.st4{fill:#2BC3EF;}
	.st5{fill:#00ACEB;}
	.st6{fill:#F5EBDC;}
	.st7{fill:#FFCD47;}
	.st8{fill:#F7A11C;}
	.st9{fill:#FFF1E5;}
	.st10{fill:#4B444E;}
</style>
<g>
	<circle class="st0" cx="64" cy="64" r="64"/>
	<g>
		<g>
			<defs>
				<circle id="SVGID_1_" cx="64" cy="64" r="63.9"/>
			</defs>
			<clipPath id="SVGID_2_">
				<use xlink:href="#SVGID_1_"  style="overflow:visible;"/>
			</clipPath>
			<polygon class="st1" points="34.6,103.7 58.8,127.9 128,128 127.9,58 94.1,24.3 90.4,26.8 62.3,24.2 57.8,23.6 53.5,19.4
				45.3,26.4 			"/>
		</g>
	</g>
	<g>
		<path class="st2" d="M52.4,26.8h-6.8c-0.9,0-1.6-0.7-1.6-1.6v-4.7c0-0.9,0.7-1.6,1.6-1.6h6.8c0.9,0,1.6,0.7,1.6,1.6v4.7
			C54,26.1,53.3,26.8,52.4,26.8z"/>
		<g>
			<path class="st3" d="M91.2,22.9H37.3c-2.3,0-3.9,2-3.9,4.4v73.1c0,2.3,1.5,4.4,3.9,4.4h56.9c0.9,0,0.9-0.4,0.9-1.1
				c0,0-1-1.2-1-2.1c0-1,0.6-2.8,1-3.4v-71C95.1,24.9,93.6,22.9,91.2,22.9z"/>
		</g>
		<rect x="33.4" y="60.1" class="st4" width="61.8" height="24.2"/>
		<rect x="33.4" y="60.1" class="st5" width="4.3" height="24.2"/>
		<g>
			<path class="st6" d="M95.1,98.1H37c-1.3,0-2.1,1.3-2.1,2.7v0.1c0,1.5,0.8,2.7,2.1,2.7h58.1c0-1.2-0.5-1.3-0.5-2.7v-0.1
				C94.6,99.4,95.1,99.2,95.1,98.1z"/>
		</g>
		<path class="st7" d="M86.1,105.6h-1.5c-0.6,0-1.1-0.5-1.1-1.1V22.9c0-0.6,0.5-1.1,1.1-1.1h1.5c0.6,0,1.1,0.5,1.1,1.1v81.7
			C87.2,105.2,86.7,105.6,86.1,105.6z"/>
		<g>
			<path class="st8" d="M83.5,98.1v6.5c0,0.7,0.5,1.2,1.1,1.2h1.5c0.6,0,1.1-0.5,1.1-1.2v-6.5H83.5z"/>
		</g>
		<g>
			<path class="st9" d="M75.3,73.6H43.6c-0.5,0-0.9-0.4-0.9-0.9l0,0c0-0.5,0.4-0.9,0.9-0.9h31.7c0.5,0,0.9,0.4,0.9,0.9l0,0
				C76.2,73.3,75.8,73.6,75.3,73.6z"/>
			<path class="st9" d="M57.7,68.8H43.4c-0.3,0-0.6-0.3-0.6-0.6v-0.6c0-0.3,0.3-0.6,0.6-0.6h14.4c0.3,0,0.6,0.3,0.6,0.6v0.6
				C58.3,68.6,58,68.8,57.7,68.8z"/>
			<path class="st9" d="M76.1,78.2H43.6c-0.5,0-0.9-0.4-0.9-0.9l0,0c0-0.5,0.4-0.9,0.9-0.9h32.5c0.5,0,0.9,0.4,0.9,0.9l0,0
				C77,77.9,76.6,78.2,76.1,78.2z"/>
		</g>
		<g>
			<path class="st10" d="M37.7,22.9h-0.3c-2.6,0-4,1.9-4,4.7v32.5h4.3V22.9z"/>
		</g>
		<g>
			<path class="st10" d="M33.4,84.3v16.4v0.1c0-2.2,1.8-3.9,4-3.9c0.1,0,0.2,0,0.3,0V84.3H33.4z M33.6,101.8
				c0.3,1.2,1.1,2.2,2.3,2.7C34.7,104,33.9,103,33.6,101.8z"/>
		</g>
	</g>
</g>
</svg>
