<svg version="1.1" id="Layer_1" xmlns="http://www.w3.org/2000/svg" xmlns:xlink="http://www.w3.org/1999/xlink" x="0px" y="0px"
	 viewBox="0 0 128 128" style="enable-background:new 0 0 128 128;" xml:space="preserve">
<style type="text/css">
	.st0{fill:#008FDF;}
	.st1{opacity:0.35;clip-path:url(#SVGID_2_);fill:#1B4B8F;enable-background:new    ;}
	.st2{fill:#C1CFEA;}
	.st3{fill:#1D7B3D;}
	.st4{fill:#2A9D48;}
	.st5{fill:#51B848;}
	.st6{fill:#7DC075;}
	.st7{fill:#E5EBF7;}
	.st8{fill:#195DAB;}
	.st9{fill:#2D8CCC;}
	.st10{fill:#2DC4F0;}
	.st11{fill:#87D5EE;}
	.st12{fill:#FDFEFF;}
	.st13{fill:#D22027;}
	.st14{fill:#F05234;}
	.st15{fill:#F89A1C;}
	.st16{fill:#FFCE04;}
	.st17{fill:#454B62;}
	.st18{fill:#7B7CBB;}
	.st19{fill:#373D56;}
	.st20{fill:#FFFFFF;}
</style>
<g id="Layer_1_1_">
	<g>
		<circle class="st0" cx="64" cy="64" r="64"/>
		<g>
			<g>
				<defs>
					<circle id="SVGID_1_" cx="64" cy="64" r="64"/>
				</defs>
				<clipPath id="SVGID_2_">
					<use xlink:href="#SVGID_1_"  style="overflow:visible;"/>
				</clipPath>
				<polygon class="st1" points="30.9,97.2 61.8,128 128,128 128,82.9 82.7,36.1 62,33.8 51.2,22.9 				"/>
			</g>
		</g>
		<g>
			<path class="st2" d="M106,95c0,1.7-1.3,3-3,3H33c-1.7,0-3-1.3-3-3V79c0-1.7,1.3-3,3-3h70c1.7,0,3,1.3,3,3V95z"/>
			<path class="st3" d="M93,93V81c0-1.1,0.9-2,2-2h5c1.1,0,2,0.9,2,2v12c0,1.1-0.9,2-2,2h-5C93.9,95,93,94.1,93,93z"/>
			<path class="st4" d="M80,93V81c0-1.1,0.9-2,2-2h5c1.1,0,2,0.9,2,2v12c0,1.1-0.9,2-2,2h-5C80.9,95,80,94.1,80,93z"/>
			<path class="st5" d="M67,93V81c0-1.1,0.9-2,2-2h5c1.1,0,2,0.9,2,2v12c0,1.1-0.9,2-2,2h-5C67.9,95,67,94.1,67,93z"/>
			<path class="st6" d="M54,93V81c0-1.1,0.9-2,2-2h5c1.1,0,2,0.9,2,2v12c0,1.1-0.9,2-2,2h-5C54.9,95,54,94.1,54,93z"/>
		</g>
		<g>
			<path class="st7" d="M40.1,100.9c-1.4,0.8-3.3,0.3-4.1-1.1l-8-13.9c-0.8-1.4-0.3-3.3,1.1-4.1l60.6-35c1.4-0.8,3.3-0.3,4.1,1.1
				l8,13.9c0.8,1.4,0.3,3.3-1.1,4.1L40.1,100.9z"/>
			<path class="st8" d="M89.6,66.6l-6-10.4c-0.6-1-0.2-2.2,0.7-2.7l4.3-2.5c1-0.6,2.2-0.2,2.7,0.7l6,10.4c0.6,1,0.2,2.2-0.7,2.7
				l-4.3,2.5C91.4,67.8,90.2,67.5,89.6,66.6z"/>
			<path class="st9" d="M78.4,73.1l-6-10.4c-0.6-1-0.2-2.2,0.7-2.7l4.3-2.5c1-0.6,2.2-0.2,2.7,0.7l6,10.4c0.6,1,0.2,2.2-0.7,2.7
				l-4.3,2.5C80.1,74.3,78.9,74,78.4,73.1z"/>
			<path class="st10" d="M67.1,79.5l-6-10.4c-0.6-1-0.2-2.2,0.7-2.7l4.3-2.5c1-0.6,2.2-0.2,2.7,0.7l6,10.4c0.6,1,0.2,2.2-0.7,2.7
				l-4.3,2.5C68.9,80.8,67.7,80.5,67.1,79.5z"/>
			<path class="st11" d="M55.8,86l-6-10.4c-0.6-1-0.2-2.2,0.7-2.7l4.3-2.5c1-0.6,2.2-0.2,2.7,0.7l6,10.4c0.6,1,0.2,2.2-0.7,2.7
				l-4.3,2.5C57.6,87.3,56.4,87,55.8,86z"/>
		</g>
		<g>
			<path class="st12" d="M47.5,99.7c-0.8,1.4-2.7,1.9-4.1,1.1l-13.8-8c-1.4-0.8-1.9-2.7-1.1-4.1l35.2-60.5c0.8-1.4,2.7-1.9,4.1-1.1
				l13.8,8c1.4,0.8,1.9,2.7,1.1,4.1L47.5,99.7z"/>
			<path class="st13" d="M73.3,45.3l-10.4-6c-1-0.6-1.3-1.8-0.7-2.7l2.5-4.3c0.6-1,1.8-1.3,2.7-0.7l10.4,6c1,0.6,1.3,1.8,0.7,2.7
				l-2.5,4.3C75.5,45.5,74.3,45.8,73.3,45.3z"/>
			<path class="st14" d="M66.8,56.5l-10.4-6c-1-0.6-1.3-1.8-0.7-2.7l2.5-4.3c0.6-1,1.8-1.3,2.7-0.7l10.4,6c1,0.6,1.3,1.8,0.7,2.7
				l-2.5,4.3C69,56.7,67.7,57.1,66.8,56.5z"/>
			<path class="st15" d="M60.3,67.8l-10.4-6c-1-0.6-1.3-1.8-0.7-2.7l2.5-4.3c0.6-1,1.8-1.3,2.7-0.7l10.4,6c1,0.6,1.3,1.8,0.7,2.7
				L63,67C62.4,68,61.2,68.3,60.3,67.8z"/>
			<path class="st16" d="M53.7,79l-10.4-6c-1-0.6-1.3-1.8-0.7-2.7l2.5-4.3c0.6-1,1.8-1.3,2.7-0.7l10.4,6c1,0.6,1.3,1.8,0.7,2.7
				l-2.5,4.3C55.9,79.2,54.7,79.6,53.7,79z"/>
		</g>
		<g>
			<path class="st17" d="M52,95c0,1.7-1.3,3-3,3H33c-1.7,0-3-1.3-3-3V25c0-1.7,1.3-3,3-3h16c1.7,0,3,1.3,3,3V95z"/>
			<g>
				<path class="st18" d="M41.1,92.5c-1.9,0-3.5-1.6-3.5-3.5s1.6-3.5,3.5-3.5s3.5,1.6,3.5,3.5S43,92.5,41.1,92.5z"/>
				<g>
					<path class="st19" d="M41.1,86.5c1.4,0,2.5,1.1,2.5,2.5s-1.1,2.5-2.5,2.5s-2.5-1.1-2.5-2.5S39.7,86.5,41.1,86.5 M41.1,84.5
						c-2.5,0-4.5,2-4.5,4.5s2,4.5,4.5,4.5s4.5-2,4.5-4.5S43.6,84.5,41.1,84.5L41.1,84.5z"/>
				</g>
			</g>
			<g>
				<path class="st20" d="M37,77.1c0-0.5,0.1-0.9,0.2-1.3c0.1-0.3,0.3-0.6,0.6-0.9c0.2-0.2,0.5-0.4,0.8-0.5s0.6-0.2,0.9-0.2
					c0.3,0,0.6,0.1,0.9,0.2c0.3,0.1,0.6,0.3,0.8,0.5c0.2,0.2,0.4,0.5,0.6,0.9c0.1,0.3,0.2,0.8,0.2,1.3v1.8h2.9v1.8h-8L37,77.1
					L37,77.1z M40.7,77.5c0-0.2,0-0.4,0-0.6c0-0.2-0.1-0.3-0.2-0.5c-0.1-0.1-0.2-0.3-0.4-0.3C40,76,39.8,76,39.5,76s-0.5,0-0.6,0.1
					c-0.2,0.1-0.3,0.2-0.4,0.3c-0.1,0.1-0.1,0.3-0.2,0.5c0,0.2,0,0.4,0,0.6v1.4h2.4L40.7,77.5L40.7,77.5z"/>
				<path class="st20" d="M37,70.1l8-3v1.8l-1.8,0.6v3l1.8,0.6v1.8l-8-3V70.1z M41.9,70l-2.9,1v0l2.9,1C41.9,72,41.9,70,41.9,70z"/>
				<path class="st20" d="M37,64.7l5.3-3.3v0H37v-1.6h8v1.8l-5.3,3.3v0h5.3v1.6h-8V64.7z"/>
				<path class="st20" d="M38.4,58.8H37v-6.5h1.5v2.4h6.5v1.7h-6.5V58.8z"/>
				<path class="st20" d="M39.3,51.4c-0.5-0.2-1-0.4-1.3-0.8s-0.7-0.7-0.9-1.2c-0.2-0.5-0.3-1-0.3-1.6c0-0.6,0.1-1.2,0.3-1.7
					c0.2-0.5,0.5-0.9,0.9-1.2s0.8-0.6,1.3-0.8c0.5-0.2,1.1-0.3,1.7-0.3c0.6,0,1.1,0.1,1.6,0.3c0.5,0.2,0.9,0.4,1.3,0.8
					s0.7,0.7,0.9,1.2c0.2,0.5,0.3,1,0.3,1.7c0,0.6-0.1,1.2-0.3,1.6c-0.2,0.5-0.5,0.9-0.9,1.2c-0.4,0.3-0.8,0.6-1.3,0.8
					c-0.5,0.2-1,0.3-1.6,0.3C40.4,51.7,39.8,51.6,39.3,51.4z M42,49.8c0.3-0.1,0.6-0.2,0.9-0.4c0.3-0.2,0.5-0.4,0.6-0.7
					c0.2-0.3,0.2-0.6,0.2-1c0-0.4-0.1-0.7-0.2-1c-0.2-0.3-0.4-0.5-0.6-0.7c-0.3-0.2-0.5-0.3-0.9-0.4s-0.6-0.1-1-0.1
					c-0.3,0-0.7,0-1,0.1c-0.3,0.1-0.6,0.2-0.9,0.4c-0.3,0.2-0.5,0.4-0.6,0.7c-0.2,0.3-0.2,0.6-0.2,1c0,0.4,0.1,0.7,0.2,1
					c0.2,0.3,0.4,0.5,0.6,0.7c0.3,0.2,0.5,0.3,0.9,0.4c0.3,0.1,0.7,0.1,1,0.1C41.3,49.9,41.6,49.9,42,49.8z"/>
				<path class="st20" d="M37,40.9l5.3-3.3v0H37v-1.6h8v1.8L39.6,41v0h5.3v1.6h-8V40.9z"/>
				<path class="st20" d="M37,28.5h1.5v4.2h1.7v-3.9h1.4v3.9h2v-4.3h1.5v6h-8C37,34.4,37,28.5,37,28.5z"/>
			</g>
		</g>
	</g>
</g>
<g id="Layer_2">
</g>
</svg>
