<?xml version="1.0" encoding="utf-8"?>
<!-- Generator: Adobe Illustrator 19.1.0, SVG Export Plug-In . SVG Version: 6.00 Build 0)  -->
<svg version="1.1" id="Objects" xmlns="http://www.w3.org/2000/svg" xmlns:xlink="http://www.w3.org/1999/xlink" x="0px" y="0px"
	 viewBox="0 0 343.8 87.8" style="enable-background:new 0 0 343.8 87.8;" xml:space="preserve">
<style type="text/css">
	.st0{fill-rule:evenodd;clip-rule:evenodd;fill:#b2b2b2;}
	.st1{fill:#b2b2b2;}
</style>
<g>
	<path class="st0" d="M50.4,69.8c0.3,0,0.3,0.2,0.2,0.5c-0.2,0.9-0.1,1.9-0.3,2.8c-0.2,1.2-0.1,2.4-0.6,3.5
		c-0.2,0.4-0.5,0.7-0.6,1.1c-0.1,0.5,0,1,0,1.4c0,0.6,0,1.2,0,1.8c0,0.6,0,1.3,0.2,1.9c0.3,0.7,0.9,1.3,1.5,1.8
		c0.3,0.2,0.6,0.7,0.6,1c0,0.5-0.5,0.7-0.9,0.7c-0.5,0.1-1.1,0.1-1.6,0.1c-0.8,0-1.7,0.1-2.4-0.1c-0.4-0.1-1,0-1.4-0.5
		c-0.4-0.5-0.1-0.9-0.1-1.4c0-1.1,0.1-2.1,0.1-3.2c0-0.5-0.5-0.9-0.7-1.4c-0.7-1-0.9-2.2-0.9-3.5c0.1,0.1,0.2,0.2,0.2,0.2
		c-0.1-0.8-0.1-1.8-0.4-2.6c-0.4-1.6-0.9-3.3-1.4-4.9c-0.3-1-0.6-2.1-0.9-3.1c-0.1-0.6-0.2-1.3-0.2-1.9c-0.1-0.6-0.2-1.2-0.3-1.8
		c-0.1-0.4-0.4-0.8-0.7-1.2c0,0-0.2,0-0.3,0c-0.4,0.3-0.9,0.4-1.3,0.5c-1.2,0.4-2.5,0.4-3.8,0.5c-0.3,0-0.6-0.1-0.9-0.1
		c0,0.2-0.1,0.3-0.1,0.6C33,62.4,33,62.3,32.9,62c-0.1,0.2-0.2,0.3-0.2,0.4c-0.1-0.1-0.2-0.2-0.3-0.3c-0.1,0.1-0.2,0.3-0.3,0.5
		c0-0.2,0-0.4,0-0.5c-0.5-0.1-1-0.1-1.6-0.2c0,0,0,0.2,0,0.3c-0.1,0-0.1,0-0.1,0c-0.4-0.7-1.1-0.4-1.7-0.6c-0.5-0.2-1.1-0.4-1.7-0.5
		c0,0-0.1,0.1-0.2,0.2c-0.1-0.1-0.3-0.2-0.4-0.3c0,0,0,0,0,0c-0.3-0.2-0.6-0.3-0.9-0.5c-0.1,0.1-0.1,0.2-0.2,0.3
		c-0.1-0.2-0.1-0.3-0.2-0.5c0,0-0.1,0-0.1,0c0,0.1,0,0.2,0,0.3c-0.1,0-0.1,0-0.1-0.1c0-0.3-0.2-0.4-0.5-0.5
		c-0.6-0.2-1.2-0.6-1.7-0.9c-0.4-0.2-0.4,0-0.5,0.2c-0.4,1.5-0.7,3-1.2,4.4c-0.3,0.9-0.8,1.8-1.2,2.7c-0.3,0.6-0.5,1.2-0.8,1.8
		c-0.1,0.2-0.3,0.4-0.4,0.6c-0.3,0.6-0.6,1.2-0.8,1.8c0-0.1-0.1-0.2-0.1-0.4c-0.3,0.7-0.6,1.2-0.9,1.8c0,0-0.1,0-0.1,0
		c0-0.1,0-0.2,0-0.3c-0.1,0-0.1,0-0.2,0c-0.2,0.7-0.3,1.3-0.5,2c-0.2,0.7-0.4,1.3-0.8,1.9c-0.4,0.7-0.9,1.2-1.3,1.9
		c-0.2,0.4-0.1,0.9-0.2,1.4c0,0.6,0,1.2,0,1.8c0,0.8-0.1,1.7-0.1,2.5c0,0.5,0.2,1,0.8,1.1c0.4,0.1,0.8,0.5,1.1,0.8
		c0.5,0.3,0.9,0.7,1.4,0.9c0.4,0.2,0.6,0.5,0.4,0.9c-0.1,0.4-0.3,0.7-0.9,0.7c-0.7,0-1.4,0.1-2.1,0.1c-0.9-0.1-1.9-0.2-2.8-0.5
		c-0.4-0.1-0.7-0.7-0.8-1.2c-0.5-1.3-0.7-2.8-1.2-4.1c-0.4-1.1-1.1-2.2-1.6-3.3c-0.3-0.6-0.5-1.3-0.6-1.9c-0.1-1.3-0.1-2.7-0.1-4
		c0-0.9,0.1-1.7,0.5-2.5c0.1-0.2,0.2-0.5,0.2-0.8c0.1-1.5-0.1-2.9-0.4-4.3c-0.1-0.6-0.1-1.2-0.2-1.8c-0.1-0.3-0.3-0.6-0.4-0.9
		c0-0.1-0.1-0.1-0.2-0.1c-0.1-0.7-0.7-1.2-0.9-1.8c-0.2-0.4-0.4-0.7-0.7-1c-0.8-0.8-1.7-1.5-2.4-2.4c-1.1-1.4-1.8-3-2.2-4.8
		C0,50.7,0,49,0,47.3c0-1.1,0.4-2.2,1.1-3.1c0.5-0.7,1.1-1.4,1.6-2.2c0.2-0.3,0.3-0.7,0.5-0.9c0.7-0.9,1.4-1.8,2.2-2.6
		c0.5-0.5,1.3-0.8,2-1.1c0.7-0.4,1.5-0.9,2.2-1.3c0.5-0.3,1-0.5,1.6-0.7c0.8-0.3,1.5-0.7,2.3-0.9c1.4-0.3,2.8-0.5,4.3-0.8
		c1.1-0.2,2.2-0.3,3.3-0.4c0.5,0,1,0,1.4,0c0.5,0,1,0,1.5,0c0.5,0,1,0.1,1.5,0.1c0.3,0,0.6,0,0.9,0c1.1,0,2.2,0.1,3.4,0.1
		c1.1,0,2.2,0.2,3.2,0.2c1.9,0,3.6,0.7,5.3,1.2c0.9,0.2,1.7,0.5,2.6,0.7c0.5,0.1,1.1,0.2,1.6,0.3c0.9,0.1,1.8-0.6,2.2-1.4
		c0.6-1.3,0.9-2.8,0.9-4.2c0-1.5-0.1-2.9-0.2-4.4c-0.1-1-0.1-2-0.2-2.9c-0.1-1.6-0.3-3.3-0.4-4.9c-0.1-1-0.2-1.9-0.2-2.9
		c0-2.2,0.1-4.4,0.2-6.6c0.1-1.7,0.9-3.1,2.2-4.2c0.4-0.4,0.9-0.7,1.4-1.1c0.4-0.3,0.7-0.8,1-1.1c0.5-0.5,1.1-1,1.7-1.5
		c0.4-0.3,0.8-0.5,1.2-0.7c0.4-0.2,0.7,0.1,0.7,0.5c0,0.5,0,1,0,1.5c0,0.3,0.1,0.5,0.4,0.6c0.6,0.1,1.1,0.2,1.7,0.4
		c0.6,0.2,1.2,0.3,1.8,0.4c0.6,0.2,1.1,0.7,1.8,1c1,0.4,1.7,1.2,2.2,2.1c0.2,0.4,0.1,1,0,1.5c0,0.2-0.1,0.3,0.2,0.4
		C61.6,8.8,62.4,9,63,9.4c0.3,0.2,1.1,0.2,0.9,1c0.4,0.2,0.3,0.6,0.4,0.9c0.1,0.2,0,0.3-0.1,0.5c-0.6,0.7-1.2,1.4-2,1.8
		c-0.4,0.2-0.8,0.5-1.2,0.7c-0.2,0.1-0.5-0.1-0.6,0c-0.1,0.1-0.3,0.3-0.3,0.5c0,1,0.1,1.9,0,2.9c0,1-0.1,2-0.2,2.9
		c0,2.4,0,4.8-0.1,7.2c0,1,0.4,1.9,0.8,2.9c0.3,0.8,0.5,1.7,0.6,2.6c0.1,1.8,0.2,3.6,0.2,5.4c0,1.3,0.1,2.5,0,3.8
		c-0.1,1.3-0.2,2.7-0.6,4c-0.5,1.5-0.7,3.1-1.3,4.6c-0.5,1.3-1.2,2.4-1.8,3.6c-0.8,1.5-1.5,2.9-2.4,4.3c-0.3,0.5-0.7,1-1.1,1.5
		c-0.3,0.4-0.6,0.7-0.9,1.1c-0.1,0.1-0.3,0.2-0.4,0.3c-0.5,0.6-1,1.2-1.5,1.9c-0.1,0.1-0.1,0.1-0.2,0.2c-0.3,0.3-0.5,0.7-0.5,1.2
		C50.5,66.7,50.4,68.2,50.4,69.8z"/>
</g>
<g>
	<path class="st1" d="M86.1,33.3h12.2l19.5,46.1h-13.6l-3.3-8.2H83.2l-3.3,8.2H66.6L86.1,33.3z M97.2,61.3l-5.1-13l-5.2,13H97.2z"/>
	<path class="st1" d="M121.5,33.7h12.7v34.7h22.2v11.1h-34.9V33.7z"/>
	<path class="st1" d="M160.6,33.7h19.7c11.5,0,19,6,19,16v0.1c0,10.9-8.3,16.6-19.6,16.6h-6.3v13.1h-12.7V33.7z M179.4,56.4
		c4.4,0,7.3-2.4,7.3-6v-0.1c0-3.9-2.8-6-7.3-6h-6v12.1H179.4z"/>
	<path class="st1" d="M216,33.3h12.2l19.5,46.1h-13.6l-3.3-8.2h-17.7l-3.3,8.2h-13.3L216,33.3z M227.1,61.3l-5.1-13l-5.2,13H227.1z"
		/>
	<path class="st1" d="M247.2,56.7v-0.1c0-13.3,10.2-23.8,24.1-23.8c9.4,0,15.4,3.9,19.4,9.5l-9.6,7.4c-2.6-3.2-5.6-5.4-10-5.4
		c-6.4,0-10.9,5.5-10.9,12.2v0.1c0,6.9,4.5,12.2,10.9,12.2c4.8,0,7.6-2.2,10.3-5.6l9.6,6.8c-4.3,6-10.1,10.3-20.2,10.3
		C257.7,80.4,247.2,70.4,247.2,56.7z"/>
	<path class="st1" d="M311.2,33.3h12.2l19.5,46.1h-13.6l-3.3-8.2h-17.7l-3.3,8.2h-13.3L311.2,33.3z M322.3,61.3l-5.1-13l-5.2,13
		H322.3z"/>
</g>
</svg>
