<?xml version="1.0" encoding="utf-8"?>
<!-- Generator: Adobe Illustrator 18.0.0, SVG Export Plug-In . SVG Version: 6.00 Build 0)  -->
<!DOCTYPE svg PUBLIC "-//W3C//DTD SVG 1.1//EN" "http://www.w3.org/Graphics/SVG/1.1/DTD/svg11.dtd">
<svg version="1.1" id="Layer_1" xmlns="http://www.w3.org/2000/svg" xmlns:xlink="http://www.w3.org/1999/xlink" x="0px" y="0px"
	 width="128px" height="128px" viewBox="0 0 128 128" style="enable-background:new 0 0 128 128;" xml:space="preserve">
<style type="text/css">
	.st0{fill:#B7E3EE;}
	.st1{clip-path:url(#SVGID_2_);fill:#8ACADD;}
	.st2{fill:#206B8E;}
	.st3{fill:none;stroke:#406B90;stroke-width:8;stroke-miterlimit:10;}
	.st4{clip-path:url(#SVGID_4_);fill:#1E6282;}
	.st5{fill:#00A5BE;}
	.st6{fill:#00597A;}
	.st7{fill:#FBB116;}
	.st8{fill:#FFCA05;}
	.st9{fill:#78C5CF;}
</style>
<g>
	<circle class="st0" cx="64" cy="64" r="64"/>
	<g>
		<defs>
			<circle id="SVGID_1_" cx="64" cy="64" r="64"/>
		</defs>
		<clipPath id="SVGID_2_">
			<use xlink:href="#SVGID_1_"  style="overflow:visible;"/>
		</clipPath>
		<polygon class="st1" points="23.7,101.2 50.7,128 128,128 128,66.6 103.8,42.3 95.4,41.5 81.1,27.2 76.2,24.8 69.3,21.4 
			50.5,26.2 		"/>
	</g>
	<path class="st2" d="M105,97c0,3.3-2.7,6-6,6H28c-3.3,0-6-2.7-6-6V46c0-3.3,2.7-6,6-6h71c3.3,0,6,2.7,6,6V97z"/>
	<circle class="st3" cx="64.2" cy="43.1" r="19.2"/>
	<g>
		<defs>
			<path id="SVGID_3_" d="M105,97c0,3.3-2.7,6-6,6H28c-3.3,0-6-2.7-6-6V46c0-3.3,2.7-6,6-6h71c3.3,0,6,2.7,6,6V97z"/>
		</defs>
		<clipPath id="SVGID_4_">
			<use xlink:href="#SVGID_3_"  style="overflow:visible;"/>
		</clipPath>
		<polygon class="st4" points="23.2,70.1 58.2,105 106,105 106,66 		"/>
	</g>
	<path class="st5" d="M105,67.5V46c0-3.3-2.7-6-6-6H28c-3.3,0-6,2.7-6,6v21.5c0,2.2,1.8,4,4,4h75C103.2,71.5,105,69.7,105,67.5z"/>
	<path class="st6" d="M38.7,39.1h-5.3c-0.7,0-1.2,0.6-1.2,1.2v25.5c0,0.7,0.6,1.2,1.2,1.2h5.3c0.7,0,1.2-0.6,1.2-1.2V40.3
		C39.9,39.6,39.4,39.1,38.7,39.1z"/>
	<path class="st6" d="M95.4,39.1h-5.3c-0.7,0-1.2,0.6-1.2,1.2v25.5c0,0.7,0.6,1.2,1.2,1.2h5.3c0.7,0,1.2-0.6,1.2-1.2V40.3
		C96.7,39.6,96.1,39.1,95.4,39.1z"/>
	<g>
		<path class="st7" d="M33.1,77.3c-1,0-1.7-0.8-1.7-1.7v-8c0-1,0.8-1.7,1.7-1.7h5.8c1,0,1.7,0.8,1.7,1.7v8c0,1-0.8,1.7-1.7,1.7H33.1
			z"/>
		<g>
			<path class="st8" d="M38.9,66.7c0.4,0,0.7,0.3,0.7,0.7v8c0,0.4-0.3,0.7-0.7,0.7h-5.8c-0.4,0-0.7-0.3-0.7-0.7v-8
				c0-0.4,0.3-0.7,0.7-0.7H38.9 M38.9,64.7h-5.8c-1.5,0-2.7,1.2-2.7,2.7v8c0,1.5,1.2,2.7,2.7,2.7h5.8c1.5,0,2.7-1.2,2.7-2.7v-8
				C41.6,66,40.4,64.7,38.9,64.7L38.9,64.7z"/>
		</g>
	</g>
	<g>
		<path class="st7" d="M89.9,77.3c-0.9,0-1.7-0.8-1.7-1.7v-8.1c0-0.9,0.8-1.7,1.7-1.7h5.7c0.9,0,1.7,0.8,1.7,1.7v8.1
			c0,0.9-0.8,1.7-1.7,1.7H89.9z"/>
		<g>
			<path class="st8" d="M95.6,66.7c0.4,0,0.7,0.3,0.7,0.7v8.1c0,0.4-0.3,0.7-0.7,0.7h-5.7c-0.4,0-0.7-0.3-0.7-0.7v-8.1
				c0-0.4,0.3-0.7,0.7-0.7H95.6 M95.6,64.7h-5.7c-1.5,0-2.7,1.2-2.7,2.7v8.1c0,1.5,1.2,2.7,2.7,2.7h5.7c1.5,0,2.7-1.2,2.7-2.7v-8.1
				C98.3,66,97.1,64.7,95.6,64.7L95.6,64.7z"/>
		</g>
	</g>
	<ellipse class="st9" cx="63.5" cy="56" rx="10.1" ry="5.6"/>
</g>
</svg>
