<svg xmlns="http://www.w3.org/2000/svg" xmlns:xlink="http://www.w3.org/1999/xlink" viewBox="1000 1353.062 116.938 116.938"><defs><style>.a{fill:#555861;}.b{clip-path:url(#a);}.c{fill:#484c54;}.c,.i,.l,.m,.n,.q{fill-rule:evenodd;}.d{fill:#434343;}.e{fill:#595a5a;}.f{fill:#b3b3b3;}.g{fill:#989898;}.h{fill:#3a3a39;}.i,.k{fill:#b72025;}.j{fill:#ef4538;}.l{fill:#212121;}.m{fill:#0f0f0f;}.n,.p{fill:#a91f23;}.o{fill:#eb342a;}.q{fill:#131313;}</style><clipPath id="a"><circle cx="58.469" cy="58.469" r="58.469"/></clipPath></defs><g transform="translate(1000 1353.062)"><g transform="translate(0 0)"><circle class="a" cx="58.469" cy="58.469" r="58.469"/></g><g transform="translate(0 0)"><g class="b"><g transform="translate(89.922 48.18)"><path class="c" d="M184.4,98.8l64.808,64.857.146.1.049.146.1.146.1.146.049.2.049.146.049.2v.39l-64.857-64.857v-.39l-.049-.2-.049-.146-.049-.146-.1-.2-.049-.146-.1-.1Z" transform="translate(-184.4 -98.8)"/></g><g transform="translate(90.41 49.642)"><path class="c" d="M185.4,101.8l64.857,64.857h0v.049h0L185.4,101.849h0V101.8Z" transform="translate(-185.4 -101.8)"/></g><g transform="translate(88.996 49.691)"><path class="c" d="M183.914,101.9l64.857,64.857v.2l-.049.146v.2l-.049.146-.1.2-.049.146-.1.146-.1.1-.1.146-.1.1-.1.1-.146.1-.146.049-.1.049h-.293L182.5,103.753l.146-.049h.146l.146-.049.1-.049.146-.1.1-.1.1-.1.146-.1.049-.146.1-.146.1-.146.049-.146.049-.2.049-.146v-.39Z" transform="translate(-182.5 -101.9)"/></g><g transform="translate(74.366 43.352)"><path class="c" d="M152.5,88.9l64.857,64.808v1.17L152.5,90.022Z" transform="translate(-152.5 -88.9)"/></g><g transform="translate(74.366 44.473)"><path class="c" d="M152.5,91.2l64.857,64.857v3.267L152.5,94.467Z" transform="translate(-152.5 -91.2)"/></g><g transform="translate(74.366 51.544)"><path class="c" d="M152.5,105.7l64.857,64.808v6.925L152.5,112.625Z" transform="translate(-152.5 -105.7)"/></g><g transform="translate(74.366 58.469)"><path class="c" d="M152.5,119.9l64.857,64.808v6.973L152.5,126.825Z" transform="translate(-152.5 -119.9)"/></g><g transform="translate(74.366 51.544)"><path class="c" d="M157.523,105.7l64.857,64.808h-5.023L152.5,105.7Z" transform="translate(-152.5 -105.7)"/></g><g transform="translate(90.41 67.295)"><path class="c" d="M185.4,138l64.857,64.808v.049h0L185.4,138.049V138Z" transform="translate(-185.4 -138)"/></g><g transform="translate(88.996 67.344)"><path class="c" d="M183.914,138.1l64.857,64.808v.2l-.049.2v.2l-.049.146-.1.146-.049.146-.1.146-.1.146-.1.146-.1.1-.1.1-.146.049-.146.049-.1.049-.146.049h-.146L182.5,139.9h.293l.146-.049.1-.1.146-.049.1-.1.1-.1.146-.146.049-.1.1-.146.1-.146.049-.2.049-.146.049-.2V138.1Z" transform="translate(-182.5 -138.1)"/></g><g transform="translate(79.389 69.148)"><path class="c" d="M172.407,141.8l64.857,64.857h-9.607L162.8,141.8Z" transform="translate(-162.8 -141.8)"/></g><g transform="translate(74.366 69.148)"><path class="c" d="M157.523,141.8l64.857,64.857h-5.023L152.5,141.8Z" transform="translate(-152.5 -141.8)"/></g><g transform="translate(74.366 69.148)"><path class="c" d="M152.5,141.8l64.857,64.857v3.267L152.5,145.067Z" transform="translate(-152.5 -141.8)"/></g><g transform="translate(74.366 72.416)"><path class="c" d="M152.5,148.5l64.857,64.857v1.17L152.5,149.67Z" transform="translate(-152.5 -148.5)"/></g><g transform="translate(73.245 73.586)"><path class="c" d="M151.322,150.9l64.857,64.857h-1.122L150.2,150.9Z" transform="translate(-150.2 -150.9)"/></g><g transform="translate(71.782 73.586)"><path class="c" d="M148.663,150.9l64.857,64.857h-1.512L147.2,150.9Z" transform="translate(-147.2 -150.9)"/></g><g transform="translate(69.246 73.586)"><path class="c" d="M144.536,150.9l64.808,64.857h-2.487L142,150.9Z" transform="translate(-142 -150.9)"/></g><g transform="translate(66.808 73.586)"><path class="c" d="M139.438,150.9,204.3,215.757h-2.438L137,150.9Z" transform="translate(-137 -150.9)"/></g><g transform="translate(64.272 73.586)"><path class="c" d="M134.336,150.9l64.857,64.857h-2.536L131.8,150.9Z" transform="translate(-131.8 -150.9)"/></g><g transform="translate(61.687 73.586)"><path class="c" d="M129.085,150.9l64.857,64.857h-2.585L126.5,150.9Z" transform="translate(-126.5 -150.9)"/></g><g transform="translate(59.152 73.586)"><path class="c" d="M123.836,150.9l64.857,64.857h-2.536L121.3,150.9Z" transform="translate(-121.3 -150.9)"/></g><g transform="translate(56.713 73.586)"><path class="c" d="M118.738,150.9,183.6,215.757h-2.438L116.3,150.9Z" transform="translate(-116.3 -150.9)"/></g><g transform="translate(54.812 73.586)"><path class="c" d="M114.3,150.9l64.857,64.857h-1.951L112.4,150.9Z" transform="translate(-112.4 -150.9)"/></g><g transform="translate(54.178 73.586)"><path class="c" d="M111.734,150.9l64.808,64.857h-.488l-.1-.049L111.1,150.9h.634Z" transform="translate(-111.1 -150.9)"/></g><g transform="translate(26.479 60.858)"><path class="c" d="M62.3,124.8l64.857,64.857h-8L54.3,124.8Z" transform="translate(-54.3 -124.8)"/></g><g transform="translate(34.916 63.004)"><path class="c" d="M78.232,129.688l64.857,64.857h-5.657l-.146-.049-.2-.049-.146-.049-.1-.049-.146-.1-.146-.1-.1-.1L71.6,129.2l.146.1.1.1.146.1.146.049.146.049.146.049.146.049h5.657Z" transform="translate(-71.6 -129.2)"/></g><g transform="translate(45.546 69.831)"><path class="c" d="M102.031,146.955l64.857,64.808h-.341l-.341-.049h-.341l-.293-.049-.341-.049-.341-.1-.341-.049-.293-.1-.341-.049-.293-.1-.341-.146-.293-.1-.293-.1-.341-.146-.293-.1-.293-.146-.293-.146-.293-.2-.293-.146-.244-.146-.293-.2-.293-.2-.244-.146-.293-.2-.244-.2-.244-.244-.293-.2-.244-.244-.244-.2L93.4,143.2l.244.244.293.2.244.2.244.244.244.2.293.2.244.2.293.146.293.2.293.146.244.2.293.146.293.146.293.146.341.1.293.146.293.1.341.146.293.1.293.1.341.1.341.049.293.1.341.049.341.049.341.049.293.049h.341Z" transform="translate(-93.4 -143.2)"/></g><g transform="translate(79.389 51.544)"><path class="c" d="M172.407,105.7l64.857,64.808h-9.607L162.8,105.7Z" transform="translate(-162.8 -105.7)"/></g><g transform="translate(89.922 65.832)"><path class="c" d="M184.4,135l64.808,64.857.146.1.049.146.1.146.1.146.049.146.049.2.049.2v.341l-64.857-64.808v-.39l-.049-.2-.049-.146-.049-.2-.1-.146-.049-.146-.1-.146Z" transform="translate(-184.4 -135)"/></g><g transform="translate(26.479 43.401)"><path class="c" d="M102.187,93.34h14.629c.78,0,1.414.829,1.414,1.9v.049a1.679,1.679,0,0,1-1.414,1.853H102.187v13.849h14.629c.78,0,1.414.829,1.414,1.9v.049a1.679,1.679,0,0,1-1.414,1.853H102.187v4.438H82.047a13.529,13.529,0,0,1-9.314-4.438,15.631,15.631,0,0,1-3.316-5.657H63.858a1.624,1.624,0,0,1-1.609-1.609v-1.024H54.3V101.63h8v-1.122a1.467,1.467,0,0,1,1.463-1.463h5.657a14.774,14.774,0,0,1,3.316-5.608A13.33,13.33,0,0,1,82.047,89h20.14v4.34Z" transform="translate(-54.3 -89)"/></g></g></g><g transform="translate(26.479 56.031)"><rect class="d" width="9.558" height="4.876"/></g><g transform="translate(26.479 56.031)"><rect class="e" width="9.558" height="2.438"/></g><g transform="translate(26.479 58.469)"><rect class="d" width="9.558" height="2.438"/></g><g transform="translate(70.611 47.741)"><path class="f" d="M146.214,101.7c-.78,0-1.414-.829-1.414-1.9s.634-1.9,1.414-1.9h16.97c.78,0,1.414.829,1.414,1.9s-.634,1.9-1.414,1.9Z" transform="translate(-144.8 -97.9)"/></g><g transform="translate(70.611 47.741)"><path class="d" d="M146.214,101.7c-.78,0-1.414-.829-1.414-1.9s.634-1.9,1.414-1.9h7.363v3.755h-7.363Z" transform="translate(-144.8 -97.9)"/></g><g transform="translate(70.611 49.691)"><path class="g" d="M146.214,103.753A1.679,1.679,0,0,1,144.8,101.9h19.847a1.679,1.679,0,0,1-1.414,1.853Z" transform="translate(-144.8 -101.9)"/></g><g transform="translate(70.611 49.691)"><path class="h" d="M146.214,103.753A1.679,1.679,0,0,1,144.8,101.9h8.826v1.853Z" transform="translate(-144.8 -101.9)"/></g><g transform="translate(70.611 65.345)"><path class="f" d="M146.214,137.8c-.78,0-1.414-.829-1.414-1.9s.634-1.9,1.414-1.9h16.97c.78,0,1.414.829,1.414,1.9s-.634,1.9-1.414,1.9Z" transform="translate(-144.8 -134)"/></g><g transform="translate(70.611 65.345)"><path class="d" d="M146.214,137.8c-.78,0-1.414-.829-1.414-1.9s.634-1.9,1.414-1.9h7.363v3.755h-7.363Z" transform="translate(-144.8 -134)"/></g><g transform="translate(70.611 67.295)"><path class="g" d="M146.214,139.853A1.679,1.679,0,0,1,144.8,138h19.847a1.679,1.679,0,0,1-1.414,1.853Z" transform="translate(-144.8 -138)"/></g><g transform="translate(70.611 67.295)"><path class="h" d="M146.214,139.853A1.679,1.679,0,0,1,144.8,138h8.826v1.853Z" transform="translate(-144.8 -138)"/></g><g transform="translate(34.428 53.397)"><path class="i" d="M72.112,109.5H83.23v10.094H72.209a1.624,1.624,0,0,1-1.609-1.609v-7.022A1.544,1.544,0,0,1,72.112,109.5Z" transform="translate(-70.6 -109.5)"/></g><g transform="translate(40.816 43.352)"><path class="j" d="M97.7,88.9H117.25v30.283H97.7a13.513,13.513,0,0,1-9.9-4.438,15.97,15.97,0,0,1,0-21.359A13.221,13.221,0,0,1,97.7,88.9Z" transform="translate(-83.7 -88.9)"/></g><g transform="translate(54.226 63.492)"><path class="k" d="M128.755,140.294H126.22v-8.826a1.291,1.291,0,0,1,1.268-1.268h0a1.291,1.291,0,0,1,1.268,1.268v8.826Zm-4.974,0h-2.536v-8.826a1.291,1.291,0,0,1,1.268-1.268h0a1.291,1.291,0,0,1,1.268,1.268v8.826Zm-5.12,0h-2.536v-8.826a1.291,1.291,0,0,1,1.268-1.268h0a1.291,1.291,0,0,1,1.268,1.268v8.826Zm-4.974,0H111.2v-8.826a1.291,1.291,0,0,1,1.268-1.268h0a1.291,1.291,0,0,1,1.268,1.268v8.826Z" transform="translate(-111.2 -130.2)"/></g><g transform="translate(54.226 43.352)"><path class="k" d="M128.755,88.9H126.22v8.826a1.291,1.291,0,0,0,1.268,1.268h0a1.291,1.291,0,0,0,1.268-1.268V88.9Zm-4.974,0h-2.536v8.826a1.291,1.291,0,0,0,1.268,1.268h0a1.291,1.291,0,0,0,1.268-1.268V88.9Zm-5.12,0h-2.536v8.826a1.291,1.291,0,0,0,1.268,1.268h0a1.291,1.291,0,0,0,1.268-1.268V88.9Zm-4.974,0H111.2v8.826a1.291,1.291,0,0,0,1.268,1.268h0a1.291,1.291,0,0,0,1.268-1.268V88.9Z" transform="translate(-111.2 -88.9)"/></g><g transform="translate(55.641 55.641)"><path class="i" d="M116.928,119.757a2.828,2.828,0,1,1,2.828-2.828A2.83,2.83,0,0,1,116.928,119.757Z" transform="translate(-114.1 -114.1)"/></g><g transform="translate(57.152 57.152)"><path class="l" d="M118.517,119.833a1.317,1.317,0,1,1,1.317-1.317A1.311,1.311,0,0,1,118.517,119.833Z" transform="translate(-117.2 -117.2)"/></g><g transform="translate(58.274 57.445)"><path class="m" d="M119.646,117.8h0a.129.129,0,0,1,.146.146V119.7a.129.129,0,0,1-.146.146h0a.129.129,0,0,1-.146-.146v-1.756A.156.156,0,0,1,119.646,117.8Z" transform="translate(-119.5 -117.8)"/></g><g transform="translate(57.396 58.323)"><path class="m" d="M117.7,119.746h0a.129.129,0,0,1,.146-.146H119.6a.129.129,0,0,1,.146.146h0a.129.129,0,0,1-.146.146h-1.756A.129.129,0,0,1,117.7,119.746Z" transform="translate(-117.7 -119.6)"/></g><g transform="translate(34.428 58.42)"><path class="n" d="M83.23,119.849v5.023H72.209a1.624,1.624,0,0,1-1.609-1.609V119.8H83.23Z" transform="translate(-70.6 -119.8)"/></g><g transform="translate(40.816 58.469)"><path class="o" d="M117.25,119.9v15.166H97.7a13.513,13.513,0,0,1-9.9-4.438,15.7,15.7,0,0,1-4.1-10.679h33.55Z" transform="translate(-83.7 -119.9)"/></g><g transform="translate(54.226 63.492)"><path class="p" d="M128.755,140.294H126.22v-8.826a1.291,1.291,0,0,1,1.268-1.268h0a1.291,1.291,0,0,1,1.268,1.268v8.826Zm-4.974,0h-2.536v-8.826a1.291,1.291,0,0,1,1.268-1.268h0a1.291,1.291,0,0,1,1.268,1.268v8.826Zm-5.12,0h-2.536v-8.826a1.291,1.291,0,0,1,1.268-1.268h0a1.291,1.291,0,0,1,1.268,1.268v8.826Zm-4.974,0H111.2v-8.826a1.291,1.291,0,0,1,1.268-1.268h0a1.291,1.291,0,0,1,1.268,1.268v8.826Z" transform="translate(-111.2 -130.2)"/></g><g transform="translate(55.641 58.469)"><path class="n" d="M116.928,122.728A2.83,2.83,0,0,1,114.1,119.9h5.608A2.759,2.759,0,0,1,116.928,122.728Z" transform="translate(-114.1 -119.9)"/></g><g transform="translate(57.152 58.469)"><path class="l" d="M118.517,121.217A1.311,1.311,0,0,1,117.2,119.9h2.682A1.386,1.386,0,0,1,118.517,121.217Z" transform="translate(-117.2 -119.9)"/></g><g transform="translate(58.274 58.469)"><path class="q" d="M119.793,119.9v.927a.129.129,0,0,1-.146.146h0a.129.129,0,0,1-.146-.146V119.9Z" transform="translate(-119.5 -119.9)"/></g><g transform="translate(57.396 58.42)"><path class="q" d="M117.7,119.849h0l2.048-.049v.049h0a.129.129,0,0,1-.146.146h-1.756A.129.129,0,0,1,117.7,119.849Z" transform="translate(-117.7 -119.8)"/></g></g></svg>