<?xml version="1.0" encoding="utf-8"?>
<!-- Generator: Adobe Illustrator 21.1.0, SVG Export Plug-In . SVG Version: 6.00 Build 0)  -->
<svg version="1.1" id="Layer_1" xmlns="http://www.w3.org/2000/svg" xmlns:xlink="http://www.w3.org/1999/xlink" x="0px" y="0px"
	 viewBox="0 0 50 50" style="enable-background:new 0 0 50 50;" xml:space="preserve">
<style type="text/css">
	.st0{fill:#FF492C;}
</style>
<g>
	<path class="st0" d="M44.8,46.5h4.9V50H35.3v-5.7c0-1.1,0.2-2.1,0.6-2.9c0.4-0.8,1-1.5,1.7-2c0.7-0.5,1.6-0.7,2.5-0.7
		c1.4,0,2.5,0.5,3.4,1.5s1.3,2.4,1.3,4.1C44.8,44.3,44.8,46.5,44.8,46.5z M42.1,46.5v-2.3c0-0.7-0.2-1.2-0.5-1.5
		c-0.3-0.4-0.8-0.5-1.4-0.5c-0.7,0-1.2,0.2-1.6,0.5C38.2,43,38,43.6,38,44.2v2.3H42.1z"/>
	<path class="st0" d="M44.6,31.5v1.9h5.1v3.5H35.3v-5.7c0-1.7,0.4-3,1.1-4c0.8-1,1.8-1.4,3.2-1.4c1,0,1.8,0.2,2.5,0.6
		c0.7,0.4,1.2,1,1.6,1.9l5.8-3h0.1V29L44.6,31.5z M41.9,33.4v-2.2c0-0.7-0.2-1.2-0.5-1.5c-0.3-0.3-0.8-0.5-1.5-0.5
		c-0.7,0-1.1,0.2-1.5,0.5c-0.4,0.3-0.5,0.8-0.5,1.5v2.2H41.9z"/>
	<path class="st0" d="M43.6,14.7v5.5H47v-6.4h2.7v9.9H35.3v-9.9H38v6.5h3v-5.5h2.6V14.7z"/>
	<path class="st0" d="M45.8,6.7L35.3,3.9V0l14.4,4.8v3.8l-14.4,4.8V9.6L45.8,6.7z"/>
</g>
<polygon class="st0" points="5.2,30.2 25,50 25,39.6 10.4,25 25,10.3 25,0 0,25 "/>
</svg>
