<?xml version="1.0" encoding="utf-8"?>
<!-- Generator: Adobe Illustrator 21.1.0, SVG Export Plug-In . SVG Version: 6.00 Build 0)  -->
<svg version="1.1" id="Layer_1" xmlns="http://www.w3.org/2000/svg" xmlns:xlink="http://www.w3.org/1999/xlink" x="0px" y="0px"
	 viewBox="0 0 102.2 102" style="enable-background:new 0 0 102.2 102;" xml:space="preserve">
<style type="text/css">
	.st0{opacity:0.2;fill:#FFFFFF;enable-background:new    ;}
	.st1{fill:#00D5FD;}
</style>
<path class="st0" d="M74.7,0H12C5.4,0,0,5.4,0,12v62.7c0,6.6,5.4,12,12,12h1.6V102l18.1-15.3h42.9c6.6,0,12-5.4,12-12V12
	C86.7,5.4,81.3,0,74.7,0z"/>
<g>
	<path class="st1" d="M15.9,55.3c8.4-0.8,12.5-5.1,11.9-12h-7.5V23.9H40v16.4c0,16-8,22.4-22.5,22.6L15.9,55.3z M46.8,55.3
		c8.4-0.8,12.5-5.1,11.9-12h-7.5V23.9h19.7v16.4c0,16-8,22.4-22.5,22.6L46.8,55.3z"/>
</g>
</svg>
