<svg id="Layer_1" data-name="Layer 1" xmlns="http://www.w3.org/2000/svg" viewBox="0 0 20 20"><defs><style>.cls-1{fill:#fff;}</style></defs><title>twitter-icon</title><path class="cls-1" d="M20.11,3.13a6.33,6.33,0,0,1-2.37.71,4.4,4.4,0,0,0,1.82-2.45,9.14,9.14,0,0,1-2.69,1.11,4,4,0,0,0-3-1.42,4.34,4.34,0,0,0-4.19,4.5,4.5,4.5,0,0,0,.08,1A11.56,11.56,0,0,1,1.15,1.94,4.29,4.29,0,0,0,.6,4.23,4.49,4.49,0,0,0,2.42,7.95a3.8,3.8,0,0,1-1.9-.55v.08A4.53,4.53,0,0,0,3.84,11.9a4.66,4.66,0,0,1-1.11.16A2.69,2.69,0,0,1,1.94,12a4.11,4.11,0,0,0,3.87,3.08A8.07,8.07,0,0,1,.68,17a4.86,4.86,0,0,1-1-.08A11.22,11.22,0,0,0,6,18.93c7.66,0,11.85-6.79,11.85-12.72V5.65A9.44,9.44,0,0,0,20.11,3.13Z"/></svg>