<?xml version="1.0" encoding="utf-8"?>
<!-- Generator: Adobe Illustrator 18.0.0, SVG Export Plug-In . SVG Version: 6.00 Build 0)  -->
<!DOCTYPE svg PUBLIC "-//W3C//DTD SVG 1.1//EN" "http://www.w3.org/Graphics/SVG/1.1/DTD/svg11.dtd">
<svg version="1.1" id="Layer_1" xmlns="http://www.w3.org/2000/svg" xmlns:xlink="http://www.w3.org/1999/xlink" x="0px" y="0px"
	 width="128px" height="128px" viewBox="0 0 128 128" style="enable-background:new 0 0 128 128;" xml:space="preserve">
<style type="text/css">
	.st0{fill:#008FDF;}
	.st1{opacity:0.75;clip-path:url(#SVGID_2_);}
	.st2{opacity:0.35;fill:#1B4B8F;}
	.st3{opacity:0.24;clip-path:url(#SVGID_2_);fill:#005595;}
	.st4{fill:#D8ECF4;}
	.st5{fill:#FFFFFF;}
	.st6{fill:#BDDDED;}
	.st7{opacity:0.8;clip-path:url(#SVGID_4_);fill:#A3C8D8;}
	.st8{fill:#3F413E;}
	.st9{clip-path:url(#SVGID_6_);fill:#2C2E2B;}
	.st10{fill:#C1DD00;}
</style>
<g>
	<circle class="st0" cx="64" cy="64" r="64"/>
	<g>
		<defs>
			<circle id="SVGID_1_" cx="64" cy="64" r="64"/>
		</defs>
		<clipPath id="SVGID_2_">
			<use xlink:href="#SVGID_1_"  style="overflow:visible;"/>
		</clipPath>
		<g class="st1">
			<polygon class="st2" points="21.1,81.1 68.3,128 128,128 127.9,75 106,53.1 85,32.3 			"/>
		</g>
		<polygon class="st3" points="54,97.1 85,128 128,128 128,121.6 91.4,85 66,85.9 		"/>
	</g>
	<path class="st4" d="M92.5,47.2c0,0-0.1,0-0.1,0c-1.2-12-11.3-21.3-23.6-21.3c-10.7,0-19.7,7-22.7,16.7c-1.7-1.1-3.7-1.7-5.8-1.7
		c-5.9,0-10.7,4.8-10.7,10.7c0,0.9,0.1,1.7,0.3,2.6c-7.6,1.1-13.4,8-13.4,15.8c0,8.6,7,16,15.6,16h60.2c10.5,0,19-8.9,19-19.4
		C111.4,56.1,102.9,47.2,92.5,47.2z"/>
	<path class="st5" d="M21.1,69.9c0-7.9,4.1-14.4,11.6-15.5c-0.2-0.8-0.4-2.8-0.4-3.7c0-5.1,4.4-9.8,10.2-9.7
		c-0.7-0.1-1.4-0.3-2.2-0.3c-5.9,0-10.7,4.8-10.7,10.7c0,0.9,0.1,1.7,0.3,2.6c-7.6,1.1-13.4,8-13.4,15.8c0,8.6,7,16,15.6,16h4.5
		C28.1,85.9,21.1,78.6,21.1,69.9z"/>
	<path class="st6" d="M92.5,47.2c0,0-0.1,0-0.1,0c-0.6-5.9-3.3-11.1-7.4-14.9c3.3,3.7,5.3,8.5,5.3,13.8c0,1-0.1,1.9-0.2,2.8
		c0.2,0,1.4,0,1.4,0c7.1,0,15.5,7.2,15.5,17.7c0,10.5-8.5,19.4-19,19.4h4.5c10.5,0,19-8.9,19-19.4C111.4,56.1,102.9,47.2,92.5,47.2z
		"/>
	<path class="st5" d="M63.2,26.5c-7.9,1.9-14.5,7.7-17.1,16.1c1.5,0.9,2.2,1.5,3,2.5C49.5,36.4,55.3,29.2,63.2,26.5z"/>
	<g>
		<defs>
			<path id="SVGID_3_" d="M92.5,47.2c0,0-0.1,0-0.1,0c-1.2-12-11.3-21.3-23.6-21.3c-10.7,0-19.7,7-22.7,16.7
				c-1.7-1.1-3.7-1.7-5.8-1.7c-5.9,0-10.7,4.8-10.7,10.7c0,0.9,0.1,1.7,0.3,2.6c-7.6,1.1-13.4,8-13.4,15.8c0,8.6,7,16,15.6,16h60.2
				c10.5,0,19-8.9,19-19.4C111.4,56.1,102.9,47.2,92.5,47.2z"/>
		</defs>
		<clipPath id="SVGID_4_">
			<use xlink:href="#SVGID_3_"  style="overflow:visible;"/>
		</clipPath>
		<polygon class="st7" points="44.1,79.2 52.7,87.8 94.6,88.2 82.9,76.4 		"/>
	</g>
	<g>
		<path class="st8" d="M83.9,77.7L64,52.3L44.1,77.7c-0.6,0.8-0.1,2,1,2h8.3v15.6c0,1.4,1.1,2.5,2.5,2.5h16.2c1.4,0,2.5-1.1,2.5-2.5
			V79.7H83C84,79.7,84.5,78.5,83.9,77.7z"/>
	</g>
	<g>
		<defs>
			<path id="SVGID_5_" d="M83.9,77.7L64,52.3L44.1,77.7c-0.6,0.8-0.1,2,1,2h8.3v15.6c0,1.4,1.1,2.5,2.5,2.5h16.2
				c1.4,0,2.5-1.1,2.5-2.5V79.7H83C84,79.7,84.5,78.5,83.9,77.7z"/>
		</defs>
		<clipPath id="SVGID_6_">
			<use xlink:href="#SVGID_5_"  style="overflow:visible;"/>
		</clipPath>
		<polygon class="st9" points="53.4,75.8 61.7,84 59.4,92.3 73.7,106.6 82.8,80.6 64,61.8 		"/>
	</g>
	<g>
		<polygon class="st10" points="64,61.8 64,61.9 64,61.8 53.4,75.8 59.4,75.8 59.4,92.3 68.6,92.3 68.6,75.8 74.6,75.8 		"/>
	</g>
</g>
</svg>
