<?xml version="1.0" encoding="utf-8"?>
<!-- Generator: Adobe Illustrator 22.0.1, SVG Export Plug-In . SVG Version: 6.00 Build 0)  -->
<svg version="1.1" id="Layer_1" xmlns="http://www.w3.org/2000/svg" xmlns:xlink="http://www.w3.org/1999/xlink" x="0px" y="0px"
	 viewBox="0 0 128 128" style="enable-background:new 0 0 128 128;" xml:space="preserve">
<style type="text/css">
	.st0{fill:#003DA6;}
	.st1{fill:#FFFFFF;}
</style>
<g id="Layer_2_1_">
	<g>
		<circle class="st0" cx="64" cy="64" r="64"/>
	</g>
</g>
<g>
	<path class="st1" d="M28.7,60.3h-3.1c-2,0-3.7,1.6-3.7,3.7c0,2,1.6,3.7,3.7,3.7h3.1c2,0,3.7-1.6,3.7-3.7
		C32.3,62,30.7,60.3,28.7,60.3z"/>
	<path class="st1" d="M39.5,76h-1.6c-2,0-3.7,1.6-3.7,3.7c0,2,1.6,3.7,3.7,3.7h1.6c2,0,3.7-1.6,3.7-3.7C43.2,77.6,41.5,76,39.5,76z"
		/>
	<path class="st1" d="M106.1,28.9c-12.8,0-13.9,0.4-17.7,10.7L74.9,75.7L72,83.5l-0.7,1.8c-1.2,3.3-0.6,3.5-4.1,3.5l0-56.2v-0.2
		c-0.1-1.9-1.6-3.5-3.6-3.5c0,0-0.1,0-0.1,0h-1.6c0,0-0.1,0-0.1,0l-14.7,0c-2.2,0-3.9,1.7-3.9,3.9c0,2.2,1.7,3.9,3.9,3.9H55
		c2.2,0,3.9,1.7,3.9,3.9c0,2.2-1.7,3.9-3.9,3.9l-25.1,0c-2.2,0-3.9,1.8-3.9,3.9c0,2.2,1.8,3.9,3.9,3.9l24.5,0v0
		c2.1,0.1,3.8,1.8,3.8,3.9c0,2.1-1.7,3.8-3.8,3.9v0l-13.2,0c-2.2,0-3.9,1.8-3.9,3.9c0,2.2,1.7,3.9,3.9,3.9h15.8
		c2.2,0,3.9,1.7,3.9,3.9c0,2.2-1.7,3.9-3.9,3.9h-5.3c-2.2,0-3.9,1.7-3.9,3.9c0,2.2,1.7,3.9,3.9,3.9h2.8c2.2,0,3.9,1.7,3.9,3.9
		c0,2.2-1.7,3.9-3.9,3.9h-0.1v0.1c-1.9,0.3-3.3,1.9-3.3,3.8c0,2,1.4,3.6,3.3,3.9c0.2,0,0.4,0.1,0.6,0.1h14.8
		c8.6-0.1,10.5-1.2,13.2-7.8c0.3-0.8,0.7-1.7,1-2.7l2.2-5.8l1.5-4.1l9-24.1l0,0L106.1,28.9z"/>
</g>
</svg>
