<?xml version="1.0" encoding="utf-8"?>
<!-- Generator: Adobe Illustrator 21.1.0, SVG Export Plug-In . SVG Version: 6.00 Build 0)  -->
<svg version="1.1" id="Layer_1" xmlns="http://www.w3.org/2000/svg" xmlns:xlink="http://www.w3.org/1999/xlink" x="0px" y="0px"
	 viewBox="0 0 128.9 144" style="enable-background:new 0 0 128.9 144;" xml:space="preserve">
<style type="text/css">
	.st0{fill:#0D2240;}
</style>
<path class="st0" d="M128.9,122.7c-2,2.4-14,14.2-24.4,21.3c-1.7-24.8-13.6-40.7-33.1-54.3l0,0c-0.6,13.2-0.7,24.8-0.2,32.9
	c0.4,7,3.8,11.3,9.2,15.8c-7.1,1.6-27.9,1.3-35.1-0.9c0.8-0.6,9.6-5.5,10.4-21.3c0.5-11.4,0.6-19.8,0.2-33.7l-0.8-3.6
	c-9.5-7-17.8-14.2-28.4-25.7c9.8,25.8-2.6,57.9-4.1,69.7c-0.5,4-1.7,12-1.3,20.2c-3-1.8-15.3-9.9-21.2-17.6
	c17.2-29.4,29.6-58.2,2.6-84.4c5.1-7.6,12.6-14.4,18.6-17.4c6.3,18.2,20.1,32.6,30.1,38.9c-7.6-28.3-17.4-37.5-23.6-40.6
	C31.8,12.4,45.2,2.5,52.3,0c-3.3,10.6-3.5,17.5-0.3,28.8c3.3,11.4,8.3,25.2,14,35.6c3.1-5.3,13.8-27.6,16.7-37.4
	c2.9-9.8,2.9-18.5,1.6-24.8c6.2,3.2,19.5,15.6,22.6,21.7c-6.5,1.4-9.6,4.8-13.4,11.4c-4,6.8-14,32.5-19.6,43.6
	c5.9,5.1,16.2,11.5,24.3,21.2c-8.9-35.2,0.2-61.9,12-69.9c5.5,1.6,12.5,6.1,17.6,11.4c-19.1,8-17.9,32.4-18,34.2
	c-0.9,14,4.8,38.8,15.4,44.9C127.4,122,127.6,122.1,128.9,122.7c-2,2.4-14,14.2-24.4,21.3"/>
</svg>
